<svg width="45" height="45" viewBox="0 0 45 45" fill="none" xmlns="http://www.w3.org/2000/svg">
<path fill-rule="evenodd" clip-rule="evenodd" d="M39.9413 24.6806C40.665 24.6806 41.25 25.2656 41.25 25.9875V26.0868C41.25 29.2931 41.25 31.8318 40.9838 33.8175C40.7081 35.8612 40.1287 37.5187 38.8237 38.8237C37.5187 40.1287 35.8613 40.7081 33.8175 40.9837C31.83 41.25 29.2913 41.25 26.0869 41.25H25.9875C25.6492 41.2371 25.3291 41.0938 25.0943 40.8499C24.8595 40.606 24.7283 40.2807 24.7283 39.9421C24.7283 39.6036 24.8595 39.2783 25.0943 39.0344C25.3291 38.7905 25.6492 38.6471 25.9875 38.6343C29.3138 38.6343 31.6763 38.6306 33.4688 38.3906C35.2238 38.1543 36.2363 37.7118 36.975 36.9731C37.7119 36.2362 38.1544 35.2237 38.3906 33.4687C38.6306 31.6762 38.6344 29.3137 38.6344 25.9875C38.6344 25.2656 39.2194 24.6806 39.9413 24.6806ZM5.05875 24.6806C5.78063 24.6806 6.36563 25.2656 6.36563 25.9875C6.36563 29.3137 6.36938 31.6762 6.60938 33.4687C6.84563 35.2237 7.28813 36.2362 8.02688 36.975C8.76563 37.7118 9.77625 38.1543 11.5313 38.3906C13.3238 38.6306 15.6863 38.6343 19.0125 38.6343C19.1884 38.6277 19.3639 38.6566 19.5283 38.7193C19.6928 38.782 19.843 38.8773 19.9698 38.9994C20.0966 39.1215 20.1975 39.2679 20.2664 39.4299C20.3353 39.5919 20.3708 39.7661 20.3708 39.9421C20.3708 40.1182 20.3353 40.2924 20.2664 40.4544C20.1975 40.6164 20.0966 40.7628 19.9698 40.8849C19.843 41.007 19.6928 41.1023 19.5283 41.165C19.3639 41.2277 19.1884 41.2566 19.0125 41.25H18.9131C15.7069 41.25 13.1681 41.25 11.1825 40.9837C9.13875 40.7081 7.48125 40.1287 6.17625 38.8237C4.87125 37.5187 4.29187 35.8612 4.01625 33.8175C3.75 31.83 3.75 29.2912 3.75 26.0868V25.9875C3.75 25.2656 4.335 24.6806 5.05875 24.6806ZM18.9131 3.74996H19.0125C19.1884 3.7433 19.3639 3.77219 19.5283 3.83492C19.6928 3.89764 19.843 3.9929 19.9698 4.115C20.0966 4.2371 20.1975 4.38353 20.2664 4.54552C20.3353 4.70751 20.3708 4.88174 20.3708 5.05777C20.3708 5.23381 20.3353 5.40804 20.2664 5.57003C20.1975 5.73202 20.0966 5.87845 19.9698 6.00055C19.843 6.12265 19.6928 6.21791 19.5283 6.28063C19.3639 6.34335 19.1884 6.37225 19.0125 6.36559C15.6863 6.36559 13.3238 6.36934 11.5313 6.60934C9.77625 6.84559 8.76563 7.28809 8.025 8.02684C7.28813 8.76559 6.84563 9.77621 6.60938 11.5312C6.36938 13.3237 6.36563 15.6862 6.36563 19.0125C6.35281 19.3507 6.20942 19.6709 5.96556 19.9057C5.7217 20.1405 5.39634 20.2717 5.05781 20.2717C4.71929 20.2717 4.39393 20.1405 4.15007 19.9057C3.9062 19.6709 3.76281 19.3507 3.75 19.0125V18.9131C3.75 15.7068 3.75 13.1681 4.01625 11.1825C4.29187 9.13871 4.87125 7.48121 6.17625 6.17621C7.48125 4.87121 9.13875 4.29184 11.1825 4.01621C13.17 3.74996 15.7088 3.74996 18.9131 3.74996ZM33.4688 6.60934C31.6763 6.36934 29.3138 6.36559 25.9875 6.36559C25.6492 6.35277 25.3291 6.20938 25.0943 5.96552C24.8595 5.72166 24.7283 5.3963 24.7283 5.05777C24.7283 4.71925 24.8595 4.39389 25.0943 4.15003C25.3291 3.90617 25.6492 3.76277 25.9875 3.74996H26.0869C29.2931 3.74996 31.8319 3.74996 33.8175 4.01621C35.8613 4.29184 37.5187 4.87121 38.8237 6.17621C40.1287 7.48121 40.7081 9.13871 40.9838 11.1825C41.25 13.17 41.25 15.7087 41.25 18.9131V19.0125C41.2567 19.1884 41.2278 19.3638 41.165 19.5283C41.1023 19.6928 41.0071 19.8429 40.885 19.9697C40.7629 20.0965 40.6164 20.1974 40.4544 20.2663C40.2925 20.3352 40.1182 20.3707 39.9422 20.3707C39.7662 20.3707 39.5919 20.3352 39.4299 20.2663C39.2679 20.1974 39.1215 20.0965 38.9994 19.9697C38.8773 19.8429 38.7821 19.6928 38.7193 19.5283C38.6566 19.3638 38.6277 19.1884 38.6344 19.0125C38.6344 15.6862 38.6306 13.3237 38.3906 11.5312C38.1544 9.77621 37.7119 8.76559 36.9731 8.02496C36.2363 7.28809 35.2238 6.84559 33.4688 6.60934Z" fill="black"/>
<path d="M19.449 19.5563C19.449 20.8219 18.7665 21.8475 17.9227 21.8475C17.079 21.8475 16.3965 20.8219 16.3965 19.5582C16.3965 18.2944 17.0809 17.2688 17.9227 17.2688C18.7665 17.2688 19.449 18.2944 19.449 19.5563ZM28.6065 19.5563C28.6065 20.8219 27.9221 21.8475 27.0802 21.8475C26.2365 21.8475 25.554 20.8219 25.554 19.5582C25.554 18.2944 26.2365 17.2688 27.0802 17.2688C27.924 17.2688 28.6065 18.2944 28.6065 19.5563ZM18.6052 27.0319C18.3613 26.8512 18.0556 26.7747 17.7553 26.8194C17.455 26.864 17.1847 27.0261 17.004 27.27C16.8232 27.514 16.7468 27.8197 16.7914 28.12C16.8361 28.4203 16.9982 28.6905 17.2421 28.8713C18.7612 30.0056 20.6056 30.6197 22.5015 30.6226C24.3973 30.6197 26.2418 30.0056 27.7609 28.8713C27.8815 28.7818 27.9834 28.6694 28.0606 28.5405C28.1378 28.4117 28.1889 28.2689 28.2109 28.1203C28.2329 27.9717 28.2255 27.8202 28.1889 27.6745C28.1524 27.5287 28.0876 27.3916 27.998 27.271C27.9085 27.1503 27.7962 27.0485 27.6673 26.9713C27.5384 26.8941 27.3956 26.843 27.247 26.821C27.0984 26.7989 26.9469 26.8064 26.8012 26.8429C26.6555 26.8794 26.5184 26.9443 26.3977 27.0338C25.2733 27.8762 23.9065 28.3321 22.5015 28.3332C21.0577 28.3332 19.7152 27.8569 18.6052 27.0319Z" fill="black"/>
<g opacity="0.5">
<path d="M19.449 19.5563C19.449 20.8219 18.7646 21.8475 17.9227 21.8475C17.079 21.8475 16.3965 20.8219 16.3965 19.5582C16.3965 18.2925 17.079 17.2688 17.9227 17.2688C18.7665 17.2688 19.449 18.2925 19.449 19.5563ZM28.6046 19.5563C28.6046 20.8219 27.9221 21.8475 27.0784 21.8475C26.2346 21.8475 25.5521 20.8219 25.5521 19.5582C25.5521 18.2925 26.2365 17.2688 27.0784 17.2688C27.9221 17.2688 28.6046 18.2925 28.6046 19.5563ZM18.6034 27.0319C18.3597 26.8512 18.0542 26.7746 17.7541 26.8191C17.454 26.8636 17.1838 27.0254 17.003 27.2691C16.8223 27.5128 16.7457 27.8183 16.7902 28.1184C16.8347 28.4185 16.9966 28.6887 17.2402 28.8694C18.7252 29.9719 20.5402 30.6226 22.5015 30.6226C24.3973 30.6197 26.2418 30.0056 27.7609 28.8713C27.8816 28.7818 27.9836 28.6694 28.0609 28.5405C28.1383 28.4116 28.1894 28.2687 28.2116 28.12C28.2337 27.9713 28.2263 27.8197 28.1898 27.6739C28.1533 27.528 28.0885 27.3908 27.999 27.27C27.9095 27.1493 27.7971 27.0473 27.6682 26.97C27.5392 26.8927 27.3964 26.8415 27.2477 26.8194C27.099 26.7972 26.9474 26.8046 26.8016 26.8411C26.6557 26.8776 26.5185 26.9424 26.3977 27.0319C25.2736 27.875 23.9067 28.3316 22.5015 28.3332C21.0577 28.3332 19.7152 27.855 18.6034 27.0319Z" fill="black"/>
<path fill-rule="evenodd" clip-rule="evenodd" d="M19.0122 8.5481H25.9872C30.9222 8.5481 33.3897 8.5481 34.9216 10.08C36.4535 11.6118 36.4535 14.0793 36.4535 19.0125V25.9875C36.4535 30.9225 36.4535 33.39 34.9216 34.9218C33.3897 36.4537 30.9222 36.4537 25.9891 36.4537H19.0122C14.0791 36.4537 11.6116 36.4537 10.0797 34.9218C8.54785 33.39 8.54785 30.9225 8.54785 25.9893V19.0125C8.54785 14.0793 8.54785 11.6118 10.0797 10.08C11.6116 8.5481 14.0791 8.5481 19.0122 8.5481ZM17.0022 27.27C17.0917 27.1491 17.204 27.047 17.3329 26.9696C17.4618 26.8922 17.6048 26.841 17.7535 26.8189C17.9022 26.7968 18.0538 26.8042 18.1997 26.8407C18.3455 26.8773 18.4827 26.9422 18.6035 27.0318C19.7154 27.8568 21.056 28.3331 22.5016 28.3331C23.9454 28.3331 25.286 27.855 26.3979 27.0318C26.6415 26.8511 26.947 26.7745 27.2471 26.819C27.5472 26.8635 27.8174 27.0254 27.9982 27.269C28.1789 27.5127 28.2555 27.8182 28.211 28.1183C28.1665 28.4184 28.0046 28.6886 27.761 28.8693C26.2421 30.0043 24.3977 30.6191 22.5016 30.6225C20.6051 30.6201 18.76 30.0059 17.2404 28.8712C17.1195 28.7818 17.0174 28.6694 16.94 28.5405C16.8626 28.4116 16.8114 28.2687 16.7893 28.12C16.7672 27.9712 16.7746 27.8196 16.8111 27.6738C16.8477 27.5279 16.9126 27.3907 17.0022 27.27ZM27.0785 21.8475C27.9222 21.8475 28.6047 20.8218 28.6047 19.5581C28.6047 18.2925 27.9222 17.2687 27.0785 17.2687C26.2347 17.2687 25.5522 18.2925 25.5522 19.5562C25.5522 20.8218 26.2366 21.8475 27.0785 21.8475ZM17.9229 21.8475C18.7666 21.8475 19.4491 20.8218 19.4491 19.5581C19.4491 18.2925 18.7647 17.2687 17.9229 17.2687C17.0791 17.2687 16.3966 18.2925 16.3966 19.5562C16.3966 20.8218 17.0791 21.8475 17.9229 21.8475Z" fill="black"/>
</g>
</svg>
