<svg width="22" height="22" viewBox="0 0 22 22" fill="none" xmlns="http://www.w3.org/2000/svg">
<mask id="mask0_46_3657" style="mask-type:luminance" maskUnits="userSpaceOnUse" x="0" y="0" width="22" height="22">
<path d="M0 0H22V21.9995H0V0Z" fill="white"/>
</mask>
<g mask="url(#mask0_46_3657)">
<path d="M21.3846 10.2515C21.3855 10.2319 21.3859 10.2118 21.3859 10.1917C21.3859 9.86483 21.2624 9.54852 21.0299 9.2482C20.4433 8.48849 19.1643 7.82752 17.4443 7.35213C17.4506 7.14095 17.4276 6.93937 17.4326 6.72818C17.436 6.59014 17.4385 6.45163 17.441 6.31359C17.4422 6.27245 17.4431 6.23131 17.4435 6.19063C17.4481 5.90814 17.451 5.62565 17.4526 5.34316C17.4531 5.30156 17.4531 5.25996 17.4531 5.21791C17.4543 4.82617 17.461 4.4518 17.4547 4.05915C17.2674 4.07378 17.0308 4.08978 16.7888 4.13777C16.7717 4.03447 16.7671 3.90236 16.7783 3.80592C17.1551 3.81734 17.4923 3.50606 17.61 3.1134C17.7276 2.72029 17.6296 2.32078 17.3876 2.0031C17.2102 1.77043 16.9215 1.51811 16.6365 1.48611C16.4228 1.46189 16.5384 1.52268 16.5267 1.72609C16.5167 1.90802 16.4378 2.09955 16.3606 2.2577C16.2388 2.50865 16.0957 2.73492 16.0915 3.01878C16.0861 3.39178 16.3594 3.73049 16.692 3.8018C16.6828 3.91562 16.6882 4.0491 16.7153 4.1556C16.525 4.19765 16.3602 4.26393 16.2246 4.33341C16.2033 4.86091 16.1816 5.35093 16.1691 5.87843C16.1687 5.89442 16.1683 5.91042 16.1679 5.92642C16.1603 6.25691 16.1545 6.58785 16.1499 6.9188L16.1437 6.94485C16.1428 6.98096 16.1265 7.00565 16.1265 7.04221C15.312 6.8804 14.4291 6.75652 13.496 6.67607C13.4952 6.41552 13.4635 6.14812 13.4606 5.88757C13.4606 5.87294 13.4602 5.85786 13.4602 5.84323C13.4577 5.64439 13.4543 5.44601 13.4506 5.24762C13.4476 5.11369 13.4451 4.97976 13.4418 4.84583C13.4414 4.81749 13.441 4.7896 13.4401 4.76126H13.4397C13.4272 4.23925 13.4197 3.74695 13.3984 3.22448C13.2632 3.155 13.0905 3.09055 12.8998 3.04849C12.9269 2.94199 12.9398 2.8012 12.9302 2.68738C13.2632 2.61562 13.5336 2.2993 13.5282 1.9263C13.5244 1.64244 13.3763 1.39789 13.2544 1.1474C13.1777 0.98924 13.113 0.808684 13.1026 0.626757C13.0913 0.423345 13.1756 0.347923 12.9936 0.371235C12.7091 0.408261 12.4028 0.642755 12.2254 0.875421C11.9834 1.19311 11.8895 1.61913 12.0072 2.0127C12.1245 2.40489 12.4662 2.71664 12.8426 2.70567C12.8534 2.80257 12.8459 2.94427 12.8292 3.04712C12.5876 2.99913 12.3686 2.98267 12.182 2.96759C12.1758 3.3575 12.18 3.72455 12.1808 4.11309C12.1804 4.15834 12.1808 4.20314 12.1812 4.24794C12.1825 4.53043 12.1858 4.81292 12.1904 5.09495C12.1908 5.14203 12.1916 5.18911 12.1929 5.2362C12.1958 5.38658 12.1992 5.53743 12.2029 5.68827C12.2096 5.99727 12.1733 6.28434 12.1841 6.59379C11.794 6.57825 11.3971 6.57048 10.9953 6.57048C10.384 6.57048 9.78521 6.58877 9.2027 6.62442C9.21104 6.40958 9.19561 6.20023 9.20228 5.98585C9.20312 5.96116 9.20395 5.93648 9.20437 5.91225C9.20896 5.77192 9.21271 5.63159 9.21647 5.49126C9.22189 5.28328 9.22648 5.07484 9.23024 4.8664C9.23107 4.82754 9.23191 4.78823 9.23233 4.74938C9.23692 4.46689 9.24025 4.1844 9.24151 3.90191C9.24192 3.85711 9.24234 3.81277 9.24192 3.76706C9.24276 3.37852 9.24443 3.00598 9.23817 2.61607C9.05081 2.63162 8.81588 2.65493 8.57386 2.70292C8.55676 2.59962 8.54883 2.46614 8.56009 2.36969C8.93689 2.38112 9.28282 2.09223 9.40049 1.69958C9.51816 1.30601 9.4201 0.871307 9.17808 0.55362C9.00074 0.320954 8.69905 0.0722894 8.41405 0.040292C8.19999 0.0160655 8.30806 0.0905735 8.29638 0.294442C8.28594 0.475912 8.21167 0.658297 8.13489 0.816912C8.01305 1.06741 7.86617 1.30053 7.86199 1.58439C7.85657 1.95739 8.14532 2.29564 8.47789 2.36695C8.46871 2.48077 8.47163 2.61196 8.49917 2.71847C8.30848 2.76052 8.13197 2.80943 7.99636 2.87937C7.97508 3.40686 7.97174 3.91791 7.95922 4.44632C7.9588 4.46186 7.95838 4.47786 7.95838 4.4934C7.95338 4.70093 7.9492 4.90891 7.94587 5.11643C7.94378 5.23985 7.94211 5.36281 7.94044 5.48623C7.93961 5.51869 7.93919 5.55205 7.93919 5.58451C7.9346 5.96436 7.90289 6.35381 7.9033 6.73367C6.83216 6.84977 5.83571 7.02484 4.94441 7.24745C4.8839 6.59562 4.78876 5.90037 4.71949 5.2202C4.71699 5.19643 4.71449 5.1722 4.71198 5.14797C4.67151 4.75441 4.66608 4.36587 4.61768 3.9723C4.43366 4.0107 4.18997 4.06692 3.95463 4.14554C3.92667 4.04452 3.90539 3.90739 3.90664 3.81094C4.28136 3.77346 4.60099 3.45212 4.6761 3.04758C4.75162 2.64213 4.59932 2.21611 4.32517 1.93087C4.12488 1.72244 3.81484 1.52222 3.52817 1.52679C3.31328 1.52999 3.4176 1.58988 3.42761 1.79374C3.43637 1.97521 3.38964 2.17405 3.32997 2.34135C3.23525 2.60556 3.11465 2.85194 3.14052 3.13443C3.17474 3.50606 3.47935 3.78078 3.81776 3.80912C3.82068 3.92293 3.8524 4.07104 3.89037 4.17343C3.70552 4.23971 3.5336 4.31559 3.40675 4.40152C3.44055 4.92262 3.50898 5.40761 3.55196 5.92825C3.55196 5.92825 3.55196 5.92825 3.55154 5.92825C3.55404 5.96071 3.55697 5.9927 3.55989 6.02516C3.58617 6.34376 3.61413 6.6619 3.64376 6.97959C3.6471 7.0221 3.65169 7.06598 3.65586 7.10849C3.65586 7.10849 3.65586 7.10849 3.65586 7.10895C3.66754 7.231 3.67923 7.35304 3.69133 7.47509C3.6955 7.5176 3.64918 7.58617 3.65336 7.62914C2.48457 8.0355 1.59202 8.53877 1.08336 9.10101C0.771654 9.44521 0.603909 9.81135 0.603909 10.1912C0.603909 10.2127 0.604326 10.2342 0.605578 10.2552C0.197483 12.8845 0.0193066 15.5567 0.0727178 18.2221C0.085236 18.8414 0.110273 19.4608 0.147827 20.0793C5.05331 22.0732 16.7487 22.8891 21.8428 20.0793C21.8628 19.7429 21.8795 19.406 21.8929 19.0691C22.0072 16.1217 21.8361 13.1601 21.3846 10.2515Z" fill="#EF82AF"/>
</g>
<path d="M13.4892 5.84975C13.4867 5.65136 13.4834 5.45252 13.4796 5.25414C13.4771 5.12021 13.4742 4.98628 13.4709 4.85234C13.4705 4.82446 13.47 4.79612 13.4692 4.76778C13.4567 4.24577 13.4396 3.72375 13.4187 3.20128C13.2835 3.1318 13.1028 3.07695 12.9126 3.0349C12.9397 2.92839 12.9505 2.81823 12.9409 2.70441C12.9397 2.68887 12.938 2.67333 12.9359 2.65779C12.9217 2.54717 12.8888 2.4434 12.8512 2.34238C12.7536 2.08046 12.6242 1.83546 12.7064 1.53011C12.7177 1.48897 12.6576 1.4588 12.6413 1.5004C12.5495 1.73718 12.5913 1.93922 12.6768 2.17371C12.7006 2.23817 12.7223 2.29987 12.7423 2.36021C12.7824 2.48317 12.8133 2.60019 12.8266 2.71812C12.8375 2.81503 12.8366 2.91285 12.8199 3.01524C12.5783 2.96725 12.3292 2.93845 12.1427 2.92291C12.1364 3.31282 12.1339 3.70181 12.1352 4.09035H12.1348C12.1348 4.1356 12.1352 4.1804 12.1356 4.2252C12.1369 4.50769 12.1402 4.79018 12.1448 5.07267C12.1448 5.07267 12.1448 5.07267 12.1444 5.07267C12.1452 5.11975 12.146 5.16637 12.1473 5.21346C12.1502 5.3643 12.1531 5.51469 12.1569 5.66553C12.164 5.97453 12.1732 6.28399 12.184 6.59345C12.6305 6.61128 13.0686 6.63916 13.4959 6.67573C13.4951 6.41518 13.493 6.15463 13.4897 5.89408C13.4897 5.87946 13.4892 5.86437 13.4892 5.84975Z" fill="#92D2E1"/>
<path d="M5.03607 8.6007C5.03356 8.56047 5.03106 8.52025 5.02814 8.48002C5.01771 8.30998 5.00644 8.14039 4.99476 7.97035C4.98933 7.88807 4.98349 7.80625 4.97765 7.72397C4.96847 7.58958 4.95887 7.45519 4.94886 7.32126C4.94802 7.30663 4.94677 7.29201 4.94552 7.27738C4.9451 7.26732 4.94427 7.25727 4.94343 7.24721C4.89252 6.56613 4.83369 5.88687 4.76442 5.2067C4.76192 5.18247 4.75941 5.15825 4.75691 5.13402C4.71643 4.74091 4.6722 4.3478 4.62422 3.95378C4.43978 3.99263 4.19567 4.05297 3.96033 4.13159C3.93237 4.03057 3.92194 3.93366 3.92278 3.83676C3.92403 3.717 3.94364 3.59723 3.97076 3.47016C3.98704 3.39337 4.00623 3.31383 4.02626 3.22972C4.07884 3.00894 4.08551 2.80873 3.98036 2.6076C3.95699 2.56235 3.90149 2.60212 3.91902 2.64692C4.0321 2.93763 3.92903 3.1959 3.85977 3.46696C3.8364 3.55884 3.81679 3.65163 3.81053 3.74762C3.80886 3.77825 3.80802 3.80796 3.80886 3.83767C3.81136 3.95149 3.83306 4.05982 3.87103 4.16222C3.68618 4.2285 3.51259 4.30529 3.38574 4.39168C3.41954 4.91278 3.45793 5.43388 3.50091 5.95452C3.50049 5.95452 3.50049 5.95406 3.50049 5.95406C3.503 5.98652 3.50592 6.01897 3.50884 6.05143C3.53513 6.36957 3.56308 6.68772 3.59271 7.00586C3.59271 7.00586 3.59271 7.00586 3.59229 7.0054C3.59605 7.04837 3.60064 7.0918 3.60481 7.13476C3.6165 7.25681 3.62818 7.37931 3.64028 7.50136C3.64445 7.54387 3.64863 7.58638 3.6528 7.62889C3.66782 7.77974 3.68284 7.93058 3.6987 8.08097C3.7133 8.22084 3.72833 8.36117 3.74335 8.50105C3.74627 8.52847 3.74919 8.55544 3.75253 8.58241C3.78424 8.87176 3.8172 9.16019 3.85142 9.44908C4.27788 9.53045 4.69014 9.45548 5.07404 9.25573C5.06194 9.03723 5.049 8.81874 5.03565 8.6007C5.03565 8.6007 5.03565 8.6007 5.03607 8.6007Z" fill="#92D2E1"/>
<path d="M9.25682 2.59441C9.06946 2.60949 8.82035 2.63875 8.57875 2.68674C8.56164 2.58344 8.56039 2.48562 8.57165 2.38917C8.58501 2.27124 8.61588 2.15467 8.65678 2.03126C8.67681 1.97092 8.69892 1.90921 8.72229 1.84476C8.80741 1.61163 8.84956 1.40731 8.75776 1.17144C8.7419 1.1303 8.6814 1.15956 8.69266 1.20115C8.77403 1.50467 8.64551 1.75105 8.54829 2.01343C8.51031 2.11491 8.47777 2.21867 8.46316 2.32883C8.46108 2.34437 8.45941 2.35991 8.45815 2.37545C8.44897 2.48927 8.45941 2.59944 8.48695 2.70594C8.29625 2.74799 8.11599 2.80285 7.98037 2.87233C7.95909 3.39983 7.94198 3.92824 7.92947 4.45619C7.92905 4.47219 7.92863 4.48773 7.92863 4.50373C7.92362 4.71126 7.91945 4.91878 7.91611 5.12631C7.91403 5.24973 7.91194 5.37314 7.91027 5.49656C7.90985 5.52902 7.90944 5.56193 7.90944 5.59484C7.90443 5.97424 7.90234 6.35409 7.90234 6.73349C7.90234 6.82079 7.90234 6.9081 7.90276 6.99541C7.90276 7.02466 7.90276 7.05437 7.90318 7.08363C7.90318 7.12614 7.90318 7.16865 7.9036 7.21116C7.90485 7.47765 7.90735 7.7446 7.91111 8.01109C7.92279 8.01703 7.93531 8.02343 7.94741 8.02892C8.36218 8.10708 8.75025 8.05817 9.14415 7.9343C9.15542 7.71032 9.16585 7.48588 9.17587 7.2619C9.17754 7.22442 9.17962 7.18648 9.18087 7.14854C9.18129 7.13528 9.18213 7.12202 9.18254 7.10877C9.18964 6.94695 9.1959 6.7856 9.20216 6.62378C9.2105 6.4094 9.21801 6.19456 9.22469 5.98018C9.22552 5.95549 9.22594 5.93081 9.22678 5.90658C9.23095 5.76625 9.23512 5.62592 9.23846 5.48559C9.2443 5.27715 9.24889 5.06917 9.25265 4.86073C9.25348 4.82142 9.2539 4.78257 9.25473 4.74325C9.25932 4.46122 9.26224 4.17873 9.2635 3.89624H9.26391C9.26433 3.85144 9.26433 3.80665 9.26433 3.76139C9.26516 3.37286 9.26308 2.98386 9.25682 2.59441Z" fill="#92D2E1"/>
<path d="M17.4739 4.03179C17.287 4.04687 17.0379 4.07567 16.7959 4.12412C16.7788 4.02082 16.7779 3.923 16.7888 3.82655C16.8021 3.70861 16.8334 3.59205 16.8739 3.46863C16.8939 3.4083 16.916 3.34704 16.9394 3.28259C17.0245 3.04901 17.0667 2.84469 16.9753 2.60882C16.959 2.56768 16.8989 2.59739 16.9102 2.63899C16.9916 2.94205 16.8626 3.18843 16.7654 3.45126C16.7278 3.55228 16.6949 3.65605 16.6807 3.76621C16.6786 3.78175 16.6769 3.79729 16.6757 3.81283C16.6661 3.92665 16.6769 4.03727 16.7041 4.14332C16.5138 4.18583 16.3331 4.24068 16.1979 4.31016C16.1766 4.8372 16.1595 5.3647 16.147 5.8922C16.1466 5.9082 16.1462 5.9242 16.1457 5.9402C16.1378 6.27068 16.132 6.60163 16.1278 6.93257C16.127 6.96868 16.1265 7.00571 16.1265 7.04227C16.1265 7.04639 16.1265 7.05005 16.1265 7.0537C16.1236 7.27677 16.122 7.49984 16.1211 7.72336C16.1203 7.9062 16.1203 8.0895 16.1203 8.2728C16.1203 8.32171 16.1203 8.37016 16.1207 8.41861C16.1203 8.41861 16.1203 8.41861 16.1203 8.41861C16.1199 8.46341 16.1203 8.50729 16.1207 8.55118C16.1207 8.55118 16.1207 8.55118 16.1211 8.55118C16.122 8.85058 16.1245 9.14952 16.1286 9.44893C16.1345 9.45213 16.1403 9.45487 16.1466 9.45807C16.5684 9.50195 16.9657 9.45533 17.3634 9.33511C17.3746 9.10747 17.3855 8.87983 17.3955 8.65265C17.3959 8.64351 17.3963 8.63437 17.3967 8.62523C17.4051 8.43096 17.413 8.23669 17.4205 8.04288C17.4293 7.81249 17.4372 7.58257 17.4443 7.35219C17.4506 7.14147 17.4564 6.93028 17.461 6.7191C17.4643 6.5806 17.4673 6.44255 17.4698 6.30405C17.471 6.26337 17.4714 6.22223 17.4718 6.18109C17.4764 5.89906 17.4798 5.61657 17.481 5.33362C17.4814 5.29202 17.4819 5.25088 17.4814 5.20837C17.4827 4.81709 17.4802 4.4249 17.4739 4.03179Z" fill="#92D2E1"/>
<path d="M13.2777 1.1397C13.2005 0.981538 13.1296 0.804638 13.1196 0.622711C13.1079 0.4193 13.2005 0.32605 12.9864 0.34982C12.7014 0.382274 12.3852 0.635967 12.2078 0.868633C11.9658 1.18678 11.8615 1.6384 11.9791 2.03151C12.0968 2.4237 12.4507 2.7295 12.827 2.71853C12.8137 2.6006 12.7828 2.48358 12.7423 2.36062C12.7227 2.30028 12.7006 2.23857 12.6772 2.17412C12.5917 1.93963 12.55 1.73759 12.6418 1.50081C12.6581 1.45921 12.7181 1.48938 12.7069 1.53098C12.6247 1.83587 12.754 2.08087 12.8513 2.34279C12.8892 2.44381 12.9222 2.54758 12.9364 2.6582C12.9385 2.67374 12.9401 2.68928 12.9414 2.70482C13.274 2.63305 13.559 2.29983 13.5539 1.92683C13.5498 1.64251 13.3996 1.39065 13.2777 1.1397Z" fill="#FECC55"/>
<path d="M4.34288 1.92109C4.14217 1.71219 3.80126 1.5001 3.51501 1.50421C3.30011 1.50741 3.40151 1.58877 3.41153 1.79218C3.42071 1.97411 3.36896 2.15878 3.30929 2.32563C3.21457 2.59029 3.09189 2.85952 3.11776 3.14247C3.15156 3.5141 3.47078 3.80939 3.80919 3.83773C3.80877 3.80801 3.80919 3.77785 3.81086 3.74768C3.81712 3.65168 3.83673 3.55844 3.8601 3.46701C3.92936 3.19595 4.03243 2.93723 3.91935 2.64697C3.90182 2.60217 3.95732 2.56241 3.98069 2.6072C4.08584 2.80878 4.07917 3.009 4.02659 3.22978C4.00656 3.31343 3.98737 3.39296 3.97109 3.47021C3.94397 3.59729 3.92436 3.71705 3.9231 3.83681C4.29824 3.79979 4.61745 3.45147 4.69256 3.04694C4.76809 2.64148 4.61703 2.20632 4.34288 1.92109Z" fill="#FECC55"/>
<path d="M8.41326 0.020474C8.1992 -0.00329538 8.29184 0.0899539 8.28015 0.293365C8.27014 0.475293 8.1992 0.652192 8.12242 0.810807C8.00058 1.0613 7.84994 1.31316 7.84577 1.59748C7.84076 1.97048 8.12576 2.30371 8.45833 2.37547C8.46 2.35993 8.46125 2.34439 8.46334 2.32885C8.47794 2.21869 8.51049 2.11493 8.54846 2.01345C8.64568 1.75107 8.77421 1.50469 8.69284 1.20163C8.68157 1.15958 8.74208 1.13032 8.75793 1.17146C8.84973 1.40733 8.80759 1.61165 8.72246 1.84523C8.6991 1.90923 8.67698 1.97094 8.65695 2.03128C8.61606 2.15469 8.58518 2.27125 8.57183 2.38919C8.94863 2.40062 9.30289 2.09481 9.42056 1.70262C9.53824 1.30905 9.43392 0.857432 9.1919 0.539287C9.01456 0.306621 8.69826 0.0529285 8.41326 0.020474Z" fill="#FECC55"/>
<path d="M17.4083 1.97644C17.2309 1.74378 16.9151 1.49008 16.6297 1.45809C16.416 1.43386 16.5082 1.52757 16.497 1.73098C16.4865 1.91245 16.416 2.08935 16.3388 2.24796C16.217 2.49846 16.0667 2.75078 16.0626 3.03464C16.0572 3.40764 16.3422 3.74132 16.6751 3.81263C16.6764 3.79709 16.6781 3.78155 16.6801 3.76601C16.6943 3.65584 16.7273 3.55208 16.7649 3.45106C16.8621 3.18823 16.991 2.94185 16.9096 2.63879C16.8984 2.59719 16.9585 2.56748 16.9747 2.60862C17.0661 2.84448 17.0244 3.04881 16.9389 3.28239C16.9155 3.34684 16.8934 3.40809 16.8738 3.46843C16.8329 3.59185 16.8016 3.70841 16.7882 3.82634C17.165 3.83777 17.5197 3.53197 17.637 3.13932C17.755 2.74621 17.6503 2.29459 17.4083 1.97644Z" fill="#FECC55"/>
<path d="M13.2336 1.69424C13.209 1.41633 13.0037 1.04973 12.7141 1.07213C12.6644 1.07578 12.6185 1.08675 12.5764 1.10367C12.5451 1.01316 12.4612 0.953736 12.3694 0.965621C12.2613 0.979334 12.1841 1.0863 12.1966 1.20469C12.2046 1.28057 12.248 1.34273 12.3064 1.37382C12.2425 1.50775 12.2192 1.66956 12.2405 1.82315C12.2655 2.00873 12.3469 2.19432 12.4929 2.29214C12.5676 2.34196 12.6548 2.3639 12.7416 2.3607C12.722 2.30037 12.6999 2.23866 12.6765 2.1742C12.591 1.93971 12.5492 1.73767 12.641 1.50089C12.6573 1.45929 12.7174 1.48946 12.7061 1.5306C12.6239 1.83595 12.7533 2.08096 12.8505 2.34288C12.9189 2.32368 12.9832 2.28894 13.0375 2.24003C13.1822 2.11021 13.2515 1.89583 13.2336 1.69424Z" fill="#FFE180"/>
<path d="M12.9405 2.70488C12.9392 2.68934 12.9375 2.6738 12.9355 2.65826C12.9209 2.54764 12.8879 2.44388 12.8503 2.34286C12.7531 2.08093 12.6238 1.83593 12.706 1.53104C12.7168 1.48944 12.6567 1.45927 12.6409 1.50087C12.5486 1.73765 12.5908 1.93969 12.6763 2.17418C12.6997 2.23864 12.7218 2.30034 12.7414 2.36068C12.7819 2.48364 12.8124 2.60066 12.8257 2.7186C12.837 2.8155 12.8361 2.91332 12.8195 3.01617C12.8503 3.02211 12.8812 3.02851 12.9121 3.03537C12.9392 2.92886 12.9496 2.8187 12.9405 2.70488Z" fill="#2CB0CF"/>
<path d="M13.49 5.89434C13.4904 5.91445 13.4904 5.93457 13.4904 5.95422C13.1036 6.22071 12.6417 6.3167 12.1748 6.30939C12.1735 6.26185 12.1718 6.21477 12.1706 6.16769C12.6346 6.17912 13.0823 6.09867 13.4892 5.8244C13.4892 5.83263 13.4892 5.84132 13.4896 5.85C13.4871 5.65162 13.4837 5.45323 13.48 5.25439C13.0907 5.53277 12.6217 5.6795 12.1572 5.66579C12.1643 5.97525 12.1735 6.28471 12.1839 6.59417C12.6308 6.61199 13.0686 6.63942 13.4963 6.67599C13.4954 6.41544 13.4933 6.15489 13.49 5.89434Z" fill="#7BCBDE"/>
<path d="M13.4467 3.98828C13.4458 3.94485 13.4442 3.90234 13.4425 3.85938C13.0115 4.01799 12.5771 4.09661 12.1352 4.09067H12.1348C12.1348 4.13592 12.1352 4.18072 12.1352 4.22552C12.1356 4.22552 12.1356 4.22552 12.1356 4.22552C12.5817 4.23649 13.0319 4.15649 13.4467 3.98828Z" fill="#2CB0CF"/>
<path d="M13.4719 4.88783C13.4715 4.87594 13.4715 4.86452 13.471 4.85263C13.4706 4.82475 13.4702 4.79641 13.4694 4.76807C13.0408 4.99113 12.5981 5.0693 12.1449 5.07295H12.1445C12.1454 5.12004 12.1458 5.16666 12.1475 5.21374C12.1475 5.21466 12.1475 5.21511 12.1475 5.21603C12.6127 5.20871 13.0692 5.11775 13.4719 4.88783Z" fill="#2CB0CF"/>
<path d="M12.1699 6.16796C12.1716 6.21504 12.1728 6.26167 12.1741 6.30966C12.641 6.31698 13.1029 6.22053 13.4898 5.95449C13.4898 5.93438 13.4898 5.91473 13.4893 5.89461C13.4893 5.87999 13.4889 5.8649 13.4889 5.85027C13.4885 5.84159 13.4885 5.8329 13.4885 5.82422C13.0821 6.09894 12.6339 6.17939 12.1699 6.16796Z" fill="#2CB0CF"/>
<path d="M15.6154 11.3094C13.3225 11.6764 11.0008 11.8135 8.68655 11.66C7.53487 11.5836 6.38653 11.4392 5.24862 11.2303C4.14535 11.0273 2.99993 10.8157 1.98929 10.2672C1.91251 10.2256 1.84449 10.3503 1.92169 10.3938C2.89728 10.9482 3.99346 11.1727 5.06586 11.3843C6.21712 11.6115 7.38007 11.7651 8.54718 11.8478C10.9206 12.0165 13.3087 11.8995 15.6546 11.4652C15.7489 11.4479 15.7076 11.2947 15.6154 11.3094Z" fill="#E4447F"/>
<path d="M19.8925 9.97941C19.1005 10.3552 18.2722 10.6175 17.4189 10.7565C17.3404 10.7693 17.3579 10.9206 17.4376 10.9101C18.3193 10.7921 19.161 10.5307 19.9626 10.1111C20.0444 10.0681 19.9726 9.94147 19.8925 9.97941Z" fill="#E4447F"/>
<path d="M7.18541 18.8199C7.97031 19.4369 8.74727 18.1374 8.9484 17.4645C8.99472 17.3105 9.03269 17.1542 9.06732 16.9965C9.00181 16.954 8.93379 16.9151 8.86369 16.8799C8.14473 16.5225 7.33104 16.661 6.58203 16.9956C6.60039 17.1857 6.62292 17.3754 6.65547 17.5633C6.73058 17.9994 6.83573 18.5447 7.18541 18.8199ZM7.79881 17.5761C7.8034 17.5253 7.87684 17.5249 7.87183 17.5761C7.86432 17.6584 7.86098 17.7429 7.84387 17.8238C7.83511 17.8631 7.78211 17.8526 7.78128 17.8147C7.77961 17.7351 7.79129 17.6552 7.79881 17.5761Z" fill="#ED71A5"/>
<mask id="mask1_46_3657" style="mask-type:luminance" maskUnits="userSpaceOnUse" x="0" y="14" width="22" height="8">
<path d="M0 14.5103H21.8932V21.9994H0V14.5103Z" fill="white"/>
</mask>
<g mask="url(#mask1_46_3657)">
<path d="M19.4017 18.7078C20.1445 18.5816 20.5822 17.8663 20.7783 17.1171C20.9093 16.6156 20.9519 16.1096 20.9402 15.6031C20.9302 16.0036 20.8822 16.4031 20.7783 16.7998C20.5759 17.5728 20.1165 18.3097 19.3299 18.4011C18.4027 18.5085 17.7071 17.6025 17.3646 16.7656C17.1217 16.1736 16.6431 14.0481 15.6775 14.7726C15.2736 15.0757 15.1234 15.6649 15.0028 16.1572C14.878 16.6655 14.8037 17.1861 14.6539 17.6875C14.5066 18.1803 14.336 18.6685 14.0739 19.1032C13.8945 19.4017 13.6642 19.7317 13.3091 19.7537C12.8634 19.7811 12.5396 19.3464 12.3122 18.9862C11.8319 18.2265 11.6416 17.3164 11.4167 16.4415C11.2978 15.9793 11.1818 15.4427 10.9327 15.0395C10.6222 14.5372 10.1745 14.7973 9.93623 15.2105C9.49851 15.9697 9.45637 16.937 9.16845 17.763C8.92935 18.4491 8.47869 19.1978 7.77308 19.3537C7.06413 19.5105 6.60972 18.8678 6.41276 18.2054C6.15989 17.3548 6.20162 16.4502 6.0852 15.5748C6.04347 15.2603 5.96836 14.6784 5.63872 14.5642C5.148 14.3941 4.69818 15.2923 4.53628 15.6699C4.21789 16.4118 3.98965 17.2382 3.32075 17.7031C2.863 18.0212 2.34475 17.9572 1.95084 17.555C1.35121 16.9425 1.12505 16.0936 1.10127 15.216C1.07581 16.2033 1.27903 17.1861 1.95084 17.8722C2.34475 18.2745 2.863 18.338 3.32075 18.0199C3.98965 17.5554 4.21789 16.729 4.53628 15.9871C4.69818 15.6095 5.148 14.7113 5.63872 14.8814C5.96836 14.9957 6.04347 15.5776 6.0852 15.8916C6.14195 16.3199 6.16115 16.7551 6.19536 17.1875C6.06142 17.2606 5.93081 17.3388 5.80396 17.4197C4.87635 18.0153 4.0055 18.786 2.9548 19.0323C2.92768 19.0387 2.90056 19.0447 2.87343 19.0502C2.87886 19.1311 2.89054 19.2106 2.89096 19.2915C2.89096 19.3226 2.84673 19.34 2.83379 19.3084C2.80291 19.2335 2.79582 19.148 2.79874 19.0643C1.83776 19.233 0.82044 18.9012 0.0722656 18.2224C0.0847839 18.8413 0.110238 19.4607 0.147792 20.0791C5.05286 22.073 16.7483 22.8889 21.8423 20.0791C21.8628 19.7431 21.8795 19.4058 21.8924 19.0689C21.0529 19.255 20.157 19.1448 19.4017 18.7078ZM1.15426 19.814C1.0804 19.8647 0.997782 19.8999 0.9185 19.9392C0.886369 19.9552 0.858412 19.9036 0.890542 19.8876C0.971911 19.8464 1.05203 19.8003 1.13799 19.7715C1.16135 19.7637 1.17387 19.8003 1.15426 19.814ZM4.83797 19.1087C4.83212 19.142 4.78873 19.1311 4.78706 19.1009C4.77955 18.9816 4.78956 18.8628 4.79749 18.7435C4.80083 18.6945 4.86968 18.6936 4.86759 18.7435C4.86217 18.866 4.85925 18.988 4.83797 19.1087ZM6.88261 20.2926C6.75493 20.411 6.56757 20.4544 6.404 20.4494C6.36728 20.4485 6.36853 20.3918 6.404 20.3881C6.56799 20.3721 6.69526 20.3081 6.84339 20.2368C6.87427 20.2217 6.91349 20.2647 6.88261 20.2926ZM9.72927 18.6315C9.71091 18.7741 9.70131 18.9226 9.66793 19.0616C9.65916 19.0986 9.60283 19.0918 9.60617 19.0525C9.61702 18.9066 9.65374 18.7604 9.68044 18.6168C9.6867 18.5807 9.73386 18.5972 9.72927 18.6315ZM10.6807 21.2242C10.505 21.1716 10.3347 21.1053 10.1566 21.0628C10.1152 21.0527 10.1332 20.9846 10.1741 20.9933C10.3535 21.0303 10.5388 21.0756 10.7049 21.1611C10.7378 21.1784 10.714 21.2342 10.6807 21.2242ZM12.3364 20.213C11.5565 20.0983 10.9698 19.3944 10.5033 18.6987C10.1628 18.1913 9.82732 17.645 9.39169 17.2483C9.52438 16.6517 9.63955 16.042 9.93623 15.5277C10.1745 15.1145 10.6222 14.8544 10.9327 15.3568C11.1818 15.7599 11.2978 16.2966 11.4167 16.7587C11.6416 17.6336 11.8319 18.5437 12.3122 19.3034C12.5338 19.6545 12.8471 20.0764 13.2753 20.0723C12.9769 20.2012 12.664 20.2615 12.3364 20.213ZM13.5891 21.0285C13.5336 21.1085 13.5006 21.2031 13.4472 21.2831C13.4338 21.3037 13.3954 21.3 13.3984 21.269C13.4075 21.1661 13.4697 21.0674 13.5248 20.9874C13.5532 20.9458 13.6179 20.9865 13.5891 21.0285ZM15.907 20.1207C15.8094 20.1129 15.7046 20.0503 15.6141 20.0124C15.5815 19.9991 15.5945 19.9424 15.6287 19.9543C15.68 19.9726 15.7318 19.9895 15.7827 20.0083C15.8286 20.0247 15.8799 20.0384 15.92 20.0681C15.9392 20.0828 15.9341 20.123 15.907 20.1207ZM16.4491 18.8125C16.384 18.7508 16.3823 18.6305 16.4002 18.5455C16.409 18.5058 16.4624 18.5231 16.4557 18.5624C16.4416 18.647 16.4712 18.7078 16.4887 18.7873C16.4941 18.8134 16.4666 18.8289 16.4491 18.8125ZM14.883 18.7773C14.5738 19.1041 14.2379 19.4451 13.8766 19.7143C13.95 19.6211 14.0147 19.5192 14.0744 19.4204C14.336 18.9857 14.5071 18.4975 14.6539 18.0043C14.8037 17.5033 14.878 16.9827 15.0028 16.4744C15.1234 15.9816 15.2736 15.3929 15.6775 15.0894C16.6431 14.3653 17.1217 16.4904 17.3646 17.0828C17.4163 17.2094 17.476 17.3374 17.5436 17.4631C17.5152 17.4549 17.4868 17.4476 17.458 17.4412C16.4879 17.2259 15.5953 18.0235 14.883 18.7773ZM17.6174 20.7885C17.5573 20.8397 17.4856 20.8754 17.4184 20.9152C17.3863 20.9344 17.3579 20.8813 17.39 20.8612C17.4559 20.8196 17.521 20.7707 17.5928 20.741C17.6158 20.7319 17.6379 20.7712 17.6174 20.7885ZM17.6237 18.7115C17.5886 18.7846 17.5544 18.8559 17.514 18.9254C17.4939 18.9592 17.4493 18.93 17.4651 18.8943C17.4977 18.8198 17.5348 18.7503 17.5732 18.6795C17.5924 18.6438 17.6412 18.6753 17.6237 18.7115ZM18.9243 20.3246C18.9193 20.3447 18.8955 20.3515 18.8822 20.3369C18.8626 20.315 18.8601 20.2848 18.853 20.2556C18.8451 20.2236 18.8375 20.1911 18.8296 20.1586C18.8196 20.1166 18.8789 20.0992 18.8893 20.1408C18.8972 20.1733 18.9051 20.2053 18.9131 20.2373C18.9202 20.2665 18.9319 20.2949 18.9243 20.3246ZM19.3316 19.2476C19.3011 19.2394 19.2761 19.2147 19.2511 19.1951C19.2239 19.1745 19.1968 19.1535 19.1701 19.1325C19.1388 19.1082 19.1684 19.0515 19.2002 19.0758C19.229 19.0973 19.2577 19.1192 19.2865 19.1411C19.3124 19.1608 19.3416 19.1791 19.3596 19.2079C19.3725 19.228 19.3512 19.2531 19.3316 19.2476ZM20.9068 19.7271C20.9026 19.7555 20.8697 19.7477 20.8617 19.7271C20.8321 19.6481 20.8367 19.5434 20.8288 19.4588C20.8246 19.4177 20.8826 19.4186 20.8872 19.4588C20.8964 19.5438 20.9202 19.6426 20.9068 19.7271Z" fill="#ED71A5"/>
</g>
<path d="M1.46218 15.102C1.47762 14.5406 1.56942 13.9761 1.66039 13.4203C1.66915 13.3654 1.6558 13.3197 1.63076 13.2859C1.53354 13.8874 1.44466 14.4977 1.46218 15.102Z" fill="#ED71A5"/>
<path d="M20.404 13.8008C20.376 13.8433 20.3622 13.8991 20.3748 13.964C20.4833 14.523 20.5755 15.0898 20.5909 15.6571C20.608 15.0368 20.5191 14.4142 20.404 13.8008Z" fill="#ED71A5"/>
<path d="M1.95122 17.555C2.34513 17.9573 2.86339 18.0212 3.32114 17.7031C3.99003 17.2382 4.21828 16.4122 4.53666 15.6699C4.69856 15.2923 5.14839 14.3941 5.6391 14.5642C5.96875 14.6784 6.04386 15.2608 6.08559 15.5748C6.20201 16.4502 6.16028 17.3552 6.41315 18.2059C6.6101 18.8678 7.06451 19.5105 7.77346 19.3537C8.47908 19.1983 8.92973 18.4491 9.16883 17.763C9.45675 16.937 9.4989 15.9702 9.93662 15.2105C10.1749 14.7973 10.6226 14.5377 10.9331 15.0396C11.1822 15.4427 11.2982 15.9794 11.4171 16.4415C11.642 17.3164 11.8323 18.2265 12.3126 18.9862C12.54 19.3464 12.8638 19.7816 13.3095 19.7537C13.6646 19.7317 13.8949 19.4017 14.0743 19.1037C14.3364 18.6685 14.507 18.1803 14.6543 17.6876C14.8041 17.1866 14.8784 16.6659 15.0032 16.1576C15.1238 15.6649 15.274 15.0757 15.6779 14.7726C16.6435 14.0481 17.1221 16.1736 17.365 16.766C17.7075 17.6025 18.4031 18.5085 19.3303 18.4011C20.1169 18.3097 20.5763 17.5728 20.7787 16.7999C20.8826 16.4031 20.9306 16.0036 20.9406 15.6032C20.9573 14.9139 20.86 14.2223 20.7353 13.5384C20.6885 13.2811 20.3255 13.3894 20.3756 13.6468C20.3856 13.6984 20.3952 13.7496 20.4048 13.8013C20.52 14.4142 20.6088 15.0368 20.5917 15.6571C20.5821 15.9899 20.5425 16.3217 20.4599 16.6518C20.2442 17.5111 19.584 18.3764 18.7023 17.8402C17.889 17.3456 17.6687 16.3496 17.3295 15.4848C17.1012 14.9029 16.6702 14.1989 16.0151 14.2245C14.9665 14.2652 14.8505 15.7316 14.6314 16.5635C14.5008 17.0595 14.3635 17.56 14.2078 18.0473C14.0752 18.4637 13.9379 18.9661 13.6295 19.2719C13.3069 19.5914 13.0203 19.3715 12.777 19.0538C12.2199 18.3257 12.058 17.3351 11.8331 16.4447C11.6729 15.8089 11.4922 14.7388 10.8918 14.4101C10.3009 14.087 9.77472 14.6286 9.53186 15.1767C9.27774 15.7508 9.2018 16.3825 9.06785 16.9969C9.03322 17.1541 8.99525 17.3109 8.94893 17.465C8.7478 18.1374 7.97083 19.4374 7.18594 18.8198C6.83626 18.5446 6.73111 17.9998 6.656 17.5632C6.62345 17.3754 6.6005 17.1857 6.58256 16.9955C6.55252 16.6778 6.53499 16.3583 6.50745 16.0411C6.45946 15.4903 6.40981 14.7827 6.01507 14.3813C5.40668 13.7624 4.70023 14.6387 4.4048 15.1931C4.00839 15.9373 3.7672 17.1724 2.92806 17.4796C2.24081 17.7314 1.80476 16.751 1.63159 16.1851C1.52226 15.8281 1.47303 15.4665 1.46259 15.1022C1.44507 14.4974 1.53353 13.8872 1.63076 13.2856C1.64077 13.2249 1.65079 13.1636 1.6608 13.1028C1.69293 12.9058 1.4338 12.8199 1.38289 13.0192C1.21139 13.6842 1.08162 14.4609 1.10165 15.216C1.12544 16.0936 1.3516 16.9425 1.95122 17.555Z" fill="#FFE78A"/>
<path d="M11.8077 7.11564C13.2581 7.19837 14.6986 7.40681 16.1207 7.72267C16.1215 7.49961 16.1232 7.27654 16.1261 7.05347C16.1261 7.04981 16.1261 7.0457 16.1261 7.04204C15.3116 6.88069 14.4286 6.75635 13.4956 6.6759C13.0679 6.63934 12.6301 6.61145 12.1832 6.59362C11.7931 6.57854 11.3967 6.57031 10.9948 6.57031C10.3835 6.57031 9.78433 6.5886 9.20223 6.62425C9.19597 6.78561 9.18971 6.94742 9.18262 7.10924C10.0576 7.06307 10.9348 7.06627 11.8077 7.11564Z" fill="#ED71A5"/>
<path d="M3.65301 7.62915C2.4838 8.03597 1.59167 8.53879 1.08301 9.10148C1.93383 8.69923 2.80844 8.36006 3.69891 8.08123C3.68305 7.93084 3.66803 7.77999 3.65301 7.62915Z" fill="#ED71A5"/>
<path d="M21.0294 9.24812C20.4427 8.48841 19.1637 7.82744 17.4437 7.35205C17.4366 7.58243 17.4287 7.81235 17.4199 8.04274C18.6409 8.37185 19.846 8.77776 21.0294 9.24812Z" fill="#ED71A5"/>
<path d="M4.94976 7.32148C4.95978 7.45541 4.96937 7.5898 4.97897 7.72419C5.94204 7.48741 6.92013 7.31782 7.90449 7.21132C7.90449 7.16881 7.90407 7.1263 7.90407 7.08378C7.90365 7.05453 7.90365 7.02528 7.90365 6.99556C7.90365 6.90826 7.90323 6.82095 7.90323 6.73364C6.83251 6.84975 5.83564 7.02482 4.94434 7.24743C4.94517 7.25748 4.94601 7.26754 4.94642 7.2776C4.94767 7.29222 4.94893 7.30685 4.94976 7.32148Z" fill="#ED71A5"/>
<path d="M4.41088 2.87343C4.41547 2.71801 4.37499 2.56031 4.29779 2.43552C4.35246 2.39713 4.38918 2.32993 4.38918 2.25359C4.38918 2.13429 4.30071 2.03784 4.19222 2.03784C4.10001 2.03784 4.02239 2.10778 4.00111 2.20149C3.9573 2.19006 3.91056 2.18457 3.86091 2.18731C3.57132 2.20194 3.40566 2.59231 3.41025 2.87114C3.414 3.07364 3.50539 3.27751 3.6627 3.38858C3.72195 3.43018 3.79039 3.45669 3.86007 3.46721C3.92934 3.19614 4.03241 2.93742 3.91932 2.64716C3.90222 2.60237 3.95771 2.5626 3.98108 2.60785C4.08582 2.80898 4.07914 3.00919 4.02698 3.22997C4.00695 3.31362 3.98734 3.39361 3.97107 3.47041C4.05744 3.46264 4.1409 3.42972 4.20933 3.37121C4.34369 3.25557 4.40503 3.06084 4.41088 2.87343Z" fill="#FFE180"/>
<path d="M3.92363 3.83676C3.92488 3.717 3.9445 3.59723 3.97162 3.47016C3.98789 3.39337 4.0075 3.31383 4.02712 3.22972C4.07969 3.00894 4.08637 2.80873 3.98163 2.6076C3.95827 2.56235 3.90235 2.60212 3.91988 2.64692C4.03296 2.93763 3.92989 3.1959 3.86062 3.46696C3.83726 3.55884 3.81764 3.65163 3.8118 3.74762C3.80972 3.77825 3.8093 3.80796 3.80972 3.83767C3.81264 3.95149 3.83392 4.05982 3.87189 4.16222C3.90152 4.1517 3.93114 4.14165 3.96119 4.13159C3.93323 4.03057 3.9228 3.93366 3.92363 3.83676Z" fill="#2CB0CF"/>
<path d="M3.74369 8.50115C3.74327 8.49521 3.74244 8.48881 3.74202 8.48287C4.1689 8.56697 4.59577 8.53772 5.02681 8.4559C5.02723 8.46413 5.02807 8.4719 5.02848 8.48012C5.01805 8.31008 5.00678 8.1405 4.9951 7.97045C4.7752 8.01434 4.5457 8.00565 4.32913 7.94211C4.06958 7.86532 3.83007 7.7099 3.64062 7.50146C3.6448 7.54398 3.64897 7.58649 3.65314 7.629C3.66817 7.77984 3.68319 7.93069 3.69904 8.08107C3.71365 8.22095 3.72867 8.36128 3.74369 8.50115Z" fill="#7BCBDE"/>
<path d="M3.75669 8.61452C3.75543 8.604 3.75418 8.59349 3.75293 8.58252C3.78506 8.87187 3.81802 9.16076 3.85224 9.44919C4.2787 9.53055 4.69096 9.45559 5.07486 9.25583C5.06276 9.03734 5.04982 8.8193 5.03647 8.6008C4.60834 8.6808 4.17062 8.70228 3.75669 8.61452Z" fill="#7BCBDE"/>
<path d="M3.43164 5.0481C3.43456 5.09106 3.43748 5.13357 3.44082 5.17654C3.87061 5.29128 4.3267 5.31367 4.76859 5.24648C4.76734 5.23322 4.76609 5.21997 4.76483 5.20671C4.76233 5.18248 4.75983 5.15871 4.75732 5.13403C4.75649 5.12672 4.75565 5.1194 4.75482 5.11209C4.31626 5.17426 3.87646 5.15094 3.43164 5.0481Z" fill="#2CB0CF"/>
<path d="M4.86129 6.23227C4.85754 6.18427 4.85337 6.13673 4.84878 6.08919C4.39812 6.14313 3.95038 6.12165 3.50139 5.9548C3.50098 5.9548 3.50098 5.95435 3.50098 5.95435C3.50348 5.9868 3.5064 6.01925 3.50932 6.05171L3.51141 6.07365C3.93536 6.25101 4.39812 6.28346 4.86129 6.23227Z" fill="#2CB0CF"/>
<path d="M3.74219 8.48278C3.7426 8.48872 3.74344 8.49512 3.74386 8.50106C3.74678 8.52849 3.7497 8.55546 3.75262 8.58243C3.75387 8.59294 3.75512 8.60391 3.75637 8.61443C4.17031 8.70219 4.60803 8.68071 5.03616 8.60071H5.03658C5.03407 8.56049 5.03157 8.52026 5.02865 8.48004C5.02823 8.47181 5.02781 8.46404 5.02698 8.45581C4.59593 8.53763 4.16906 8.56689 3.74219 8.48278Z" fill="#2CB0CF"/>
<path d="M4.94934 7.32123C4.9485 7.3066 4.94725 7.29198 4.946 7.27735C4.94349 7.24489 4.94099 7.21244 4.93849 7.17998C4.47948 7.24992 4.02591 7.22661 3.59319 7.00583C3.59319 7.00583 3.59319 7.00583 3.59277 7.00537C3.59653 7.04834 3.6007 7.09176 3.60529 7.13473C4.01756 7.35048 4.48658 7.38797 4.94934 7.32123Z" fill="#2CB0CF"/>
<path d="M8.90652 1.96279C9.05257 1.86497 9.13393 1.67939 9.15939 1.4938C9.18025 1.34022 9.15688 1.1784 9.09346 1.04447C9.15188 1.01339 9.19486 0.95122 9.2032 0.875341C9.21572 0.756951 9.13811 0.649988 9.03045 0.636275C8.93865 0.62439 8.85436 0.683814 8.82306 0.774778C8.78092 0.757408 8.73502 0.746437 8.68578 0.74278C8.39619 0.720382 8.19047 1.08698 8.16586 1.3649C8.14791 1.56648 8.2176 1.78086 8.36197 1.91068C8.41622 1.95959 8.4809 1.99433 8.54891 2.01353C8.64614 1.75115 8.77508 1.50477 8.69329 1.20171C8.68244 1.15966 8.74253 1.1304 8.75839 1.17154C8.85019 1.40741 8.80804 1.61174 8.72292 1.84532C8.69955 1.90931 8.67743 1.97102 8.65741 2.03136C8.74462 2.03456 8.83183 2.01262 8.90652 1.96279Z" fill="#FFE180"/>
<path d="M8.57183 2.38917C8.58519 2.27124 8.61606 2.15467 8.65696 2.03126C8.67699 1.97092 8.6991 1.90921 8.72247 1.84476C8.80759 1.61163 8.84974 1.40731 8.75794 1.17144C8.74208 1.1303 8.68158 1.15956 8.69284 1.20115C8.77421 1.50467 8.64569 1.75105 8.54847 2.01343C8.51049 2.11491 8.47795 2.21867 8.46334 2.32883C8.46125 2.34437 8.45959 2.35991 8.45833 2.37545C8.44915 2.48927 8.45959 2.59944 8.48713 2.70594C8.51717 2.69908 8.54805 2.69269 8.57851 2.68674C8.56182 2.58344 8.56057 2.48562 8.57183 2.38917Z" fill="#2CB0CF"/>
<path d="M9.22972 5.83866C9.22889 5.86152 9.22847 5.88437 9.22764 5.90677C9.23181 5.76644 9.23598 5.62611 9.23932 5.48578C8.96767 5.53195 8.68518 5.50909 8.42271 5.41539C8.2412 5.35048 8.0697 5.2522 7.91697 5.12695C7.91489 5.24991 7.9128 5.37333 7.91113 5.49675C7.91113 5.49629 7.91113 5.49584 7.91155 5.49538C8.31756 5.76964 8.76613 5.85009 9.22972 5.83866Z" fill="#7BCBDE"/>
<path d="M7.90332 7.11391C7.90332 7.10385 7.90332 7.0938 7.90332 7.08374C7.90332 7.12625 7.90374 7.16876 7.90374 7.21127C7.90499 7.47822 7.90749 7.74471 7.91125 8.0112C7.92293 8.0176 7.93545 8.02355 7.94755 8.02903C8.36232 8.1072 8.75081 8.05829 9.1443 7.93441C9.15556 7.71043 9.166 7.48599 9.17601 7.26247C8.74204 7.28761 8.30516 7.25378 7.90332 7.11391Z" fill="#7BCBDE"/>
<path d="M7.90276 6.98112C8.31795 7.11825 8.74482 7.1434 9.18213 7.11688C9.18171 7.1274 9.18129 7.13791 9.18087 7.14842C9.18129 7.13517 9.18213 7.12191 9.18254 7.10866C9.18964 6.9473 9.1959 6.78548 9.20216 6.62413C9.2105 6.40929 9.21801 6.19445 9.22469 5.98007C8.75776 5.98738 8.29583 5.89093 7.90902 5.6249C7.90902 5.61484 7.90944 5.60478 7.90944 5.59473C7.90485 5.97412 7.90234 6.35398 7.90234 6.73337C7.90234 6.82068 7.90276 6.90799 7.90276 6.99529C7.90276 6.99027 7.90276 6.98569 7.90276 6.98112Z" fill="#7BCBDE"/>
<path d="M7.9573 3.53003C7.95563 3.573 7.95396 3.61596 7.95312 3.65893C8.3679 3.8276 8.81814 3.90714 9.2642 3.89617H9.26462C9.26504 3.85137 9.26504 3.80703 9.26504 3.76132C8.82273 3.76727 8.38834 3.68864 7.9573 3.53003Z" fill="#2CB0CF"/>
<path d="M9.25273 4.88717C9.25314 4.87849 9.25314 4.8698 9.25356 4.86112C9.25439 4.82226 9.25481 4.78295 9.25565 4.7441C8.80207 4.74044 8.35976 4.66273 7.93121 4.43921C7.9308 4.44515 7.9308 4.45109 7.93038 4.45658C7.92996 4.47258 7.92955 4.48812 7.92955 4.50412C7.92913 4.5224 7.92871 4.54069 7.92871 4.55897C8.33096 4.78889 8.78746 4.87986 9.25273 4.88717Z" fill="#2CB0CF"/>
<path d="M7.90332 6.98145C7.90332 6.98602 7.90332 6.99059 7.90332 6.99562C7.90332 7.02533 7.90332 7.05458 7.90374 7.08384C7.90374 7.09389 7.90374 7.10395 7.90374 7.11401C8.30557 7.25342 8.74246 7.28771 9.17643 7.26256C9.1781 7.22462 9.18018 7.18668 9.18143 7.14875C9.18185 7.13823 9.18227 7.12772 9.18227 7.11721C8.74538 7.14372 8.31851 7.11858 7.90332 6.98145Z" fill="#2CB0CF"/>
<path d="M9.22485 5.98032C9.22568 5.95563 9.2261 5.93095 9.22693 5.90672C9.22777 5.88387 9.22819 5.86147 9.22902 5.83862C8.76543 5.85004 8.31686 5.76959 7.91043 5.49487C7.91043 5.49533 7.91043 5.49624 7.91043 5.4967C7.91001 5.52916 7.9096 5.56207 7.90918 5.59498C7.90918 5.60504 7.90918 5.61509 7.90918 5.62515C8.29599 5.89164 8.75792 5.98763 9.22485 5.98032Z" fill="#2CB0CF"/>
<path d="M17.1236 3.39971C17.2693 3.30189 17.3506 3.1163 17.3761 2.93072C17.3969 2.77713 17.3736 2.61532 17.3102 2.48138C17.3686 2.4503 17.412 2.38859 17.4199 2.31226C17.4324 2.19387 17.3552 2.0869 17.2471 2.07319C17.1553 2.06176 17.0711 2.12073 17.0402 2.21169C16.9976 2.19432 16.9517 2.18335 16.9025 2.1797C16.6129 2.1573 16.4072 2.52435 16.3825 2.80227C16.365 3.0034 16.4343 3.21778 16.5787 3.3476C16.6329 3.39651 16.6976 3.43125 16.7656 3.4509C16.8628 3.18807 16.9918 2.94169 16.9104 2.63863C16.8991 2.59703 16.9596 2.56732 16.9755 2.60846C17.0669 2.84432 17.0252 3.04865 16.94 3.28223C16.9162 3.34668 16.8941 3.40793 16.8745 3.46827C16.9613 3.47147 17.0489 3.44999 17.1236 3.39971Z" fill="#FFE180"/>
<path d="M16.7884 3.82655C16.8017 3.70861 16.833 3.59205 16.8735 3.46863C16.8935 3.4083 16.9157 3.34704 16.939 3.28259C17.0242 3.04947 17.0663 2.84469 16.9749 2.60882C16.9586 2.56768 16.8986 2.59739 16.9098 2.63899C16.9912 2.94205 16.8622 3.18843 16.765 3.45126C16.7275 3.55228 16.6945 3.65605 16.6803 3.76667C16.6782 3.78221 16.6766 3.79729 16.6753 3.81283C16.6657 3.92665 16.6766 4.03727 16.7037 4.14378C16.7341 4.13692 16.7646 4.13052 16.7955 4.12412C16.7784 4.02082 16.7775 3.92345 16.7884 3.82655Z" fill="#2CB0CF"/>
<path d="M17.4458 7.27572C17.4445 7.3228 17.4433 7.36988 17.4416 7.41742C17.3098 7.4197 17.1779 7.4133 17.0481 7.39731C16.925 7.56141 16.7903 7.71454 16.6446 7.85487C16.4819 8.01211 16.3062 8.15153 16.1201 8.27266C16.1201 8.32111 16.1201 8.37002 16.1205 8.41848C16.5353 8.55606 16.9622 8.58075 17.3991 8.55424C17.3982 8.57801 17.3974 8.60132 17.3966 8.62509C17.4049 8.43082 17.4128 8.23655 17.4203 8.04274C17.4291 7.81236 17.437 7.58243 17.4441 7.35205C17.4504 7.14087 17.4562 6.92969 17.4608 6.71851C17.3678 6.91095 17.2609 7.09516 17.1408 7.26886C17.2418 7.27617 17.3436 7.27846 17.4458 7.27572Z" fill="#7BCBDE"/>
<path d="M16.1201 8.55103C16.1214 8.85043 16.1239 9.14937 16.1276 9.44878C16.1335 9.45198 16.1397 9.45472 16.1456 9.45792C16.5679 9.5018 16.9651 9.45518 17.3628 9.33496C17.374 9.10732 17.3849 8.87968 17.3949 8.6525C17.3941 8.66804 17.3932 8.68404 17.3928 8.69958C16.9588 8.72473 16.522 8.6909 16.1201 8.55103Z" fill="#7BCBDE"/>
<path d="M16.1731 4.96729C16.1719 5.01025 16.1702 5.05322 16.1689 5.09619C16.5837 5.26486 17.0344 5.3444 17.4804 5.33343C17.4809 5.29183 17.4813 5.25069 17.4809 5.20818C17.4809 5.20498 17.4809 5.20178 17.4809 5.19858C17.039 5.20452 16.6046 5.1259 16.1731 4.96729Z" fill="#2CB0CF"/>
<path d="M17.4685 6.32397C17.469 6.31757 17.469 6.31071 17.4694 6.30386C17.4702 6.26272 17.471 6.22204 17.4715 6.1809C17.0183 6.17724 16.5756 6.09907 16.147 5.87646C16.1466 5.88149 16.1466 5.88652 16.1466 5.89201C16.1462 5.90801 16.1458 5.924 16.1454 5.93955C16.1449 5.95829 16.1445 5.97703 16.1445 5.99577C16.5468 6.22569 17.0033 6.31666 17.4685 6.32397Z" fill="#2CB0CF"/>
<path d="M16.1207 8.41846C16.1203 8.41846 16.1203 8.41846 16.1203 8.41846C16.1199 8.4628 16.1203 8.50714 16.1207 8.55102C16.1207 8.55102 16.1207 8.55102 16.1211 8.55102C16.5225 8.69089 16.9594 8.72472 17.3934 8.69958C17.3942 8.68358 17.3946 8.66804 17.3955 8.65249C17.3959 8.64335 17.3963 8.63421 17.3967 8.62507C17.3976 8.6013 17.3984 8.57799 17.3992 8.55422C16.9624 8.58073 16.5355 8.55605 16.1207 8.41846Z" fill="#2CB0CF"/>
<path d="M16.126 7.06219C16.403 7.25326 16.7193 7.35657 17.0477 7.39725C17.1775 7.41325 17.3094 7.41965 17.4416 7.41736C17.4429 7.36982 17.4441 7.32274 17.4454 7.27566C17.3432 7.2784 17.2414 7.27612 17.1404 7.2688C16.7857 7.24183 16.4439 7.14584 16.1272 6.93237C16.1264 6.96848 16.126 7.00551 16.126 7.04208C16.126 7.04573 16.126 7.04985 16.126 7.05351C16.126 7.05625 16.126 7.05945 16.126 7.06219Z" fill="#2CB0CF"/>
<path d="M3.8517 9.44913C3.80497 9.44044 3.75823 9.42947 3.71108 9.41713C3.64223 9.39839 3.61302 9.51267 3.68187 9.53323C3.84002 9.58169 4.00108 9.61003 4.16132 9.61826C4.27315 9.6242 4.38414 9.62008 4.4943 9.60546C4.81269 9.56386 5.11938 9.43679 5.38852 9.21738C5.44945 9.16801 5.3952 9.05739 5.32802 9.10356C5.24498 9.16024 5.16028 9.21098 5.07432 9.25577C4.69042 9.45553 4.27816 9.53049 3.8517 9.44913Z" fill="#E4447F"/>
<path d="M7.94805 8.02952C7.87837 8.01627 7.80743 7.99935 7.73608 7.97878C7.65012 7.9541 7.6134 8.10357 7.69936 8.12414C8.32193 8.27042 9.00626 8.25305 9.58085 7.92302C9.64511 7.88645 9.60046 7.76303 9.53078 7.79228C9.40101 7.84668 9.27248 7.89468 9.1448 7.93444C8.75131 8.05832 8.36282 8.10723 7.94805 8.02952Z" fill="#E4447F"/>
<path d="M16.1462 9.45806C16.0557 9.44847 15.9639 9.43475 15.8708 9.41693C15.7915 9.40138 15.7561 9.52937 15.8366 9.55131C15.8495 9.55451 15.8625 9.55817 15.8754 9.56137C16.2889 9.66605 16.7287 9.68067 17.1493 9.59337C17.4289 9.53577 17.6997 9.43292 17.9488 9.28254C18.0198 9.23957 17.9705 9.09924 17.8921 9.13489C17.7143 9.21489 17.5387 9.28208 17.3634 9.3351C16.9657 9.45532 16.5685 9.50195 16.1462 9.45806Z" fill="#E4447F"/>
<path d="M10.3588 8.33973C10.3797 8.37127 10.4026 8.40647 10.4369 8.41972C10.4615 8.42978 10.4915 8.39824 10.4819 8.37036C10.4698 8.33699 10.4435 8.31322 10.4235 8.28488C10.4035 8.25608 10.3868 8.22454 10.3726 8.19163C10.3505 8.1418 10.2858 8.18569 10.3054 8.23505C10.3196 8.27162 10.3371 8.30727 10.3588 8.33973Z" fill="#F3A6C9"/>
<path d="M10.5493 9.87738C10.4345 9.90435 10.3223 9.97109 10.2154 10.0232C10.1816 10.0397 10.2058 10.1036 10.2409 10.0895C10.351 10.0456 10.4733 10.0081 10.5735 9.93955C10.6035 9.91852 10.5839 9.86915 10.5493 9.87738Z" fill="#F3A6C9"/>
<path d="M8.24046 9.83136C8.25757 9.86015 8.27384 9.88941 8.29178 9.91775C8.30847 9.94426 8.32183 9.97123 8.3502 9.98311C8.36731 9.99043 8.38275 9.97214 8.384 9.95523C8.38567 9.92415 8.36606 9.89809 8.35187 9.8725C8.33643 9.84507 8.31974 9.8181 8.30388 9.79067C8.27801 9.74771 8.21459 9.78747 8.24046 9.83136Z" fill="#F3A6C9"/>
<path d="M4.53454 10.3938C4.49239 10.3948 4.49239 10.4647 4.53454 10.4656C4.67391 10.4688 4.81662 10.4802 4.95515 10.4588C4.98102 10.4546 4.98102 10.4048 4.95515 10.4007C4.81662 10.3792 4.67391 10.3906 4.53454 10.3938Z" fill="#F3A6C9"/>
<path d="M14.6417 9.25279C14.7043 9.2153 14.7682 9.17965 14.8333 9.1472C14.8959 9.1152 14.9706 9.09234 15.0252 9.04618C15.0448 9.02972 15.0423 8.98584 15.011 8.98812C14.9447 8.99407 14.8804 9.03109 14.8203 9.06126C14.7465 9.09783 14.6751 9.13988 14.605 9.18376C14.5637 9.20936 14.6004 9.27793 14.6417 9.25279Z" fill="#F3A6C9"/>
<path d="M14.8643 10.1912C14.8635 10.2964 14.8756 10.401 14.9219 10.4938C14.9398 10.5295 14.9874 10.5044 14.9799 10.4669C14.9619 10.3754 14.9415 10.2859 14.9402 10.1912C14.9398 10.1378 14.8651 10.1378 14.8643 10.1912Z" fill="#F3A6C9"/>
<path d="M13.9114 10.2752C13.8847 10.3542 13.8513 10.4347 13.8346 10.517C13.828 10.5522 13.8747 10.5787 13.8905 10.543C13.9256 10.4644 13.9465 10.3762 13.9711 10.293C13.9832 10.2509 13.9252 10.2349 13.9114 10.2752Z" fill="#F3A6C9"/>
<path d="M20.0274 11.8061C19.9351 11.8198 19.855 11.8427 19.762 11.8189C19.7136 11.807 19.6931 11.8875 19.7415 11.9003C19.84 11.9263 19.9631 11.9318 20.0495 11.8637C20.0766 11.8417 20.0595 11.8011 20.0274 11.8061Z" fill="#F3A6C9"/>
<path d="M20.4961 11.0247C20.4965 11.1289 20.4965 11.2309 20.5078 11.3346C20.5115 11.3717 20.5566 11.3721 20.5604 11.3346C20.5716 11.2313 20.5716 11.1289 20.572 11.0247C20.572 10.9712 20.4961 10.9712 20.4961 11.0247Z" fill="#F3A6C9"/>
<path d="M20.9737 12.692C20.9303 12.7916 20.8861 12.8895 20.8515 12.9928C20.8394 13.0298 20.8894 13.0499 20.9074 13.0188C20.9591 12.9283 21.0009 12.8328 21.0438 12.7372C21.0672 12.6856 20.9963 12.6403 20.9737 12.692Z" fill="#F3A6C9"/>
<path d="M19.0186 13.4321C18.9885 13.3951 18.9627 13.3558 18.9397 13.3133C18.9155 13.2671 18.8521 13.3078 18.875 13.3549C18.9163 13.4399 18.9827 13.551 19.0674 13.5889C19.0954 13.6012 19.1242 13.5583 19.107 13.5322C19.0828 13.4947 19.0465 13.4668 19.0186 13.4321Z" fill="#F3A6C9"/>
<path d="M19.5931 14.8306C19.5176 14.9362 19.4433 15.04 19.3753 15.1511C19.3582 15.1794 19.3974 15.2123 19.4183 15.1872C19.498 15.0903 19.5702 14.9888 19.6432 14.8855C19.6707 14.8466 19.6215 14.7913 19.5931 14.8306Z" fill="#F3A6C9"/>
<path d="M19.3352 16.8444C19.3081 16.8193 19.2772 16.8019 19.2514 16.7745C19.2255 16.747 19.2059 16.7146 19.1904 16.6785C19.1733 16.6387 19.1212 16.6734 19.1366 16.7128C19.1662 16.7868 19.2301 16.8801 19.3073 16.897C19.3327 16.9025 19.3586 16.8663 19.3352 16.8444Z" fill="#F3A6C9"/>
<path d="M16.5857 12.6218C16.5744 12.6433 16.5627 12.6643 16.5523 12.6862C16.5427 12.7073 16.5289 12.7306 16.5252 12.7539C16.5189 12.7864 16.5523 12.8087 16.5757 12.7859C16.5919 12.7704 16.6032 12.7461 16.6149 12.7265C16.627 12.7054 16.6374 12.6835 16.6487 12.662C16.6721 12.6177 16.6091 12.5775 16.5857 12.6218Z" fill="#F3A6C9"/>
<path d="M15.2493 12.7529C15.2598 12.6966 15.1813 12.6724 15.1705 12.7291C15.1525 12.8205 15.1654 12.9133 15.2301 12.9778C15.2489 12.996 15.2885 12.9782 15.2769 12.948C15.2543 12.8877 15.2372 12.8182 15.2493 12.7529Z" fill="#F3A6C9"/>
<path d="M11.9562 12.4084C11.9036 12.5318 11.8539 12.6831 11.8786 12.8207C11.8844 12.8536 11.9291 12.8504 11.9366 12.8207C11.9683 12.6959 11.9762 12.5734 12.0259 12.4532C12.0471 12.4015 11.9783 12.3562 11.9562 12.4084Z" fill="#F3A6C9"/>
<path d="M12.9486 13.7011C12.9774 13.5667 13.0137 13.4346 13.0684 13.3098C13.0888 13.2641 13.0262 13.2234 13.0054 13.2696C12.9453 13.4044 12.9031 13.5425 12.8898 13.6924C12.8865 13.7294 12.9411 13.7368 12.9486 13.7011Z" fill="#F3A6C9"/>
<path d="M8.61159 13.0399C8.64623 13.0482 8.67001 12.9956 8.63663 12.9755C8.54191 12.9179 8.42799 12.8873 8.32576 12.8493C8.28695 12.8347 8.27277 12.8991 8.30907 12.9151C8.40671 12.9586 8.50894 13.0162 8.61159 13.0399Z" fill="#F3A6C9"/>
<path d="M8.67579 14.4576C8.58983 14.4997 8.5093 14.5308 8.41374 14.5111C8.36993 14.5024 8.35115 14.5756 8.39538 14.5852C8.50346 14.6076 8.62697 14.592 8.71001 14.507C8.73546 14.481 8.70333 14.4444 8.67579 14.4576Z" fill="#F3A6C9"/>
<path d="M7.88876 16.2387C7.9042 16.2597 7.93925 16.2424 7.93758 16.2168C7.93508 16.177 7.92465 16.1409 7.91422 16.1039C7.88376 16.1016 7.85413 16.0961 7.82617 16.0874C7.83911 16.1427 7.85788 16.1962 7.88876 16.2387Z" fill="#F3A6C9"/>
<path d="M1.46049 11.3092C1.39247 11.253 1.32487 11.2069 1.27188 11.1314C1.25102 11.1008 1.20303 11.1296 1.22389 11.1621C1.27772 11.2439 1.35116 11.328 1.44088 11.3595C1.47009 11.37 1.48135 11.3266 1.46049 11.3092Z" fill="#F3A6C9"/>
<path d="M2.63311 11.5292C2.58011 11.633 2.51752 11.7367 2.48456 11.851C2.47621 11.8802 2.51502 11.9077 2.53421 11.8825C2.60348 11.7897 2.64896 11.6768 2.69904 11.5712C2.72157 11.5237 2.65731 11.4816 2.63311 11.5292Z" fill="#F3A6C9"/>
<path d="M2.6086 13.8687C2.71751 13.8897 2.83601 13.9281 2.94701 13.9208C2.98373 13.918 2.98665 13.8687 2.95535 13.854C2.85563 13.8079 2.73628 13.8019 2.6303 13.7827C2.57897 13.7731 2.55686 13.8586 2.6086 13.8687Z" fill="#F3A6C9"/>
<path d="M6.51297 12.2171C6.3832 12.3579 6.26344 12.5334 6.23089 12.7345C6.22588 12.7661 6.26678 12.7917 6.28222 12.7583C6.36317 12.5823 6.4316 12.4086 6.54969 12.2573C6.57139 12.2299 6.53717 12.191 6.51297 12.2171Z" fill="#F3A6C9"/>
<path d="M5.15349 12.5493C5.16267 12.6722 5.16768 12.7961 5.18896 12.9177C5.19605 12.9588 5.25405 12.9483 5.25405 12.9081C5.25489 12.7879 5.23903 12.6686 5.22818 12.5493C5.22359 12.4976 5.14932 12.4962 5.15349 12.5493Z" fill="#F3A6C9"/>
<path d="M3.85978 14.8607C3.86019 14.81 3.79051 14.8109 3.788 14.8607C3.78049 15.0116 3.79343 15.1807 3.86687 15.3119C3.88773 15.3489 3.94114 15.3251 3.93113 15.2822C3.89775 15.1395 3.85811 15.0106 3.85978 14.8607Z" fill="#F3A6C9"/>
<path d="M0.945503 17.1826C0.82032 17.1854 0.694303 17.2197 0.571207 17.2443C0.545753 17.2494 0.551178 17.2969 0.577466 17.2942C0.701814 17.2804 0.831587 17.2754 0.953014 17.2398C0.981806 17.2315 0.975964 17.1817 0.945503 17.1826Z" fill="#F3A6C9"/>
<path d="M1.04146 18.3088C1.09612 18.194 1.1487 18.0907 1.24634 18.0121C1.28264 17.9828 1.24843 17.9152 1.21004 17.9444C1.10655 18.0231 1.00891 18.1433 0.986794 18.2836C0.981369 18.3179 1.02477 18.3444 1.04146 18.3088Z" fill="#F3A6C9"/>
<path d="M2.83392 19.309C2.84644 19.3401 2.89067 19.3232 2.89067 19.2921C2.89067 19.2112 2.87857 19.1312 2.87356 19.0503C2.87148 19.0201 2.87022 18.9895 2.87106 18.9584C2.87231 18.9122 2.81181 18.915 2.8068 18.9584C2.80304 18.9931 2.7997 19.0288 2.79845 19.0645C2.79553 19.1481 2.80262 19.2336 2.83392 19.309Z" fill="#F3A6C9"/>
<path d="M5.1346 15.9614C5.24435 15.9797 5.35826 16.0071 5.46967 16.0003C5.50097 15.9989 5.50806 15.9505 5.47719 15.9404C5.36995 15.9052 5.25394 15.9029 5.14295 15.892C5.10706 15.8888 5.0983 15.9555 5.1346 15.9614Z" fill="#F3A6C9"/>
<path d="M4.79727 18.7436C4.78934 18.8629 4.77932 18.9817 4.78683 19.101C4.7885 19.1312 4.8319 19.1422 4.83774 19.1088C4.8586 18.9881 4.86194 18.8661 4.86737 18.7436C4.86945 18.6937 4.8006 18.6947 4.79727 18.7436Z" fill="#F3A6C9"/>
<path d="M6.84342 20.2368C6.69528 20.3081 6.56801 20.3721 6.40403 20.3881C6.36856 20.3917 6.36731 20.4484 6.40403 20.4493C6.5676 20.4543 6.75495 20.4109 6.88264 20.2925C6.91352 20.2646 6.8743 20.2217 6.84342 20.2368Z" fill="#F3A6C9"/>
<path d="M7.844 17.8238C7.86111 17.7429 7.86445 17.6583 7.87196 17.5761C7.87697 17.5249 7.80353 17.5253 7.79894 17.5761C7.79143 17.6551 7.77974 17.7351 7.78141 17.8147C7.78225 17.8526 7.83524 17.8631 7.844 17.8238Z" fill="#F3A6C9"/>
<path d="M10.9347 16.8035C10.8404 16.7861 10.7386 16.7971 10.6434 16.7971C10.5954 16.7976 10.5954 16.8785 10.6434 16.8785C10.7386 16.8789 10.8404 16.8899 10.9347 16.8725C10.966 16.8671 10.966 16.809 10.9347 16.8035Z" fill="#F3A6C9"/>
<path d="M9.67989 18.617C9.65318 18.7605 9.61646 18.9064 9.60561 19.0526C9.60227 19.0919 9.65861 19.0988 9.66737 19.0618C9.70075 18.9228 9.71035 18.7743 9.72871 18.6316C9.7333 18.5974 9.68615 18.5809 9.67989 18.617Z" fill="#F3A6C9"/>
<path d="M11.3994 18.8225C11.3435 18.924 11.3017 19.0305 11.2892 19.1489C11.2859 19.1846 11.3347 19.1882 11.3439 19.1571C11.3748 19.0543 11.4048 18.9519 11.4532 18.8568C11.4724 18.8184 11.4203 18.7851 11.3994 18.8225Z" fill="#F3A6C9"/>
<path d="M10.7047 21.1612C10.5387 21.0757 10.3534 21.0305 10.174 20.9934C10.1331 20.9848 10.1147 21.0529 10.1564 21.0629C10.3346 21.1054 10.5049 21.1717 10.6805 21.2243C10.7139 21.2343 10.7377 21.1786 10.7047 21.1612Z" fill="#F3A6C9"/>
<path d="M13.525 20.9874C13.4699 21.0674 13.4078 21.1661 13.3986 21.269C13.3957 21.3 13.4341 21.3037 13.4474 21.2831C13.5008 21.2031 13.5338 21.1085 13.5893 21.0285C13.6181 20.9865 13.5534 20.9458 13.525 20.9874Z" fill="#F3A6C9"/>
<path d="M15.999 16.5805C15.9768 16.5444 15.9238 16.5773 15.9455 16.6148C15.9748 16.6656 16.0027 16.7172 16.039 16.762C16.0607 16.789 16.0941 16.7547 16.0816 16.7259C16.0599 16.6743 16.0286 16.6281 15.999 16.5805Z" fill="#F3A6C9"/>
<path d="M16.6877 16.0851C16.616 16.139 16.5367 16.2345 16.548 16.3379C16.5513 16.3689 16.5863 16.3836 16.6034 16.3543C16.6439 16.2848 16.666 16.214 16.7303 16.1651C16.7745 16.1312 16.7328 16.0512 16.6877 16.0851Z" fill="#F3A6C9"/>
<path d="M13.2455 15.6933C13.2994 15.6421 13.3595 15.5996 13.422 15.5626C13.4596 15.5402 13.4266 15.484 13.3895 15.5013C13.3202 15.5338 13.2585 15.5754 13.2001 15.6275C13.1487 15.6737 13.0886 15.7303 13.0686 15.8021C13.0657 15.8117 13.0682 15.8213 13.0736 15.8282C13.1103 15.7939 13.1521 15.766 13.1976 15.7468C13.213 15.728 13.2289 15.7098 13.2455 15.6933Z" fill="#F3A6C9"/>
<path d="M14.0596 16.2557C13.9829 16.3129 13.8823 16.3956 13.8497 16.4953C13.8372 16.5337 13.884 16.5547 13.9078 16.5318C13.9403 16.5012 13.9637 16.4564 13.9929 16.4212C14.0233 16.3842 14.0576 16.3499 14.0939 16.3197C14.1272 16.2919 14.0964 16.2283 14.0596 16.2557Z" fill="#F3A6C9"/>
<path d="M13.0346 17.4468C13.0049 17.4066 12.9762 17.3659 12.9474 17.3243C12.9278 17.2955 12.8827 17.3225 12.9023 17.3531C12.9294 17.3956 12.9557 17.4376 12.9816 17.4806C13.0054 17.5204 13.0279 17.5647 13.0592 17.5981C13.0851 17.6255 13.1235 17.5908 13.108 17.5569C13.0897 17.5167 13.06 17.4815 13.0346 17.4468Z" fill="#F3A6C9"/>
<path d="M13.327 18.4585C13.3266 18.506 13.3245 18.554 13.3291 18.6011C13.3333 18.6455 13.3875 18.6455 13.3921 18.6011C13.3967 18.554 13.3942 18.506 13.3942 18.4585C13.3938 18.411 13.3274 18.411 13.327 18.4585Z" fill="#F3A6C9"/>
<path d="M11.186 13.8547C11.1543 13.8552 11.1255 13.8707 11.098 13.8877C11.0775 13.9005 11.0562 13.9119 11.0475 13.9343L11.0454 13.9356C11.0266 13.9484 11.0387 13.9868 11.0612 13.9772L11.065 13.9754C11.0867 13.9818 11.1092 13.9686 11.1297 13.959C11.1572 13.9462 11.1864 13.9311 11.2052 13.9046C11.2186 13.8858 11.2115 13.8543 11.186 13.8547Z" fill="#F3A6C9"/>
<path d="M17.6395 14.3528C17.6178 14.4159 17.5923 14.4789 17.576 14.5438C17.5689 14.5726 17.6086 14.5932 17.6211 14.5649C17.6486 14.5018 17.6683 14.4337 17.69 14.3683C17.7021 14.3331 17.6516 14.319 17.6395 14.3528Z" fill="#F3A6C9"/>
<path d="M16.4559 18.5627C16.4626 18.5233 16.4092 18.506 16.4004 18.5457C16.3825 18.6308 16.3841 18.751 16.4492 18.8127C16.4672 18.8291 16.4943 18.8136 16.4889 18.7876C16.4713 18.708 16.4417 18.6472 16.4559 18.5627Z" fill="#F3A6C9"/>
<path d="M17.5733 18.6797C17.5349 18.7506 17.4978 18.82 17.4653 18.8946C17.4494 18.9302 17.494 18.9595 17.5141 18.9256C17.5546 18.8562 17.5888 18.7848 17.6238 18.7117C17.6413 18.6756 17.5925 18.6441 17.5733 18.6797Z" fill="#F3A6C9"/>
<path d="M15.9203 20.0683C15.8803 20.0386 15.829 20.0249 15.7831 20.0084C15.7321 19.9897 15.6804 19.9728 15.6291 19.9545C15.5949 19.9426 15.5819 19.9993 15.6145 20.0126C15.705 20.0505 15.8098 20.1131 15.9074 20.1209C15.9345 20.1232 15.9395 20.083 15.9203 20.0683Z" fill="#F3A6C9"/>
<path d="M17.5929 20.7417C17.5211 20.771 17.456 20.8199 17.3901 20.8619C17.358 20.8821 17.3863 20.9346 17.4185 20.9154C17.4857 20.8757 17.5574 20.84 17.6175 20.7888C17.638 20.7714 17.6159 20.7321 17.5929 20.7417Z" fill="#F3A6C9"/>
<path d="M18.8889 20.141C18.8785 20.0994 18.8192 20.1168 18.8293 20.1588C18.8372 20.1913 18.8447 20.2237 18.8526 20.2557C18.8593 20.285 18.8622 20.3156 18.8818 20.3371C18.8952 20.3517 18.919 20.3449 18.924 20.3252C18.9315 20.295 18.9198 20.2667 18.9127 20.2379C18.9048 20.2054 18.8969 20.1734 18.8889 20.141Z" fill="#F3A6C9"/>
<path d="M19.2863 19.1411C19.2575 19.1191 19.2287 19.0977 19.1999 19.0757C19.1682 19.0515 19.1382 19.1082 19.1695 19.1324C19.1966 19.1534 19.2237 19.1745 19.2508 19.195C19.2759 19.2147 19.3009 19.2394 19.3314 19.2476C19.351 19.2531 19.3723 19.2279 19.3593 19.2078C19.3414 19.1786 19.3122 19.1607 19.2863 19.1411Z" fill="#F3A6C9"/>
<path d="M21.2272 14.2854C21.2848 14.2361 21.3253 14.1575 21.3687 14.0939C21.3937 14.0578 21.3378 14.0222 21.3128 14.0583C21.2694 14.1218 21.2139 14.1849 21.1864 14.2594C21.1763 14.2873 21.211 14.2996 21.2272 14.2854Z" fill="#F3A6C9"/>
<path d="M21.3299 15.7769C21.3837 15.7939 21.4338 15.824 21.4822 15.8547C21.5039 15.8684 21.5226 15.8377 21.5076 15.8185C21.4651 15.7632 21.4091 15.7317 21.3466 15.7102C21.3077 15.697 21.2906 15.7646 21.3299 15.7769Z" fill="#F3A6C9"/>
<path d="M21.1855 17.221C21.1567 17.1963 21.1158 17.2397 21.1446 17.2653C21.1638 17.2822 21.183 17.2991 21.2018 17.316C21.2201 17.3325 21.2389 17.3521 21.2606 17.3627C21.281 17.3727 21.3132 17.3494 21.2956 17.3243C21.2677 17.2831 21.2218 17.2525 21.1855 17.221Z" fill="#F3A6C9"/>
<path d="M21.5297 18.4866C21.5973 18.4317 21.6524 18.3604 21.7104 18.2941C21.7384 18.2626 21.6945 18.2146 21.6666 18.2457C21.6082 18.3115 21.5443 18.3741 21.4968 18.45C21.4834 18.4715 21.5101 18.5021 21.5297 18.4866Z" fill="#F3A6C9"/>
<path d="M20.6633 18.2138C20.6541 18.1837 20.6115 18.196 20.619 18.2275C20.6328 18.2824 20.6416 18.3491 20.6683 18.3985C20.6791 18.4181 20.71 18.4108 20.7088 18.3866C20.7063 18.329 20.68 18.2687 20.6633 18.2138Z" fill="#F3A6C9"/>
<path d="M20.8283 19.4587C20.8363 19.5433 20.8317 19.6484 20.8613 19.7271C20.8692 19.7476 20.9022 19.7554 20.9064 19.7271C20.9197 19.6425 20.8959 19.5438 20.8868 19.4587C20.8822 19.4185 20.8242 19.4176 20.8283 19.4587Z" fill="#F3A6C9"/>
<path d="M1.1383 19.7716C1.05276 19.8004 0.972227 19.8465 0.891275 19.8877C0.859145 19.9037 0.886685 19.9553 0.918816 19.9393C0.998515 19.9 1.08072 19.8648 1.15458 19.8141C1.17419 19.8004 1.16167 19.7638 1.1383 19.7716Z" fill="#F3A6C9"/>
<path d="M2.27508 9.16815C2.33892 9.17546 2.40277 9.18689 2.46703 9.18369C2.49373 9.18232 2.50166 9.13798 2.4737 9.13067C2.40903 9.1133 2.34143 9.11101 2.27508 9.10416C2.23753 9.1005 2.23794 9.16404 2.27508 9.16815Z" fill="#F3A6C9"/>
<path d="M6.38749 9.46282C6.4142 9.41391 6.45175 9.36271 6.46719 9.30832C6.47553 9.27952 6.43923 9.25575 6.42045 9.27815C6.38582 9.32066 6.36454 9.38191 6.3395 9.43173C6.32281 9.46647 6.36913 9.49619 6.38749 9.46282Z" fill="#F3A6C9"/>
<path d="M6.9028 7.90931C6.91907 7.92896 6.94787 7.90336 6.93618 7.88097C6.90864 7.8284 6.87693 7.7804 6.84438 7.73104C6.82477 7.70087 6.77887 7.72966 6.7989 7.76029C6.83228 7.81149 6.86483 7.86222 6.9028 7.90931Z" fill="#F3A6C9"/>
<path d="M12.8894 7.68258C12.9382 7.63459 12.9745 7.56785 13.0133 7.51071C13.0384 7.4746 12.9824 7.4394 12.9574 7.47506C12.9199 7.52945 12.8735 7.58385 12.846 7.64556C12.8322 7.67664 12.8656 7.70635 12.8894 7.68258Z" fill="#F3A6C9"/>
<path d="M11.9714 9.87902C11.9472 9.99376 11.9193 10.1094 11.9055 10.2264C11.9017 10.2598 11.9485 10.263 11.9572 10.2337C11.9898 10.1245 12.0081 10.0093 12.0311 9.89685C12.0399 9.85434 11.9802 9.83605 11.9714 9.87902Z" fill="#F3A6C9"/>
<path d="M18.595 9.74122C18.5879 9.80385 18.5779 9.86693 18.5762 9.93046C18.5753 9.962 18.6221 9.97023 18.6279 9.93824C18.6388 9.87333 18.6421 9.80659 18.6475 9.74122C18.6505 9.70374 18.5991 9.70511 18.595 9.74122Z" fill="#F3A6C9"/>
<path d="M18.8103 9.00797C18.8942 8.96135 18.9809 8.91746 19.0586 8.85895C19.0794 8.84341 19.0669 8.79953 19.0402 8.81096C18.9505 8.85027 18.8666 8.90466 18.7823 8.95586C18.751 8.9746 18.7786 9.0258 18.8103 9.00797Z" fill="#F3A6C9"/>
<path d="M20.4795 9.54625C20.4912 9.5755 20.5254 9.5563 20.5279 9.53208C20.5354 9.46031 20.5154 9.38123 20.5058 9.31038C20.4991 9.26284 20.4336 9.28295 20.4399 9.33004C20.4499 9.4018 20.4532 9.47997 20.4795 9.54625Z" fill="#F3A6C9"/>
<path d="M2.88152 15.5109C2.68207 15.5109 2.51391 15.3614 2.46592 15.1589C2.45674 15.1969 2.45215 15.2366 2.45215 15.2778C2.45215 15.5379 2.64451 15.7486 2.88152 15.7486C3.11895 15.7486 3.31132 15.5379 3.31132 15.2778C3.31132 15.2366 3.30631 15.1969 3.29755 15.1589C3.24914 15.3614 3.0814 15.5109 2.88152 15.5109Z" fill="#ED71A5"/>
<path d="M7.94305 15.8669C7.74359 15.8669 7.57543 15.7174 7.52744 15.5154C7.51826 15.5533 7.51367 15.5931 7.51367 15.6342C7.51367 15.8495 7.64553 16.031 7.82579 16.0872C7.85417 16.0959 7.88338 16.1014 7.91384 16.1037C7.92344 16.1046 7.93345 16.105 7.94305 16.105C8.18048 16.105 8.37284 15.8939 8.37284 15.6342C8.37284 15.5931 8.36783 15.5533 8.35907 15.5154C8.31067 15.7174 8.14292 15.8669 7.94305 15.8669Z" fill="#ED71A5"/>
<path d="M13.3536 16.6559C13.1537 16.6559 12.986 16.5065 12.938 16.304C12.9288 16.3419 12.9238 16.3821 12.9238 16.4233C12.9238 16.6829 13.1162 16.8936 13.3536 16.8936C13.5906 16.8936 13.783 16.6829 13.783 16.4233C13.783 16.3821 13.7784 16.3424 13.7692 16.304C13.7212 16.5065 13.5535 16.6559 13.3536 16.6559Z" fill="#ED71A5"/>
<path d="M19.2982 15.3417C19.2982 15.3006 19.2936 15.2604 19.2844 15.2224C19.2364 15.4249 19.0687 15.5744 18.8688 15.5744C18.669 15.5744 18.5012 15.4249 18.4532 15.2224C18.444 15.2604 18.4395 15.3006 18.4395 15.3417C18.4395 15.6014 18.6314 15.8121 18.8688 15.8121C19.1058 15.8121 19.2982 15.6014 19.2982 15.3417Z" fill="#ED71A5"/>
<path d="M2.88152 14.5691C2.64451 14.5691 2.45215 14.7798 2.45215 15.0399C2.45215 15.081 2.45674 15.1208 2.46592 15.1588C2.51391 15.3613 2.68207 15.5107 2.88152 15.5107C3.0814 15.5107 3.24914 15.3613 3.29713 15.1588C3.30631 15.1208 3.31132 15.081 3.31132 15.0399C3.31132 14.7798 3.11895 14.5691 2.88152 14.5691Z" fill="#FFE78A"/>
<path d="M7.94305 14.9255C7.70604 14.9255 7.51367 15.1367 7.51367 15.3964C7.51367 15.4375 7.51826 15.4773 7.52744 15.5157C7.57543 15.7177 7.74359 15.8672 7.94305 15.8672C8.14292 15.8672 8.31067 15.7177 8.35865 15.5157C8.36783 15.4773 8.37284 15.4375 8.37284 15.3964C8.37284 15.1367 8.18048 14.9255 7.94305 14.9255Z" fill="#FFE78A"/>
<path d="M13.3536 15.7144C13.2985 15.7144 13.246 15.7258 13.1976 15.7468C13.1517 15.766 13.1099 15.7939 13.0736 15.8282C12.9818 15.9146 12.9238 16.0426 12.9238 16.1852C12.9238 16.2263 12.9288 16.2661 12.9376 16.304C12.986 16.5065 13.1537 16.656 13.3536 16.656C13.5531 16.656 13.7212 16.5065 13.7692 16.304C13.7784 16.2661 13.783 16.2263 13.783 16.1852C13.783 15.9251 13.5906 15.7144 13.3536 15.7144Z" fill="#FFE78A"/>
<path d="M18.8683 15.5742C19.0681 15.5742 19.2359 15.4247 19.2839 15.2222C19.2931 15.1843 19.2976 15.1445 19.2976 15.1034C19.2976 14.8433 19.1053 14.6326 18.8683 14.6326C18.6308 14.6326 18.4385 14.8433 18.4385 15.1034C18.4385 15.1445 18.4435 15.1843 18.4522 15.2222C18.5007 15.4247 18.6684 15.5742 18.8683 15.5742Z" fill="#FFE78A"/>
</svg>
