<?xml version="1.0" encoding="UTF-8"?>
<svg version="1.1" xmlns="http://www.w3.org/2000/svg" width="72" height="67">
<path d="M0 0 C23.76 0 47.52 0 72 0 C72 22.11 72 44.22 72 67 C48.24 67 24.48 67 0 67 C0 44.89 0 22.78 0 0 Z " fill="#393A3B" transform="translate(0,0)"/>
<path d="M0 0 C1.32 0 2.64 0 4 0 C4.33 1.98 4.66 3.96 5 6 C5.598125 5.505 6.19625 5.01 6.8125 4.5 C9 3 9 3 12 3 C10.82090887 5.89413277 9.89093261 7.08569581 7.375 9.0625 C3.84037235 13.4342763 4.57297314 17.58150363 5 23 C6.093125 22.34 7.18625 21.68 8.3125 21 C10.93707538 19.41535071 11.8256378 19 15 19 C15.19916016 17.95199219 15.19916016 17.95199219 15.40234375 16.8828125 C15.57894531 15.97273438 15.75554688 15.06265625 15.9375 14.125 C16.11152344 13.22007813 16.28554688 12.31515625 16.46484375 11.3828125 C17 9 17 9 18 7 C18.99 7 19.98 7 21 7 C20.67 9.64 20.34 12.28 20 15 C20.5775 14.67 21.155 14.34 21.75 14 C24 13 24 13 28 13 C27 16 27 16 24.9375 17.1875 C24.298125 17.455625 23.65875 17.72375 23 18 C24.98 18.99 26.96 19.98 29 21 C29 21.99 29 22.98 29 24 C25.45780392 23.49397199 21.98808917 22.99723498 18.5 22.1875 C13.75886684 21.93351072 11.93883616 23.45134131 8 26 C7.34 26 6.68 26 6 26 C6 26.66 6 27.32 6 28 C6.928125 28.28875 7.85625 28.5775 8.8125 28.875 C12 30 12 30 15 32 C18.34725531 31.72481084 18.34725531 31.72481084 22 31 C24.33333333 30.66666667 26.66666667 30.33333333 29 30 C29 30.99 29 31.98 29 33 C26.69 33.66 24.38 34.32 22 35 C22.99 35.61875 23.98 36.2375 25 36.875 C26.485 37.926875 26.485 37.926875 28 39 C28 39.66 28 40.32 28 41 C26.576875 40.7525 26.576875 40.7525 25.125 40.5 C22.19831099 39.9473365 22.19831099 39.9473365 20 40 C20.495 43.465 20.495 43.465 21 47 C20.01 47 19.02 47 18 47 C17.49663233 45.37604003 16.99741024 43.75079459 16.5 42.125 C16.2215625 41.22007813 15.943125 40.31515625 15.65625 39.3828125 C15 37 15 37 15 35 C14.46375 34.896875 13.9275 34.79375 13.375 34.6875 C10.37497956 33.81907303 7.7620465 32.44379704 5 31 C4.0961226 37.9487324 4.0961226 37.9487324 6.55859375 44.21875 C8.45991608 46.07231476 8.45991608 46.07231476 10.46875 47.66015625 C11.22671875 48.32337891 11.22671875 48.32337891 12 49 C12 49.66 12 50.32 12 51 C7.25 50.25 7.25 50.25 5 48 C4.67 49.98 4.34 51.96 4 54 C2.68 54 1.36 54 0 54 C-0.33 52.02 -0.66 50.04 -1 48 C-2.32 48.66 -3.64 49.32 -5 50 C-5 50.66 -5 51.32 -5 52 C-6.485 51.505 -6.485 51.505 -8 51 C-6.82090887 48.10586723 -5.89093261 46.91430419 -3.375 44.9375 C0.15962765 40.5657237 -0.57297314 36.41849637 -1 31 C-1.55429687 31.28875 -2.10859375 31.5775 -2.6796875 31.875 C-3.40414063 32.24625 -4.12859375 32.6175 -4.875 33 C-5.59429688 33.37125 -6.31359375 33.7425 -7.0546875 34.125 C-9 35 -9 35 -11 35 C-11.13277344 35.69867188 -11.26554687 36.39734375 -11.40234375 37.1171875 C-11.66724609 38.48230469 -11.66724609 38.48230469 -11.9375 39.875 C-12.11152344 40.77992187 -12.28554688 41.68484375 -12.46484375 42.6171875 C-13 45 -13 45 -14 47 C-14.99 47 -15.98 47 -17 47 C-16.67 44.36 -16.34 41.72 -16 39 C-16.86625 39.495 -16.86625 39.495 -17.75 40 C-20 41 -20 41 -24 41 C-23 38 -23 38 -20.9375 36.8125 C-20.298125 36.544375 -19.65875 36.27625 -19 36 C-20.98 35.01 -22.96 34.02 -25 33 C-25 32.01 -25 31.02 -25 30 C-24.11248047 30.2165625 -24.11248047 30.2165625 -23.20703125 30.4375 C-14.92893383 32.38211016 -11.31888054 32.41894674 -4 28 C-3.34 28 -2.68 28 -2 28 C-2 27.34 -2 26.68 -2 26 C-2.928125 25.71125 -3.85625 25.4225 -4.8125 25.125 C-8 24 -8 24 -11 22 C-13.73669888 22.22431958 -16.30754597 22.53351079 -19 23 C-20.155 23.185625 -21.31 23.37125 -22.5 23.5625 C-23.325 23.706875 -24.15 23.85125 -25 24 C-24.67 22.68 -24.34 21.36 -24 20 C-22.35 19.67 -20.7 19.34 -19 19 C-19.825 18.38125 -20.65 17.7625 -21.5 17.125 C-22.325 16.42375 -23.15 15.7225 -24 15 C-24 14.34 -24 13.68 -24 13 C-23.05125 13.165 -22.1025 13.33 -21.125 13.5 C-18.19831099 14.0526635 -18.19831099 14.0526635 -16 14 C-16.33 11.69 -16.66 9.38 -17 7 C-16.01 7 -15.02 7 -14 7 C-13.49440092 8.43554025 -12.9957251 9.8735202 -12.5 11.3125 C-12.2215625 12.11300781 -11.943125 12.91351563 -11.65625 13.73828125 C-11 16 -11 16 -11 19 C-9.6696875 19.433125 -9.6696875 19.433125 -8.3125 19.875 C-5.49528665 20.83178944 -2.75572395 21.88268773 0 23 C0.14705595 15.96756443 0.14705595 15.96756443 -2.625 9.7109375 C-4.34898961 8.02170575 -6.0837562 6.46595152 -8 5 C-7.67 4.01 -7.34 3.02 -7 2 C-5 2 -5 2 -2.875 4 C-2.25625 4.66 -1.6375 5.32 -1 6 C-0.67 4.02 -0.34 2.04 0 0 Z " fill="#7FB9E4" transform="translate(32,7)"/>
<path d="M0 0 C0.99 0 1.98 0 3 0 C3 22.11 3 44.22 3 67 C2.01 67 1.02 67 0 67 C0 44.89 0 22.78 0 0 Z " fill="#2C2C2C" transform="translate(69,0)"/>
<path d="M0 0 C4.455 0.99 4.455 0.99 9 2 C8.814375 2.78375 8.62875 3.5675 8.4375 4.375 C7.74037734 6.97089775 7.74037734 6.97089775 9 9 C5.91190305 10.76462683 4.76687864 11 1 11 C2 8 2 8 4.0625 6.8125 C4.701875 6.544375 5.34125 6.27625 6 6 C4.02 5.01 2.04 4.02 0 3 C0 2.01 0 1.02 0 0 Z " fill="#7FBAE5" transform="translate(7,37)"/>
<path d="M0 0 C2.97 0.99 5.94 1.98 9 3 C9 3.99 9 4.98 9 6 C6.69 5.67 4.38 5.34 2 5 C1.34 3.35 0.68 1.7 0 0 Z " fill="#7CB3DC" transform="translate(52,25)"/>
<path d="M0 0 C0.99 0 1.98 0 3 0 C2.25 6.75 2.25 6.75 0 9 C-0.66 9 -1.32 9 -2 9 C-1.125 2.25 -1.125 2.25 0 0 Z " fill="#7DB5DF" transform="translate(50,14)"/>
<path d="M0 0 C0.66 0.33 1.32 0.66 2 1 C1.34 3.31 0.68 5.62 0 8 C-0.99 8 -1.98 8 -3 8 C-2.74438677 5.6568787 -2.40729228 3.32156597 -2 1 C-1.34 0.67 -0.68 0.34 0 0 Z " fill="#7AB1D9" transform="translate(18,46)"/>
<path d="M0 0 C1.32 0 2.64 0 4 0 C4.33 1.65 4.66 3.3 5 5 C1.91190305 6.76462683 0.76687864 7 -3 7 C-2 4 -2 4 0.0625 2.8125 C0.701875 2.544375 1.34125 2.27625 2 2 C1.34 1.34 0.68 0.68 0 0 Z " fill="#79AED5" transform="translate(11,41)"/>
</svg>
