<svg width="40" height="40" viewBox="0 0 40 40" fill="none" xmlns="http://www.w3.org/2000/svg">
<mask id="mask0_46_3410" style="mask-type:luminance" maskUnits="userSpaceOnUse" x="0" y="0" width="40" height="40">
<path d="M40 40H0V0H40V40Z" fill="white"/>
</mask>
<g mask="url(#mask0_46_3410)">
<path d="M22.0497 14.1622C21.7334 15.2401 23.145 15.5093 23.8523 15.6161C24.0345 15.644 24.1496 15.8544 24.0749 16.037C23.8104 16.6831 24.2974 17.1366 24.706 17.5482C24.8149 17.6581 24.8599 17.8392 24.7532 17.9746C24.2357 18.633 24.254 19.276 24.3416 20.0815C24.3988 20.6054 24.4796 21.2414 24.2342 21.7242C23.8874 22.4052 23.4468 23.0296 23.0367 23.6664C22.9544 23.7949 22.8317 23.8065 22.7311 23.7554C21.8149 24.0355 21.0345 24.6955 20.2143 25.1876C19.8592 25.4012 19.5162 25.4794 19.1092 25.4383C18.5162 25.3788 17.9811 25.1567 17.3874 25.3672C17.2433 25.4182 17.097 25.361 17.0314 25.2109C16.8127 24.704 16.4346 24.3349 15.9369 24.1585C15.8165 24.116 15.7753 23.9775 15.7776 23.8583C15.7974 22.8864 14.9948 22.1614 14.2364 21.7815C14.0649 21.6956 14.0306 21.4929 14.129 21.3319C14.7829 20.2564 14.6412 18.9928 13.9971 17.9583C13.9034 17.8082 13.9323 17.5645 14.1145 17.4995C15.2197 17.1025 15.8249 15.8529 15.9095 14.6752C15.9224 14.4911 16.1496 14.3409 16.3088 14.4353C17.3005 15.0265 18.3218 14.5352 18.8912 13.5587C18.9895 13.3908 19.2471 13.4171 19.3462 13.5625C19.914 14.3951 20.8851 14.4253 21.6137 13.8001C21.8561 13.5919 22.1282 13.8937 22.0497 14.1622ZM25.0017 1.41977C24.3736 1.3865 23.7806 1.354 23.3767 1.27817L23.2265 1.24954C21.507 0.921459 17.0024 0.0625763 16.3553 2.3127C15.9293 1.13657 13.4476 -0.072834 12.4224 0.0579338C10.8416 0.259113 9.76464 3.34413 9.54132 4.94429C7.98339 3.79369 5.85077 4.92494 4.41403 6.57617C2.94452 8.26376 2.03217 10.681 3.0215 12.1659C2.52607 11.9082 2.09467 11.8842 1.73796 12.0962C1.07257 12.4901 0.750923 13.6616 0.587811 14.9112C0.461288 15.88 0.429276 16.8959 0.40641 17.6341C0.394215 18.0218 0.385067 18.3282 0.366013 18.5301C0.347721 18.7282 0.322567 18.9588 0.294365 19.2141C0.0535126 21.414 -0.391609 25.4886 1.5962 26.4752C0.2715 27.608 -0.220116 28.9335 0.279884 30.0314C0.830952 31.2385 2.43461 31.7678 4.18995 31.3259C4.28979 31.7306 4.35305 32.1438 4.41403 32.5439C4.58171 33.6403 4.73949 34.6748 5.57943 35.5848C6.36296 36.4336 7.64117 36.7795 8.76921 37.0843C8.9933 37.1447 9.20443 37.202 9.4087 37.2623C9.7776 37.3706 10.3233 37.3993 10.8523 37.4271C11.5238 37.4627 12.2181 37.4999 12.5649 37.6956C13.0169 37.9517 13.2852 38.2999 13.5451 38.6365C13.9537 39.1658 14.3401 39.6664 15.363 39.8003C16.7334 39.9798 18.2745 39.774 19.7646 39.5759C20.6038 39.4637 21.3965 39.3584 22.161 39.3167C22.4933 39.2989 22.93 39.3012 23.4361 39.3051C25.3378 39.3174 28.2113 39.3368 29.0627 38.1452C29.35 37.7444 29.4438 37.1331 29.5436 36.4862C29.6457 35.8231 29.7517 35.136 30.0771 34.6563C30.2151 34.4535 30.3904 34.2918 30.5749 34.1316C31.6953 35.0184 33.5482 34.4798 34.5253 33.4306C35.2555 32.646 35.3683 31.7183 34.8348 30.9313C38.8531 31.0141 39.4224 28.7447 39.8774 25.0135C40.1206 23.0211 39.7517 21.2824 38.8096 19.9864C37.9979 18.8683 36.9918 18.5464 35.5009 18.291C37.289 17.8817 38.3439 16.5261 38.4628 15.4629C38.5642 14.5591 37.8424 13.691 36.43 13.0132C36.8317 12.6843 37.0146 12.1674 36.9453 11.5476C36.8386 10.5959 36.1755 9.64261 35.4018 9.33078C35.1084 9.21317 34.7014 9.14585 34.2601 9.36638C35.2524 8.26995 35.536 7.02959 35.0558 5.82948C34.2852 3.90202 31.6297 2.41329 29.3622 2.63072C28.7814 1.62404 26.6877 1.51107 25.0017 1.41977Z" fill="#FFD952"/>
</g>
<path d="M15.9229 14.6465C15.9358 14.4616 16.1637 14.3115 16.3223 14.4059C17.3139 14.997 18.3352 14.5057 18.9046 13.53C19.0029 13.3613 19.2605 13.3876 19.3596 13.5331C19.9274 14.3656 20.8985 14.3966 21.6271 13.7706C21.8695 13.5625 22.1424 13.8642 22.0631 14.1335C21.7468 15.2106 23.1592 15.4799 23.8657 15.5867C24.0486 15.6145 24.163 15.825 24.0883 16.0076C23.8238 16.6537 24.3108 17.1071 24.7194 17.5188C24.8284 17.6286 24.8733 17.8097 24.7674 17.9451C24.2491 18.6036 24.2674 19.2466 24.355 20.0521C24.4122 20.5759 24.4938 21.212 24.2476 21.6948C23.9008 22.3757 23.461 23.0001 23.0502 23.637C22.9678 23.7654 22.8459 23.777 22.7453 23.7259C21.8284 24.006 21.0479 24.6661 20.2285 25.1582C19.8726 25.3725 19.5296 25.4499 19.1226 25.4089C18.5296 25.3493 17.9945 25.1272 17.4008 25.3377C17.2567 25.3888 17.1104 25.3315 17.0456 25.1814C16.8261 24.6746 16.4488 24.3055 15.9503 24.1298C15.8299 24.0865 15.7887 23.948 15.791 23.8288C15.8108 22.857 15.009 22.132 14.2499 21.752C14.0784 21.6662 14.0448 21.4634 14.1424 21.3025C14.7964 20.2269 14.6546 18.9642 14.0105 17.9289C13.9168 17.7787 13.9457 17.535 14.1279 17.47C15.2339 17.0738 15.8383 15.8234 15.9229 14.6465ZM13.2239 16.892C11.7643 17.2719 10.2666 16.3101 9.03797 15.6014C8.21861 15.1278 7.38248 14.6968 6.53035 14.2945C5.77882 13.9401 5.01129 13.6337 4.20717 13.4967C4.78949 14.0275 5.53644 14.3958 6.17288 14.7966C7.33522 15.5286 8.62486 16.0293 9.87029 16.5763C10.522 16.8626 11.1714 17.1551 11.804 17.4847C12.163 17.6712 12.5525 17.8523 12.8695 18.1161C13.2178 18.4063 13.4602 18.8148 13.4442 19.2977C13.4099 20.3593 12.3764 21.2197 11.6592 21.8093C10.5357 22.7309 9.29407 23.4876 8.06007 24.2273C7.44727 24.5941 6.82684 24.9469 6.21785 25.3222C6.20489 25.33 6.19117 25.3392 6.17821 25.347C6.43888 25.2773 6.69574 25.1829 6.94117 25.0854C7.59208 24.8278 8.21632 24.502 8.84513 24.1894C9.93964 23.6455 11.0776 23.0984 12.2438 22.7587C13.0502 22.5235 14.554 22.2256 15.0029 23.2818C15.339 24.0726 14.6279 24.9485 14.1569 25.4793C13.8695 25.8027 13.5631 26.1053 13.246 26.3954C13.3817 26.3366 13.5174 26.2778 13.6538 26.2198C14.227 25.9776 15.0067 25.5644 15.6424 25.7099C16.4236 25.8886 16.0654 26.8612 15.7742 27.3325C15.1592 28.3291 14.1858 29.0572 13.3436 29.8209C12.8512 30.2674 12.323 30.6403 11.7895 31.028C11.3451 31.3507 10.8352 31.7081 10.5166 32.1917C11.0182 32.1569 11.5029 31.8621 11.9114 31.5712C12.4755 31.1696 12.9846 30.6875 13.4793 30.1939C14.5471 29.1268 15.4084 27.7387 16.759 27.0377C16.9252 26.9518 17.0898 27.0949 17.1241 27.2621C17.2994 28.1209 17.1386 29.0131 16.8543 29.8789C16.932 29.7211 17.0105 29.564 17.0906 29.4085C17.5044 28.61 18.8291 25.8615 19.9999 26.4736C20.8985 26.9433 20.7956 28.2579 20.6759 29.1408C20.5517 30.0592 20.1805 30.9375 19.9259 31.8203C19.7918 32.2869 19.666 32.7667 19.6271 33.2549C19.5883 33.7385 19.7041 34.0325 20.2217 33.9838C20.73 33.9358 21.307 33.6395 21.6691 33.2572C22.0928 32.81 22.2285 32.1244 22.2102 31.5101C22.1767 30.3811 21.6774 29.2901 21.4335 28.203C21.2834 27.5344 21.0296 25.8654 21.9374 25.6232C22.3589 25.5102 22.7369 25.9041 23.0403 26.1517C23.5669 26.5827 24.0441 27.0794 24.4831 27.6095C25.461 28.7918 26.2011 30.1467 26.9808 31.4768C27.5494 32.4471 28.0829 33.7493 29.0364 34.3831C29.1157 33.5675 28.5281 32.5577 28.2056 31.9271C27.5814 30.7061 26.7217 29.6143 25.8878 28.5504C25.2171 27.6938 24.4732 26.8775 23.8428 25.9877C23.6485 25.713 23.4175 25.3563 23.4564 24.9918C23.4968 24.6057 23.8192 24.4192 24.1508 24.379C24.7041 24.3117 25.1851 24.5833 25.6081 24.9338C25.8992 25.1744 26.1744 25.4777 26.4968 25.672C26.2605 25.1079 25.8451 24.6158 25.5227 24.1182C25.2018 23.6238 24.8314 22.8965 25.3901 22.4159C26.0136 21.8805 27.0494 21.9803 27.8017 21.9873C28.2445 21.9911 28.6874 21.9904 29.1287 21.9571C29.4839 21.93 30.0364 21.9316 30.339 21.6932C30.7712 21.3528 29.3375 20.7384 29.1271 20.6463C28.5189 20.3794 27.9008 20.1852 27.2742 19.977C26.6279 19.7619 25.1401 19.2853 25.5357 18.5138C25.7994 18 27.9503 17.4863 28.464 17.2673C29.1028 16.9941 30.2689 16.119 30.7781 15.6277C31.5601 14.8709 32.1683 13.9331 32.6973 12.9566C32.1508 13.3288 31.6592 13.807 31.1744 14.2527C30.4892 14.8818 29.7842 15.4273 29.006 15.9178C28.2506 16.3937 27.3916 16.9175 26.4938 16.9709C25.8329 17.0104 25.0174 16.6792 24.8649 15.9178C24.7247 15.2207 25.1523 14.5142 25.5433 13.9958C26.0585 13.3133 26.7102 12.7848 27.3543 12.2486C28.2636 11.4911 29.1912 10.7429 30.1485 10.0558C30.772 9.60929 32.1241 8.89355 32.0425 7.93485C32.0021 7.46518 31.5997 7.15644 31.1752 7.13091C30.6965 7.10228 30.2468 7.40792 29.8825 7.70504C29.355 8.13603 28.8596 8.66607 28.4435 9.21854C27.6965 10.2121 27.0098 11.252 26.2285 12.2184C25.8024 12.7461 25.3566 13.27 24.8528 13.7157C24.5212 14.0082 24.0845 14.3595 23.6287 14.3239C22.9579 14.2712 22.7765 13.4866 23.0143 12.9148C23.1592 12.5643 23.3954 12.2672 23.6058 11.9608C23.7308 11.7789 24.0601 11.2574 23.9724 10.9943C23.9617 10.9905 23.9442 10.9858 23.9168 10.9858C23.7674 10.9866 23.6142 11.0477 23.4778 11.1034C23.2621 11.1916 23.0669 11.3139 22.8756 11.4532C22.5166 11.7147 22.179 12.0505 21.7742 12.2339C20.7826 12.6827 20.3207 11.5584 20.131 10.7158C19.9739 10.0202 19.9076 9.30752 19.8139 8.60107C19.727 7.94878 19.573 7.31274 19.4739 6.66278C19.3596 5.90912 19.3108 5.07036 19.1188 4.30046C18.9389 5.51063 19.0654 6.76105 19.1531 7.9805C19.2659 9.55048 19.3017 11.1243 18.7842 12.6262C18.711 12.8398 18.4846 12.8854 18.304 12.8297C17.7781 12.668 17.3893 12.3105 17.0776 11.871C17.089 12.1202 17.089 12.3701 17.0669 12.6216C16.996 13.4147 16.4922 14.2132 15.6485 13.8604C14.8627 13.5323 14.3642 12.5976 13.9061 11.8958C13.2567 10.9023 12.6706 9.86463 12.0037 8.88349C11.4846 8.12133 10.9122 7.37774 10.2346 6.76956C10.8307 8.14609 11.6073 9.43055 12.3871 10.698C13.0875 11.8354 13.9076 13.0116 14.3055 14.3208C14.6492 15.452 14.4305 16.5779 13.2239 16.892Z" fill="#F5C000"/>
<mask id="mask1_46_3410" style="mask-type:luminance" maskUnits="userSpaceOnUse" x="0" y="0" width="40" height="40">
<path d="M40 40H0V0H40V40Z" fill="white"/>
</mask>
<g mask="url(#mask1_46_3410)">
<path d="M28.182 2.47739C28.419 2.56096 28.634 2.65226 28.8146 2.76214C28.884 2.83642 28.9488 2.91921 29.0074 3.01671C29.0692 3.11962 29.137 3.23491 29.1995 3.35484C29.0417 4.67644 28.698 5.9462 28.1591 7.15482C28.0509 7.39624 28.3931 7.61212 28.5372 7.39315C29.4747 5.96786 31.3009 3.18848 33.2392 4.33985C34.105 5.03934 34.7163 6.07309 34.7026 7.23839C34.6713 7.25232 34.6446 7.2794 34.637 7.31964C34.5867 7.59742 34.5219 7.84503 34.4282 8.08799C33.9449 8.74956 33.3169 9.22001 32.5783 9.48619C32.5189 9.50476 32.4602 9.52411 32.4007 9.54577C32.1568 9.63553 32.3123 10.0054 32.5509 9.93266C32.6142 9.91331 32.6767 9.89242 32.7384 9.86998C33.3329 9.69047 33.951 9.69975 34.5562 9.84599C34.9106 9.93188 35.2978 10.0673 35.6271 10.2816C35.7353 10.4108 35.8337 10.5478 35.9198 10.6917C36.1324 11.0469 36.2803 11.4547 36.294 11.8717C36.1119 12.0597 35.9808 12.2911 35.7681 12.4606C35.5456 12.6385 35.3017 12.7848 35.0654 12.9395C34.4693 13.3303 33.8672 13.7226 33.2079 13.981C32.9526 14.0816 33.1142 14.4801 33.368 14.3927C34.4312 14.0251 35.9632 13.1701 37.0372 13.8588C37.6073 14.3176 37.9305 14.932 37.5128 15.6794C36.6302 17.2595 36.0981 17.056 34.852 18.3087C37.0296 18.9772 37.7712 19.4949 38.8062 21.841C39.4617 23.3274 39.4724 25.1566 39.0311 26.7134C38.6294 28.1317 37.6965 29.6406 36.2155 29.8727C35.1568 30.0383 34.1393 29.615 33.1408 29.2134C33.3824 29.5392 33.6119 29.8758 33.7849 30.2573C34.1347 31.0256 34.0646 31.9843 33.2445 32.3727C32.4975 32.7263 31.6759 32.2211 31.0638 31.7924C30.6606 31.5092 30.2719 31.1169 29.8558 30.8043C29.977 31.9325 30.0395 33.0738 29.7613 34.1841C29.4434 35.4485 28.7818 36.8513 27.8199 37.704C26.8626 38.5528 25.6469 38.5629 24.6446 37.8239C23.7376 37.1554 23.0288 36.175 21.8017 36.4613C20.8466 36.6834 20.0692 37.4626 19.3024 38.0584C18.4693 38.7053 17.7186 38.5768 16.6698 38.6341C15.9114 38.6759 14.9716 39.1804 14.4549 38.5304C14.0059 37.9663 13.9434 37.1833 13.9983 36.4745C14.0875 35.3363 14.4465 34.2476 14.855 33.1821C14.5067 33.7377 14.2102 34.3451 13.8794 34.8442C13.0875 36.035 12.1157 36.6045 10.7742 36.1511C7.90836 35.1815 5.85501 33.7694 5.43123 32.0748C5.26659 31.4171 5.18504 30.6588 5.4701 30.0476C5.2605 30.1087 5.05013 30.1636 4.83672 30.2093C3.97163 30.3919 2.87407 30.4445 2.15607 29.7953C1.5265 29.2258 1.33138 28.1704 1.65226 27.3703C1.91522 26.7134 2.44037 26.2576 2.94342 25.7934C2.51583 25.7895 2.10349 25.6634 1.76583 25.3237C1.23534 24.7913 1.05851 23.9626 0.995255 23.2183C0.818424 21.1469 1.4579 19.9607 2.19724 18.0518C2.98839 16.0114 1.8169 13.6104 4.32452 13.2707C3.31004 11.8361 3.55242 10.7915 4.09815 9.24787C4.77422 7.33821 6.19571 5.3798 8.17742 5.38444C9.0547 5.38599 9.60501 5.58562 10.2917 6.10482C10.2262 5.59104 10.9914 3.5568 11.6965 3.02909C13.4358 1.72838 14.3169 1.59839 15.5646 2.32418C16.0029 2.57953 17.5867 4.15647 17.9808 4.57276C18.1553 4.09225 18.3588 2.5362 18.6568 2.07193C19.041 1.47381 19.5768 1.64791 20.3146 1.83207C21.2407 2.06342 23.6728 3.28521 24.4175 3.69608C25.2674 4.16421 25.3192 3.75101 26.2315 2.93701C26.9724 2.27699 27.2163 2.13693 28.182 2.47739ZM31.5006 3.78815C31.5181 3.7781 31.5349 3.76958 31.5517 3.75875C31.5715 3.74715 31.5867 3.73167 31.5989 3.71542C31.6378 3.71852 31.6759 3.72316 31.714 3.72703C31.6431 3.74405 31.5715 3.76417 31.5006 3.78815ZM25.0036 1.42042C24.3756 1.38638 23.7826 1.35465 23.3786 1.27805L23.2292 1.24942C21.509 0.921341 17.0044 0.0632286 16.3573 2.31258C15.9312 1.13645 13.4495 -0.0721779 12.4251 0.0578117C10.8436 0.259766 9.76659 3.34401 9.54327 4.94494C7.98534 3.79435 5.85272 4.92559 4.41599 6.57605C2.94647 8.26441 2.03413 10.6817 3.02345 12.1658C2.52803 11.9089 2.09663 11.8849 1.73992 12.0961C1.07452 12.4907 0.752876 13.6615 0.589764 14.9111C0.463242 15.8798 0.431229 16.8958 0.408363 17.634C0.396168 18.0224 0.38702 18.3288 0.367966 18.53C0.349674 18.7289 0.32452 18.9594 0.296318 19.2148C0.0562286 21.4146 -0.389656 25.4885 1.59815 26.4758C0.273453 27.6086 -0.218163 28.9341 0.2826 30.0321C0.832905 31.2392 2.43657 31.7684 4.1919 31.3266C4.29175 31.7305 4.35501 32.1437 4.41599 32.5445C4.58367 33.6402 4.7422 34.6755 5.58138 35.5847C6.36492 36.4335 7.64312 36.7794 8.77117 37.0842C8.99525 37.1453 9.20714 37.2026 9.41065 37.2622C9.77955 37.3705 10.326 37.3999 10.8542 37.4278C11.5257 37.4634 12.2201 37.4997 12.5669 37.6963C13.0189 37.9516 13.2879 38.2998 13.5471 38.6364C13.9556 39.1664 14.3421 39.6671 15.3649 39.8001C16.7353 39.9797 18.2765 39.7746 19.7666 39.5758C20.6058 39.4643 21.3985 39.3583 22.1629 39.3165C22.4953 39.2987 22.9328 39.3018 23.4381 39.3049C25.3398 39.3181 28.214 39.3374 29.0654 38.1458C29.352 37.7442 29.4457 37.133 29.5456 36.4869C29.6477 35.823 29.7536 35.1366 30.0791 34.6569C30.2171 34.4534 30.3931 34.2917 30.5776 34.1323C31.6972 35.019 33.5501 34.4797 34.5273 33.4313C35.2582 32.6467 35.3703 31.7189 34.8367 30.9312C38.855 31.014 39.4244 28.7453 39.8794 25.0134C40.1225 23.021 39.7536 21.2831 38.8116 19.9862C37.9998 18.8689 37.355 18.4596 35.8634 18.2042C37.6515 17.7949 38.3459 16.5259 38.4648 15.4628C38.5661 14.5598 37.8443 13.6916 36.432 13.0138C36.8344 12.685 37.0166 12.1673 36.948 11.5475C36.8413 10.5958 36.1774 9.64327 35.4038 9.33144C35.121 9.21769 34.7308 9.15192 34.307 9.34614C34.2239 9.3237 34.1393 9.30513 34.0539 9.28733C34.0578 9.28424 34.0616 9.28114 34.0654 9.27805C34.1393 9.29584 34.2125 9.31596 34.2849 9.33995C35.2582 8.25048 35.5341 7.02019 35.0578 5.82936C34.2872 3.90267 31.6317 2.41317 29.3642 2.63137C28.7834 1.62392 26.6896 1.51095 25.0036 1.42042Z" fill="#F5C000"/>
</g>
<path d="M11.7596 19.2471C11.8731 19.3245 11.9509 19.4607 11.9303 19.6502C11.7603 21.2411 10.1407 22.0365 8.93791 22.6347C7.4059 23.3968 5.74203 24.6511 3.97602 24.5474C2.55224 24.4639 2.35864 22.9434 2.48593 21.7309C2.54614 21.1568 2.58349 20.4495 2.82587 19.9257C3.12541 19.2773 3.77556 19.3245 4.35483 19.3833C6.66276 19.6154 9.04081 19.5876 11.3282 19.1264C11.5172 19.0885 11.662 19.1426 11.7596 19.2471Z" fill="#FFE68A"/>
<path d="M5.49605 16.8673L7.64696 17.4569C8.60428 17.607 9.57913 17.6821 10.538 17.8051C11.0021 17.8647 10.9839 18.5866 10.5349 18.664C9.27349 18.8814 8.01205 18.931 6.74528 18.7097C5.63934 18.517 3.80016 18.0156 3.44727 16.6924C3.29864 16.1361 3.85428 15.538 4.34971 15.9643C4.73004 16.2916 5.04711 16.6429 5.49605 16.8673Z" fill="#FFE68A"/>
<path d="M9.31783 11.5948C9.82164 12.172 10.3194 12.7098 10.9184 13.1779C11.5564 13.677 12.4001 14.1475 12.8476 14.8593C13.2523 15.5031 12.5617 16.1523 11.9764 15.7701C11.9741 15.7693 11.9726 15.7677 11.9703 15.7662C10.8255 15.322 9.64938 14.9909 8.52667 14.4724C7.21265 13.8658 5.68826 13.0851 4.9817 11.6815C4.59908 10.9201 4.6189 10.0465 4.94512 9.26575C5.05487 9.00267 5.34832 8.79839 5.62576 8.85642C7.15777 9.17522 8.29801 10.4256 9.31783 11.5948Z" fill="#FFE68A"/>
<path d="M10.2089 9.57592C10.6761 10.1756 11.2089 10.711 11.6815 11.3061C12.1769 11.9297 12.5992 12.6315 12.9498 13.3573C13.1533 13.7806 12.5161 14.1698 12.2676 13.7736C11.4787 12.517 10.3034 11.6365 9.34307 10.54C8.91167 10.0479 8.52523 9.51479 8.10069 9.01648C7.68758 8.5321 7.02981 8.11736 6.72036 7.55793C6.55877 7.26544 6.63423 6.72071 7.04963 6.71916C7.79962 6.71761 8.37508 7.32038 8.85908 7.86666C9.33926 8.4083 9.7638 9.00255 10.2089 9.57592Z" fill="#FFE68A"/>
<path d="M13.2866 24.9811C11.9359 25.9584 10.471 26.7902 8.96796 27.4727C8.2233 27.8108 7.45882 28.1064 6.6768 28.3285C5.8925 28.5513 5.04723 28.7471 4.23473 28.6047C3.80561 28.5296 3.67223 27.834 4.12269 27.6653C4.84601 27.3945 5.6204 27.28 6.36125 27.0711C7.11811 26.856 7.85439 26.5782 8.58077 26.2695C10.0411 25.6481 11.4299 24.8542 12.9017 24.2662C13.3026 24.1052 13.6677 24.7057 13.2866 24.9811Z" fill="#FFE68A"/>
<path d="M12.0448 27.488C12.7018 27.2613 13.3886 27.0717 13.9968 26.715C14.0905 26.66 14.1812 26.6585 14.259 26.6902C14.3322 26.6492 14.4061 26.609 14.4815 26.5742C14.8947 26.3846 15.1744 26.9053 14.9671 27.2559C14.5303 27.9917 13.7262 28.5117 13.0669 28.9984C12.3672 29.5153 11.6485 30.0043 10.9587 30.5366C10.4815 30.9049 9.92819 31.4187 9.89999 32.0973C9.87484 32.697 10.323 33.5443 10.8695 33.7563C11.679 34.0689 12.8581 32.2544 13.3611 31.7097C13.6614 31.3236 13.9587 30.9351 14.2567 30.5475C14.6713 30.0081 14.9602 29.3605 15.4236 28.8661C15.7887 28.4769 16.3405 28.9233 16.0562 29.3945C15.6675 30.0406 15.4564 30.7734 15.0273 31.4002C14.5989 32.0254 14.1317 32.6289 13.6546 33.2139C13.2643 33.6921 12.8398 34.1617 12.339 34.5092C11.8596 34.8419 11.3588 35.0191 10.7826 34.9216C9.07224 34.6322 6.30548 32.779 7.11569 30.5784C7.29709 30.0863 7.70106 29.7102 8.11721 29.4425C8.76051 29.0278 9.43962 28.6657 10.1203 28.3267C10.7475 28.0149 11.3863 27.7155 12.0448 27.488Z" fill="#FFE68A"/>
<path d="M15.9456 35.5545C16.1651 34.8543 16.4326 34.1625 16.7177 33.4901C17.2825 32.1608 17.9067 30.8322 18.5752 29.5462C18.739 29.0061 18.9753 28.5024 19.3549 28.1008C19.6895 27.7456 20.4494 28.0706 20.1522 28.6038C19.5325 29.718 19.4273 31.0775 19.188 32.3194C18.9448 33.5837 19.0249 34.9015 18.7299 36.1526C18.582 36.7802 18.3374 37.3783 17.7764 37.6979C17.1865 38.0345 16.473 37.8851 16.0584 37.3195C15.675 36.7972 15.7619 36.1418 15.9456 35.5545Z" fill="#FFE68A"/>
<path d="M22.6663 35.3005C22.0207 35.4738 21.7829 34.3851 22.3713 34.1259C24.0603 33.3785 23.401 31.0053 22.8302 29.4632C22.5482 29.0926 22.2593 28.7258 22.0619 28.2979C21.866 27.8739 22.3667 27.2997 22.776 27.5489C23.4323 27.9497 23.8645 28.6453 24.2921 29.2953C24.7029 29.9205 25.0741 30.5735 25.4445 31.2266C25.8142 31.8781 26.1792 32.5327 26.5725 33.1688C26.8995 33.698 27.2623 34.1313 27.6488 34.6057C28.0238 35.0676 28.2318 35.6479 27.9544 36.2275C27.6701 36.821 27.0672 36.9571 26.5177 36.732C25.196 36.1919 24.2196 34.8827 22.6663 35.3005Z" fill="#FFE68A"/>
<path d="M25.7513 3.9191C26.1827 3.64131 26.7185 3.20878 27.2558 3.3202C27.9952 3.4734 27.9845 4.42978 27.9532 5.05112C27.9113 5.90072 27.736 6.73949 27.518 7.55504C27.2551 8.53772 26.909 9.50184 26.4487 10.401C26.1895 10.9055 25.8839 11.4432 25.5028 11.8889C25.3991 12.0932 25.2757 12.2828 25.127 12.4507C24.9769 12.6209 24.7452 12.6503 24.5516 12.5861C24.2459 12.5636 23.9586 12.2185 24.2353 11.9261C24.2589 11.9005 24.2818 11.875 24.3046 11.8502C24.5546 11.3651 24.6545 10.7716 24.7116 10.2315C24.7688 9.69374 24.8389 8.98651 24.5676 8.49594C24.156 7.75312 22.8595 9.03448 22.5119 9.42446C22.1834 9.79278 21.3793 9.74171 21.3755 9.09484C21.3709 8.48356 21.3176 7.87925 21.2154 7.27803C21.1545 6.91668 20.9959 6.60098 20.8618 6.26594C20.5904 5.58889 20.2901 4.80584 20.7939 4.16438C21.701 3.00605 23.4548 3.916 24.5043 4.30676C24.6735 4.3702 24.6994 4.41431 24.9174 4.36479C25.2132 4.29747 25.4967 4.08236 25.7513 3.9191Z" fill="#FFE68A"/>
<path d="M13.0689 4.52817C13.072 4.53204 13.0735 4.53745 13.0773 4.54055C13.0727 4.53668 13.0704 4.53281 13.0689 4.52817ZM16.0201 4.08248C15.498 3.7366 14.8776 3.38144 14.2396 3.44489C13.9302 3.47584 13.6497 3.61976 13.4264 3.8488C13.3944 3.8813 13.1954 4.14438 13.104 4.33937C13.0666 4.34246 13.0361 4.34478 13.0285 4.34478C12.9012 4.34633 12.7778 4.32544 12.6528 4.30145C12.4332 4.2589 12.2168 4.20396 11.998 4.29604C11.3845 4.55138 11.4218 5.53871 11.53 6.09428C11.6901 6.91525 12.152 7.63717 12.6406 8.27785C13.1398 8.93246 13.6741 9.5213 14.0933 10.2425C14.4881 10.9226 14.8441 11.6345 15.3829 12.1947C15.6261 12.573 16.1985 12.6698 16.4165 12.1119C16.7275 11.3164 16.5735 10.4421 16.4683 9.57856C16.4835 9.60255 16.4996 9.62731 16.5156 9.65129C16.8037 10.0931 17.0925 10.5303 17.4988 10.8607C17.8364 11.1362 18.4584 10.9474 18.4782 10.439C18.546 8.73206 18.498 6.6305 17.3738 5.27486C16.9881 4.80905 16.5133 4.40978 16.0201 4.08248Z" fill="#FFE68A"/>
<path d="M27.9065 15.5544C27.8974 15.5621 27.8882 15.5699 27.8791 15.5776C27.6375 15.778 27.3898 16.062 27.0658 16.0627C26.7609 16.0635 26.4096 15.8329 26.4888 15.446C26.6138 14.8317 27.3349 14.4541 27.7678 14.0726C28.1337 13.7492 28.4744 13.4095 28.7571 13.0025C29.2007 12.3657 29.735 11.4805 30.4721 11.2073C31.2983 10.9009 31.7815 11.8047 31.4462 12.5351C31.123 13.2385 30.4927 13.8126 29.9431 14.3117C29.3547 14.8448 28.6504 15.2828 27.9065 15.5544Z" fill="#FFE68A"/>
<path d="M27.5294 24.5382C27.4509 24.4886 27.4013 24.4244 27.3769 24.3548C26.9318 24.1381 26.912 23.4603 27.3876 23.2057C27.6711 23.0541 28.0766 23.1492 28.3785 23.1694C28.9692 23.2088 29.556 23.1701 30.1452 23.1214C31.2763 23.0278 32.3533 22.89 33.3876 22.49C34.7641 21.9584 37.2184 20.8465 38.1391 22.7144C38.5743 23.5965 38.5042 24.7246 38.2763 25.6617C38.0431 26.618 37.6185 27.5853 36.8282 28.1594C35.3815 29.2094 33.5858 28.5989 32.1719 27.812C30.5141 26.8889 29.1292 25.5487 27.5294 24.5382Z" fill="#FFE68A"/>
<path d="M29.5569 29.2902C29.1346 28.6604 28.752 28.0019 28.3823 27.3364C28.2588 27.1144 28.1422 26.8722 28.0203 26.6354C27.7123 26.3383 27.409 25.9986 27.3107 25.6171C27.1643 25.0499 27.6613 24.6538 28.1346 24.9532C28.3785 25.108 28.5447 25.3695 28.7398 25.5846C28.9319 25.7966 29.1392 25.9947 29.3457 26.1913C29.8099 26.6308 30.2924 27.0486 30.7558 27.4889C31.6194 28.3075 32.5195 29.2438 32.8556 30.4578C32.9395 30.7611 32.8594 31.131 32.5454 31.2517C31.2634 31.7446 30.1963 30.245 29.5569 29.2902Z" fill="#FFE68A"/>
<path d="M26.9089 28.7934C26.367 28.1566 25.646 27.4424 25.4478 26.5859C25.3487 26.1572 25.9051 25.8717 26.1978 26.1301C26.524 26.4172 26.7451 26.8164 27.008 27.1654C27.2786 27.5244 27.5629 27.8726 27.8388 28.2263C28.3815 28.9203 28.9554 29.6361 29.2367 30.5011C29.383 30.9515 28.8259 31.3314 28.5393 30.9275C28.0172 30.1924 27.4905 29.4767 26.9089 28.7934Z" fill="#FFE68A"/>
<path d="M32.162 16.7616C32.7923 16.4204 33.3754 16.018 33.9471 15.5785C34.5347 15.1274 35.1147 14.6964 35.832 14.5262C36.1788 14.4434 36.5949 14.8574 36.4981 15.2381C36.1079 16.7732 34.7031 17.8162 33.4044 18.4554C33.5339 18.4894 33.6605 18.5227 33.7839 18.556C34.8297 18.8369 35.7748 19.2794 36.6818 19.8977C37.1658 20.2273 36.7862 21.0823 36.2489 20.981C33.8952 20.5384 31.5202 20.0888 29.2306 19.3545C28.8724 19.3978 28.5195 19.3653 28.2092 19.1611C27.9943 19.0202 27.9699 18.6295 28.1285 18.4376C28.6071 17.8565 29.5309 17.8433 30.191 17.6228C30.8701 17.3961 31.5278 17.1052 32.162 16.7616Z" fill="#FFE68A"/>
</svg>
