<svg width="91" height="51" viewBox="0 0 91 51" fill="none" xmlns="http://www.w3.org/2000/svg">
<path d="M49.564 18.331H52.205C52.3451 18.331 52.4794 18.2754 52.5784 18.1764C52.6774 18.0774 52.733 17.9431 52.733 17.803V14.244C52.7334 14.1106 52.6831 13.982 52.5924 13.8842C52.5016 13.7864 52.3771 13.7266 52.244 13.717C51.4 13.658 49.763 13.577 48.582 13.577C45.338 13.577 43.226 15.521 43.226 19.053V22.553H39.526C39.4567 22.553 39.388 22.5667 39.324 22.5932C39.2599 22.6198 39.2017 22.6586 39.1527 22.7077C39.1037 22.7567 39.0648 22.8149 39.0382 22.879C39.0117 22.943 38.998 23.0117 38.998 23.081V26.781C38.998 26.8504 39.0117 26.919 39.0382 26.9831C39.0648 27.0471 39.1037 27.1053 39.1527 27.1544C39.2017 27.2034 39.2599 27.2423 39.324 27.2688C39.388 27.2954 39.4567 27.309 39.526 27.309H43.226V37.346C43.226 37.4861 43.2817 37.6204 43.3807 37.7194C43.4797 37.8184 43.614 37.874 43.754 37.874H47.454C47.5941 37.874 47.7284 37.8184 47.8274 37.7194C47.9264 37.6204 47.982 37.4861 47.982 37.346V27.31H51.797C51.9271 27.3101 52.0525 27.2621 52.1494 27.1754C52.2463 27.0887 52.3078 26.9693 52.322 26.84L52.733 23.14C52.7412 23.0662 52.7337 22.9915 52.711 22.9208C52.6884 22.8501 52.651 22.785 52.6015 22.7297C52.552 22.6744 52.4913 22.6302 52.4235 22.5999C52.3557 22.5696 52.2823 22.554 52.208 22.554H47.979V19.915C47.9793 19.4948 48.1464 19.0919 48.4436 18.7949C48.7409 18.4979 49.1439 18.331 49.564 18.331Z" fill="#3F51B4"/>
</svg>
