<svg width="91" height="51" viewBox="0 0 91 51" fill="none" xmlns="http://www.w3.org/2000/svg">
<path d="M58.5679 23.381H57.5289V23.328H45.9099V28.492H53.2099C52.6579 30.0596 51.6167 31.4084 50.24 32.3394C48.8632 33.2704 47.2237 33.7344 45.5632 33.6628C43.9028 33.5913 42.3093 32.9881 41.0177 31.9421C39.7261 30.8961 38.8048 29.4628 38.3897 27.8535C37.9746 26.2442 38.0876 24.5441 38.7121 23.0038C39.3366 21.4636 40.4395 20.1649 41.8581 19.2991C43.2768 18.4333 44.9362 18.0463 46.5915 18.1952C48.2468 18.3441 49.8104 19.0209 51.0519 20.126L54.6999 16.475C52.4501 14.3879 49.529 13.1726 46.4628 13.0481C43.3965 12.9236 40.3865 13.8979 37.9749 15.7957C35.5633 17.6935 33.9085 20.39 33.3086 23.3996C32.7087 26.4092 33.203 29.534 34.7027 32.2115C36.2023 34.8889 38.6086 36.9429 41.4882 38.0036C44.3679 39.0643 47.5316 39.062 50.4097 37.9971C53.2878 36.9321 55.6911 34.8746 57.1868 32.1949C58.6824 29.5153 59.1722 26.3897 58.5679 23.381Z" fill="#FFC107"/>
<path d="M34.4829 19.9L38.7269 23.012C39.1893 21.8604 39.9222 20.8371 40.8637 20.0286C41.8051 19.2201 42.9274 18.6502 44.1356 18.367C45.3438 18.0839 46.6024 18.0958 47.805 18.4018C49.0077 18.7077 50.119 19.2988 51.0449 20.125L54.6959 16.474C53.2469 15.1183 51.5043 14.1157 49.604 13.5443C47.7037 12.9728 45.6971 12.848 43.7407 13.1796C41.7843 13.5113 39.9309 14.2903 38.325 15.456C36.7192 16.6217 35.4043 18.1425 34.4829 19.9Z" fill="#FF3D00"/>
<path d="M45.9099 38.821C49.1118 38.822 52.1988 37.6281 54.5669 35.473L50.5669 32.092C49.5997 32.8251 48.4734 33.32 47.2792 33.5366C46.085 33.7532 44.8567 33.6854 43.6936 33.3387C42.5305 32.992 41.4655 32.3761 40.5849 31.541C39.7043 30.7059 39.0328 29.675 38.6249 28.532L34.4219 31.773C35.5009 33.8927 37.1449 35.6728 39.1722 36.9166C41.1996 38.1604 43.5314 38.8195 45.9099 38.821Z" fill="#4CAF50"/>
<path d="M58.5677 23.381H57.5287V23.328H45.9097V28.492H53.2097C52.7002 29.9241 51.7824 31.1756 50.5697 32.092L54.5697 35.473C55.9273 34.2816 57.0105 32.8102 57.7449 31.16C58.4793 29.5098 58.8473 27.7201 58.8237 25.914C58.8222 25.0633 58.7365 24.2148 58.5677 23.381Z" fill="#1976D2"/>
</svg>
