<svg width="29" height="28" viewBox="0 0 29 28" fill="none" xmlns="http://www.w3.org/2000/svg">
<path d="M25.8523 13.0974C25.9022 13.7126 25.6405 14.0594 25.0754 14.1131C24.5102 14.1668 24.0113 13.7114 23.962 13.0955C23.9126 12.4797 24.331 11.9365 24.8961 11.8828C25.4618 11.8285 25.8029 12.4816 25.8523 13.0974Z" fill="#E4A480"/>
<mask id="mask0_46_3801" style="mask-type:luminance" maskUnits="userSpaceOnUse" x="0" y="0" width="29" height="28">
<path d="M0 0H28.6666V28H0V0Z" fill="white"/>
</mask>
<g mask="url(#mask0_46_3801)">
<path d="M14.3197 0.00390625C22.2064 0.00390625 28.6072 4.82258 28.6072 13.4121C28.6072 22.0016 22.2064 27.997 14.3197 27.997C6.43302 27.997 0.0322266 22.0016 0.0322266 13.4121C0.0322266 4.82258 6.43302 0.00390625 14.3197 0.00390625Z" fill="#F1C8AA"/>
</g>
<path d="M13.9287 19.6625C15.3079 20.0093 15.8608 20.951 15.5423 22.4524C15.2243 23.9544 13.8469 24.8918 12.4678 24.545C11.0886 24.1982 10.2282 22.6981 10.5467 21.1968C10.8647 19.6947 12.5502 19.3158 13.9287 19.6625Z" fill="#E4A480"/>
<path d="M21.7254 15.7952C23.1394 16.1508 23.7068 17.1166 23.3802 18.6565C23.0535 20.197 21.6413 21.1584 20.2268 20.8028C18.8128 20.4472 17.9297 18.9085 18.2564 17.3686C18.5831 15.8281 20.3109 15.4396 21.7254 15.7952Z" fill="#D39F81"/>
<path d="M6.87981 16.5231C7.75302 16.5901 7.90329 18.0479 7.84237 18.9984C7.78145 19.949 7.0237 20.6666 6.1505 20.6003C5.27787 20.5339 4.61877 19.7084 4.67969 18.7578C4.74119 17.8072 6.00719 16.4568 6.87981 16.5231Z" fill="#E4A480"/>
<path d="M18.9211 9.26074C19.7496 9.45212 20.0896 10.0092 19.9132 10.9118C19.7374 11.8138 18.9222 12.3904 18.0937 12.1991C17.2652 12.0071 16.7354 11.119 16.9118 10.217C17.0876 9.31443 18.0925 9.06873 18.9211 9.26074Z" fill="#E4A480"/>
<path d="M8.65916 6.6587C9.73369 6.92903 10.0998 8.51189 9.85148 9.68166C9.60373 10.8521 8.53035 11.5822 7.45582 11.3119C6.38129 11.0422 5.71057 9.87304 5.9589 8.70264C6.20665 7.53287 7.58463 6.38836 8.65916 6.6587Z" fill="#D39F81"/>
<path d="M14.761 13.083C14.8104 13.6988 14.5493 14.0449 13.9836 14.0992C13.4185 14.1529 12.9195 13.6969 12.8702 13.0811C12.8208 12.4659 13.2392 11.922 13.8049 11.8683C14.37 11.8146 14.7111 12.4677 14.761 13.083Z" fill="#E4A480"/>
<path d="M18.6311 2.47125C19.8124 3.12688 20.1187 4.11916 19.5171 5.40578C18.9154 6.69178 18.7593 5.53464 17.5786 4.87901C16.3973 4.22338 14.6364 4.31749 15.2381 3.03087C15.8403 1.74488 17.4504 1.81625 18.6311 2.47125Z" fill="#E4A480"/>
</svg>
