<svg width="40" height="40" viewBox="0 0 40 40" fill="none" xmlns="http://www.w3.org/2000/svg">
<mask id="mask0_46_3373" style="mask-type:luminance" maskUnits="userSpaceOnUse" x="0" y="0" width="40" height="40">
<path d="M0 0H40V40H0V0Z" fill="white"/>
</mask>
<g mask="url(#mask0_46_3373)">
<path d="M39.9809 19.9991C39.9809 20.3263 39.9728 20.6526 39.9573 20.9797C39.9411 21.3061 39.9167 21.6324 39.8851 21.9579C39.8526 22.2834 39.8128 22.6082 39.7649 22.9312C39.717 23.2551 39.661 23.5774 39.5968 23.898C39.5335 24.2187 39.462 24.5377 39.3825 24.8551C39.3029 25.1724 39.216 25.4874 39.121 25.8007C39.026 26.1132 38.9237 26.4241 38.8133 26.7317C38.7028 27.0401 38.5851 27.3453 38.46 27.6472C38.335 27.9491 38.2026 28.2486 38.063 28.544C37.9233 28.8394 37.7764 29.1316 37.6221 29.4205C37.4678 29.7086 37.307 29.9934 37.1389 30.2734C36.9709 30.5541 36.7963 30.8308 36.6144 31.1026C36.4325 31.3744 36.2441 31.6414 36.0493 31.9042C35.8552 32.1671 35.6538 32.425 35.4468 32.6781C35.2389 32.9304 35.0253 33.1778 34.8061 33.4203C34.5861 33.6628 34.3611 33.8997 34.1297 34.1308C33.8983 34.3619 33.662 34.5881 33.4201 34.807C33.1773 35.0268 32.9296 35.2408 32.6771 35.4483C32.4246 35.6558 32.1672 35.8569 31.9041 36.0514C31.6418 36.2467 31.3747 36.4347 31.1026 36.6161C30.8306 36.7984 30.5546 36.9734 30.2744 37.141C29.9935 37.3095 29.7093 37.4706 29.421 37.6252C29.1328 37.7791 28.8405 37.9264 28.5449 38.0655C28.2493 38.2055 27.9505 38.3381 27.6485 38.4635C27.3464 38.5888 27.0419 38.706 26.7342 38.8167C26.4256 38.9265 26.1154 39.0291 25.8028 39.1243C25.4902 39.2195 25.1752 39.3066 24.8577 39.3855C24.541 39.4653 24.2219 39.5369 23.9012 39.6003C23.5804 39.6646 23.2581 39.7208 22.9349 39.7688C22.6117 39.8168 22.2869 39.8567 21.9621 39.8884C21.6365 39.921 21.3101 39.9446 20.9837 39.9609C20.6573 39.9771 20.3309 39.9845 20.0036 39.9845C19.6764 39.9845 19.35 39.9771 19.0236 39.9609C18.6971 39.9446 18.3707 39.921 18.0459 39.8884C17.7203 39.8567 17.3955 39.8168 17.0724 39.7688C16.7492 39.7208 16.4268 39.6646 16.1061 39.6003C15.7854 39.5369 15.4671 39.4653 15.1496 39.3855C14.8321 39.3066 14.517 39.2195 14.2044 39.1243C13.8918 39.0291 13.5816 38.9265 13.2731 38.8167C12.9653 38.706 12.6609 38.5888 12.3588 38.4635C12.0567 38.3381 11.7579 38.2055 11.4624 38.0655C11.1668 37.9264 10.8745 37.7791 10.5862 37.6252C10.298 37.4706 10.0138 37.3095 9.73283 37.141C9.4527 36.9734 9.17662 36.7984 8.90461 36.6161C8.63259 36.4347 8.36545 36.2467 8.10318 36.0514C7.84091 35.8569 7.5827 35.6558 7.33017 35.4483C7.07764 35.2408 6.82999 35.0268 6.58802 34.807C6.34523 34.5881 6.10895 34.3619 5.87753 34.1308C5.64611 33.8997 5.42119 33.6628 5.20115 33.4203C4.98191 33.1778 4.76836 32.9304 4.5613 32.6781C4.35343 32.425 4.15206 32.1671 3.958 31.9042C3.76312 31.6414 3.57474 31.3744 3.39286 31.1026C3.21178 30.8308 3.0364 30.5541 2.86831 30.2734C2.70023 29.9934 2.53946 29.7086 2.38518 29.4205C2.23091 29.1316 2.08394 28.8394 1.94428 28.544C1.80461 28.2486 1.67226 27.9491 1.54721 27.6472C1.42217 27.3453 1.30443 27.0401 1.194 26.7317C1.08357 26.4241 0.981261 26.1132 0.886259 25.8007C0.791257 25.4874 0.704375 25.1724 0.6248 24.8551C0.545225 24.5377 0.473771 24.2187 0.410436 23.898C0.346289 23.5774 0.290262 23.2551 0.242355 22.9312C0.194448 22.6082 0.154661 22.2834 0.122181 21.9579C0.0905139 21.6324 0.0661545 21.3061 0.0507267 20.9797C0.034487 20.6526 0.0263672 20.3263 0.0263672 19.9991C0.0263672 19.672 0.034487 19.3448 0.0507267 19.0185C0.0661545 18.6913 0.0905139 18.365 0.122181 18.0395C0.154661 17.7139 0.194448 17.3901 0.242355 17.0662C0.290262 16.7431 0.346289 16.4208 0.410436 16.0994C0.473771 15.7787 0.545225 15.4597 0.6248 15.1423C0.704375 14.825 0.791257 14.51 0.886259 14.1975C0.981261 13.8842 1.08357 13.5733 1.194 13.2657C1.30443 12.9581 1.42217 12.6529 1.54721 12.3502C1.67226 12.0483 1.80461 11.7496 1.94428 11.4534C2.08394 11.158 2.23091 10.8658 2.38518 10.5777C2.53946 10.2888 2.70023 10.0048 2.86831 9.72404C3.0364 9.44328 3.21178 9.1674 3.39286 8.89559C3.57474 8.62297 3.76312 8.35604 3.958 8.09318C4.15206 7.83032 4.35343 7.57235 4.5613 7.32007C4.76836 7.06698 4.98191 6.81958 5.20115 6.57707C5.42119 6.33455 5.64611 6.09774 5.87753 5.86662C6.10895 5.6355 6.34523 5.41008 6.58802 5.19035C6.82999 4.97062 7.07764 4.75659 7.33017 4.54907C7.5827 4.34237 7.84091 4.14054 8.10318 3.94605C8.36545 3.75073 8.63259 3.56274 8.90461 3.38127C9.17662 3.19979 9.4527 3.02482 9.73283 2.85636C10.0138 2.68791 10.298 2.52677 10.5862 2.37297C10.8745 2.21834 11.1668 2.07186 11.4624 1.93188C11.7579 1.79191 12.0567 1.65926 12.3588 1.53394C12.6609 1.40942 12.9653 1.29142 13.2731 1.18156C13.5816 1.07088 13.8918 0.968343 14.2044 0.873128C14.517 0.778727 14.8321 0.69165 15.1496 0.611898C15.4671 0.532145 15.7854 0.460531 16.1061 0.397054C16.4268 0.332764 16.7492 0.277425 17.0724 0.229411C17.3955 0.181397 17.7203 0.14152 18.0459 0.108968C18.3707 0.0772298 18.6971 0.0528158 19.0236 0.0365397C19.35 0.0210774 19.6764 0.0129395 20.0036 0.0129395C20.3309 0.0129395 20.6573 0.0210774 20.9837 0.0365397C21.3101 0.0528158 21.6365 0.0772298 21.9621 0.108968C22.2869 0.14152 22.6117 0.181397 22.9349 0.229411C23.2581 0.277425 23.5804 0.332764 23.9012 0.397054C24.2219 0.460531 24.541 0.532145 24.8577 0.611898C25.1752 0.69165 25.4902 0.778727 25.8028 0.873128C26.1154 0.968343 26.4256 1.07088 26.7342 1.18156C27.0419 1.29142 27.3464 1.40942 27.6485 1.53394C27.9505 1.65926 28.2493 1.79191 28.5449 1.93188C28.8405 2.07186 29.1328 2.21834 29.421 2.37297C29.7093 2.52677 29.9935 2.68791 30.2744 2.85636C30.5546 3.02482 30.8306 3.19979 31.1026 3.38127C31.3747 3.56274 31.6418 3.75073 31.9041 3.94605C32.1672 4.14054 32.4246 4.34237 32.6771 4.54907C32.9296 4.75659 33.1773 4.97062 33.4201 5.19035C33.662 5.41008 33.8983 5.6355 34.1297 5.86662C34.3611 6.09774 34.5861 6.33455 34.8061 6.57707C35.0253 6.81958 35.2389 7.06698 35.4468 7.32007C35.6538 7.57235 35.8552 7.83032 36.0493 8.09318C36.2441 8.35604 36.4325 8.62297 36.6144 8.89559C36.7963 9.1674 36.9709 9.44328 37.1389 9.72404C37.307 10.0048 37.4678 10.2888 37.6221 10.5777C37.7764 10.8658 37.9233 11.158 38.063 11.4534C38.2026 11.7496 38.335 12.0483 38.46 12.3502C38.5851 12.6529 38.7028 12.9581 38.8133 13.2657C38.9237 13.5733 39.026 13.8842 39.121 14.1975C39.216 14.51 39.3029 14.825 39.3825 15.1423C39.462 15.4597 39.5335 15.7787 39.5968 16.0994C39.661 16.4208 39.717 16.7431 39.7649 17.0662C39.8128 17.3901 39.8526 17.7139 39.8851 18.0395C39.9167 18.365 39.9411 18.6913 39.9573 19.0185C39.9728 19.3448 39.9809 19.672 39.9809 19.9991Z" fill="#F1F2F2"/>
</g>
<path d="M1.19854 22.1493C1.15389 22.1493 1.11004 22.1411 1.06782 22.1249C1.02559 22.1086 0.987429 22.085 0.954137 22.0549C0.920846 22.0248 0.89405 21.9889 0.873751 21.9483C0.854263 21.9084 0.842084 21.8652 0.838024 21.8205V21.8164C0.829904 21.718 0.857511 21.6301 0.919222 21.5536C0.93871 21.5308 0.959821 21.5104 0.984181 21.4925C1.00773 21.4746 1.03371 21.4608 1.06132 21.4494C1.08893 21.438 1.11735 21.4307 1.14739 21.4258C1.17662 21.4217 1.20585 21.4217 1.2359 21.4242C1.26513 21.4274 1.29436 21.4339 1.32197 21.4445C1.35039 21.4543 1.37637 21.4681 1.40154 21.4844C1.4259 21.5015 1.44864 21.521 1.46812 21.543C1.48842 21.565 1.50548 21.5894 1.51928 21.6154C1.53308 21.6423 1.54364 21.6699 1.55095 21.6984C1.55825 21.7277 1.5615 21.757 1.5615 21.7871C1.5615 21.8164 1.55744 21.8457 1.55013 21.875C1.54283 21.9035 1.53227 21.9312 1.51765 21.958C1.50385 21.9841 1.4868 22.0085 1.4665 22.0305C1.44701 22.0524 1.42428 22.072 1.39911 22.0882C1.37475 22.1045 1.34795 22.1175 1.32034 22.1281C1.29192 22.1379 1.2635 22.1444 1.23346 22.1468C1.22209 22.1468 1.20991 22.1493 1.19854 22.1493ZM1.11897 20.6983C1.07188 20.6974 1.0264 20.6885 0.981745 20.6706C0.937898 20.6527 0.899734 20.6266 0.865631 20.5941C0.831528 20.5607 0.805544 20.5225 0.786056 20.4785C0.767381 20.4354 0.757637 20.3898 0.756013 20.3418C0.754389 20.2425 0.751953 20.1335 0.751953 19.9992C0.752765 19.6265 0.763321 19.2538 0.785245 18.8818C0.807168 18.5099 0.839648 18.1388 0.882683 17.7686C0.925718 17.3983 0.980121 17.0296 1.04427 16.6626C1.10923 16.2956 1.18474 15.931 1.27 15.568C1.35607 15.2059 1.45188 14.8454 1.55907 14.4889C1.66544 14.1317 1.78236 13.7777 1.90984 13.4277C2.03733 13.077 2.17455 12.7311 2.32152 12.3885C2.46849 12.0459 2.62601 11.7082 2.79247 11.3753C2.95974 11.0425 3.13594 10.7137 3.32189 10.3915C3.50783 10.0684 3.70271 9.75099 3.90733 9.4393C4.11113 9.12762 4.32469 8.82244 4.54636 8.52296C4.76884 8.22348 4.99945 7.93133 5.23817 7.64487C5.47689 7.35923 5.72455 7.0809 5.97951 6.80909C6.23447 6.53728 6.49756 6.27361 6.76795 6.01727C7.03834 5.76092 7.31604 5.51271 7.60105 5.27264C7.88605 5.03256 8.17755 4.80063 8.47555 4.57765C8.77436 4.35467 9.07886 4.13982 9.38904 3.93475C9.70003 3.72885 10.0167 3.53273 10.3382 3.34555C10.6606 3.15838 10.9878 2.98016 11.3207 2.81251C11.6528 2.64406 11.9898 2.48536 12.3317 2.33725C12.6735 2.18833 13.0186 2.04998 13.3686 1.9214C13.7185 1.79282 14.0709 1.67482 14.4274 1.56658C14.7847 1.45835 15.1436 1.36069 15.5057 1.27361C15.8679 1.18654 16.2324 1.11004 16.5986 1.04412C16.9657 0.977388 17.3343 0.92205 17.7038 0.878105C18.0732 0.833346 18.4443 0.799166 18.8162 0.776379C19.1881 0.752779 19.56 0.740572 19.9327 0.738945C20.3054 0.737317 20.6772 0.747083 21.0491 0.766614C21.4218 0.786959 21.7929 0.817883 22.1624 0.859387C22.5326 0.900891 22.9013 0.953788 23.2691 1.01645C23.6361 1.07993 24.0007 1.15317 24.3637 1.23781C24.7266 1.32163 25.0871 1.41603 25.4444 1.52182C25.4907 1.53566 25.5321 1.55763 25.5695 1.58774C25.6068 1.61866 25.6369 1.65447 25.6596 1.69679C25.6831 1.73911 25.6969 1.78468 25.7018 1.83269C25.7067 1.88071 25.7026 1.9271 25.6888 1.97348C25.675 2.01906 25.6523 2.06056 25.6222 2.09718C25.5922 2.13462 25.5557 2.16473 25.5134 2.18751C25.472 2.2103 25.4274 2.22413 25.3795 2.22983C25.3324 2.23553 25.2853 2.23146 25.239 2.21844C24.8955 2.11753 24.5488 2.02719 24.1996 1.94663C23.8505 1.86525 23.4989 1.79445 23.1457 1.73422C22.7925 1.674 22.4376 1.62355 22.082 1.58367C21.7255 1.54379 21.3682 1.5145 21.011 1.49578C20.6529 1.47625 20.2948 1.4673 19.9359 1.46893C19.5778 1.47055 19.2197 1.48276 18.8625 1.50555C18.5044 1.52752 18.1479 1.56088 17.7923 1.6032C17.4358 1.64633 17.0818 1.70004 16.7294 1.76352C16.3762 1.827 16.0262 1.90105 15.6779 1.98488C15.3287 2.06951 14.9836 2.1631 14.6401 2.26727C14.2975 2.37143 13.9581 2.48536 13.6211 2.60906C13.2849 2.73276 12.9528 2.86622 12.624 3.00864C12.2951 3.15187 11.9711 3.30405 11.6512 3.466C11.3313 3.62794 11.0163 3.79884 10.7069 3.9795C10.3967 4.15936 10.0922 4.34816 9.7934 4.54591C9.49459 4.74366 9.20147 4.95037 8.91484 5.1644C8.62739 5.37924 8.34726 5.60223 8.07281 5.83335C7.79917 6.06447 7.53203 6.30291 7.27138 6.54949C7.01154 6.79607 6.7582 7.04998 6.51299 7.31121C6.26695 7.57244 6.02985 7.84018 5.79925 8.11525C5.56946 8.39031 5.34779 8.67189 5.13424 8.95997C4.92068 9.24806 4.71525 9.54184 4.51875 9.84132C4.32225 10.1408 4.13387 10.446 3.95523 10.7568C3.7766 11.0677 3.60689 11.3827 3.44612 11.7033C3.28535 12.0239 3.1335 12.3486 2.99222 12.6782C2.85012 13.0078 2.71777 13.3407 2.59516 13.6776C2.47336 14.0145 2.36049 14.3547 2.25737 14.6981C2.15506 15.0415 2.06168 15.3874 1.97886 15.7365C1.89604 16.0856 1.82377 16.4364 1.76125 16.7896C1.69873 17.1428 1.64676 17.4968 1.60535 17.8532C1.56313 18.2097 1.53146 18.5661 1.51035 18.9242C1.48924 19.2822 1.47868 19.6403 1.47787 19.9992C1.47787 20.1009 1.4803 20.2075 1.48193 20.3296C1.48274 20.3776 1.47381 20.424 1.45676 20.4688C1.43889 20.5135 1.41291 20.5534 1.37962 20.5876C1.34633 20.6226 1.30735 20.6494 1.26269 20.6681C1.21884 20.6877 1.17256 20.6974 1.12465 20.6983H1.11897Z" fill="white"/>
<path d="M36.1744 15.4768C32.4116 16.101 28.8966 17.7286 25.4797 19.4238C22.0629 21.1189 18.6558 22.9142 14.9751 23.9135C13.779 24.2334 12.5667 24.4669 11.3382 24.615C10.1097 24.7631 8.87707 24.8234 7.63961 24.7965C6.40214 24.7696 5.1728 24.6557 3.95239 24.4547C2.73116 24.2537 1.53024 23.9672 0.349609 23.5961C0.409696 23.9233 0.478715 24.2496 0.555042 24.5735C0.631368 24.8982 0.715814 25.2197 0.809193 25.5403C0.901759 25.8601 1.00245 26.1775 1.11044 26.4925C1.21925 26.8074 1.33536 27.1191 1.45959 27.4283C1.58383 27.7376 1.71537 28.0436 1.85503 28.3455C1.99469 28.6482 2.14085 28.9469 2.29594 29.2423C2.45021 29.5377 2.6118 29.8291 2.78069 30.1155C2.94958 30.4028 3.12497 30.686 3.30848 30.9643C3.49118 31.2426 3.68118 31.5161 3.87768 31.7846C4.075 32.0532 4.27799 32.3168 4.48748 32.5756C4.69779 32.8344 4.91378 33.0875 5.13626 33.3357C5.35874 33.5831 5.58772 33.8256 5.82239 34.0616C6.05705 34.2985 6.2974 34.5288 6.54343 34.7526C6.78946 34.9772 7.04118 35.1953 7.29776 35.4069C7.55516 35.6184 7.81743 35.8243 8.08458 36.0229C8.35172 36.2215 8.62373 36.4135 8.90062 36.5983C9.17751 36.783 9.45927 36.9612 9.74509 37.1321C10.0309 37.303 10.3208 37.4666 10.6147 37.6237C10.9087 37.7799 11.2067 37.9288 11.5079 38.0704C11.8092 38.212 12.1136 38.3463 12.4222 38.4724C12.7299 38.5986 13.0409 38.7174 13.3552 38.8281C13.6694 38.9388 13.9861 39.0421 14.3052 39.1365C14.6243 39.2317 14.9458 39.3188 15.269 39.3977C15.593 39.4759 15.9178 39.5467 16.245 39.6093C16.5723 39.672 16.9003 39.7265 17.23 39.7729C17.5604 39.8193 17.8909 39.8567 18.2222 39.8868C18.5543 39.9161 18.8864 39.9373 19.2193 39.9503C19.5514 39.9633 19.8843 39.9682 20.2173 39.9641C20.551 39.9609 20.8831 39.9487 21.216 39.9283C21.5481 39.908 21.8794 39.8795 22.2107 39.8429C22.5412 39.8063 22.8716 39.7607 23.1997 39.7078C23.5285 39.6541 23.8558 39.5922 24.1814 39.5231C24.507 39.4531 24.831 39.375 25.1525 39.2895C25.474 39.2032 25.794 39.1097 26.1106 39.0079C26.4273 38.9054 26.7424 38.7963 27.0534 38.6783C27.3652 38.5612 27.6737 38.4358 27.979 38.3024C28.2843 38.1697 28.5856 38.0289 28.8844 37.8808C29.1824 37.7327 29.4763 37.5773 29.767 37.4145C30.0577 37.2509 30.3435 37.0817 30.6261 36.9043C30.9078 36.7268 31.1855 36.5429 31.4584 36.3517C31.7312 36.1604 31.9983 35.9627 32.2614 35.7584C32.5245 35.5542 32.7819 35.3434 33.0344 35.1261C33.287 34.9088 33.5338 34.685 33.775 34.4555C34.0161 34.2252 34.2516 33.99 34.4806 33.7483C34.7104 33.5074 34.9337 33.26 35.1505 33.0078C35.3673 32.7547 35.5784 32.4967 35.7822 32.2338C35.9868 31.971 36.1841 31.7024 36.3749 31.4298C36.5658 31.1564 36.7493 30.8789 36.9263 30.5965C37.1033 30.3141 37.273 30.0276 37.4354 29.7371C37.5978 29.4466 37.7537 29.152 37.9015 28.8533C38.0493 28.5546 38.1897 28.2527 38.3221 27.9475C38.4552 27.6416 38.5803 27.3331 38.6972 27.0214C38.815 26.7098 38.9246 26.3956 39.0261 26.0782C39.1276 25.7609 39.2209 25.441 39.307 25.1196C39.3923 24.7973 39.4702 24.4734 39.5392 24.1479C39.6091 23.8216 39.67 23.4944 39.7236 23.1656C39.7763 22.8369 39.8218 22.5065 39.8584 22.1761C39.8949 21.8448 39.9233 21.5128 39.9428 21.18C39.9631 20.8479 39.9745 20.5151 39.9785 20.1814C39.9818 19.8486 39.9769 19.5157 39.9639 19.1829C39.9501 18.8501 39.929 18.5172 39.899 18.186C39.8689 17.854 39.8307 17.5236 39.7845 17.1932C39.7382 16.8636 39.6838 16.5348 39.6204 16.2076C39.5579 15.8805 39.4873 15.555 39.4077 15.2319C38.3229 15.2172 37.2454 15.2994 36.1744 15.4768Z" fill="#FFD2C0"/>
<path d="M27.6121 17.6938C27.6121 17.9428 27.5999 18.1918 27.5756 18.44C27.5504 18.6882 27.5139 18.934 27.4659 19.179C27.4172 19.4231 27.3563 19.6648 27.2841 19.9032C27.2118 20.1417 27.1282 20.3761 27.0323 20.6064C26.9373 20.8367 26.831 21.0621 26.7132 21.2818C26.5963 21.5015 26.468 21.7148 26.33 21.9223C26.1911 22.1298 26.0433 22.33 25.885 22.5221C25.7267 22.7149 25.5594 22.8997 25.3832 23.0754C25.207 23.252 25.0227 23.4189 24.8302 23.5776C24.6378 23.7354 24.4381 23.8835 24.231 24.0227C24.0231 24.1611 23.8096 24.2888 23.5903 24.406C23.3703 24.524 23.1454 24.6306 22.9156 24.7258C22.685 24.821 22.4511 24.9049 22.2124 24.9773C21.9737 25.0497 21.7325 25.1099 21.4881 25.1588C21.2437 25.2076 20.9977 25.2442 20.7492 25.2686C20.5016 25.2931 20.2531 25.3053 20.0038 25.3053C19.7545 25.3053 19.5061 25.2931 19.2584 25.2686C19.0099 25.2442 18.7639 25.2076 18.5195 25.1588C18.2751 25.1099 18.0339 25.0497 17.7952 24.9773C17.5573 24.9049 17.3226 24.821 17.092 24.7258C16.8622 24.6306 16.6373 24.524 16.4173 24.406C16.198 24.2888 15.9845 24.1611 15.7774 24.0227C15.5696 23.8835 15.3698 23.7354 15.1774 23.5776C14.9849 23.4189 14.8006 23.252 14.6244 23.0754C14.4482 22.8997 14.2809 22.7149 14.1226 22.5221C13.9651 22.33 13.8165 22.1298 13.6776 21.9223C13.5396 21.7148 13.4113 21.5015 13.2944 21.2818C13.1766 21.0621 13.0703 20.8367 12.9753 20.6064C12.8795 20.3761 12.7958 20.1417 12.7235 19.9032C12.6513 19.6648 12.5904 19.4231 12.5417 19.179C12.4938 18.934 12.4572 18.6882 12.4329 18.44C12.4077 18.1918 12.3955 17.9428 12.3955 17.6938C12.3955 14.2725 17.4363 7.71493 19.312 5.39315C19.3534 5.34188 19.4005 5.29549 19.4525 5.25399C19.5044 5.2133 19.5605 5.1783 19.6205 5.14901C19.6798 5.12052 19.7423 5.09937 19.8073 5.08472C19.8723 5.07007 19.9372 5.06274 20.0038 5.06274C20.0704 5.06274 20.1362 5.07007 20.2003 5.08472C20.2653 5.09937 20.3278 5.12052 20.3871 5.14901C20.4472 5.1783 20.5032 5.2133 20.5551 5.25399C20.6071 5.29549 20.6542 5.34188 20.6956 5.39315C22.5713 7.71493 27.6121 14.2725 27.6121 17.6938Z" fill="#FFA91A"/>
<path d="M20.696 5.39274C20.6172 5.29427 20.5214 5.21696 20.4085 5.15918C20.2957 5.10221 20.1763 5.07048 20.0496 5.06396C22.3021 8.00586 25.7969 13.0278 25.7969 15.8778C25.7969 16.2244 25.7733 16.5703 25.7262 16.9146C25.6791 17.2588 25.6085 17.5981 25.5151 17.9318C25.4217 18.2663 25.3056 18.5934 25.1676 18.9116C25.0287 19.2298 24.8696 19.5374 24.6893 19.8345C24.5091 20.1315 24.3093 20.4139 24.0901 20.6833C23.8708 20.9526 23.6346 21.2057 23.3804 21.4434C23.1263 21.6802 22.8575 21.8983 22.5741 22.0985C22.2907 22.2987 21.9943 22.4785 21.6858 22.638C21.378 22.7975 21.0598 22.9359 20.7325 23.0514C20.4053 23.1678 20.0724 23.2606 19.7322 23.3314C19.3919 23.4014 19.0493 23.4486 18.7026 23.4714C18.3567 23.495 18.0099 23.495 17.664 23.4705C17.3173 23.4469 16.9747 23.3989 16.6344 23.3281C16.295 23.2565 15.9613 23.1629 15.6341 23.0457C15.3076 22.9294 14.9902 22.791 14.6824 22.6307C14.3739 22.4704 14.0783 22.2897 13.7949 22.0887C14.0271 22.4167 14.2829 22.7243 14.5631 23.0116C14.8432 23.2988 15.1444 23.5617 15.466 23.8009C15.7883 24.041 16.1269 24.2534 16.4826 24.439C16.8382 24.6253 17.2061 24.7816 17.5861 24.9093C17.9669 25.0371 18.355 25.134 18.7505 25.2007C19.1459 25.2666 19.5446 25.3016 19.9457 25.304C20.3468 25.3073 20.7455 25.2788 21.1426 25.2194C21.5388 25.1592 21.9286 25.068 22.311 24.9468C22.6927 24.8255 23.0637 24.6742 23.4218 24.4943C23.7799 24.3136 24.1226 24.1061 24.4482 23.8717C24.7738 23.6374 25.0791 23.3794 25.3633 23.0962C25.6483 22.8138 25.9089 22.5103 26.146 22.1864C26.3823 21.8625 26.5926 21.5223 26.7753 21.165C26.958 20.8078 27.1123 20.4383 27.2365 20.0566C27.3608 19.675 27.4549 19.286 27.5175 18.8896C27.5808 18.4933 27.6125 18.0946 27.6125 17.6934C27.6125 14.2721 22.5717 7.71452 20.696 5.39274Z" fill="#F79219"/>
<path d="M11.0991 25.9391C11.0991 26.0653 11.087 26.1898 11.0618 26.3135C11.0374 26.438 11.0009 26.5576 10.953 26.6748C10.9043 26.7912 10.845 26.9019 10.7752 27.0068C10.7053 27.1118 10.6258 27.2087 10.5364 27.2982C10.4471 27.3869 10.3497 27.4666 10.2449 27.5366C10.1402 27.6074 10.0298 27.666 9.91284 27.7148C9.79672 27.7629 9.67655 27.7995 9.55232 27.8239C9.4289 27.8483 9.30385 27.8613 9.17799 27.8613C9.05132 27.8613 8.92628 27.8483 8.80286 27.8239C8.67943 27.7995 8.55926 27.7629 8.44233 27.7148C8.32622 27.666 8.21498 27.6074 8.11023 27.5366C8.00549 27.4666 7.90805 27.3869 7.81954 27.2982C7.73022 27.2087 7.65065 27.1118 7.58001 27.0068C7.51018 26.9019 7.4509 26.7912 7.40299 26.6748C7.35427 26.5576 7.31773 26.438 7.29338 26.3135C7.26902 26.1898 7.25684 26.0653 7.25684 25.9391C7.25684 25.0749 8.52922 23.4188 9.0026 22.8328C9.02453 22.806 9.05051 22.7856 9.08055 22.771C9.11141 22.7563 9.14389 22.749 9.17799 22.749C9.21128 22.749 9.24376 22.7563 9.27462 22.771C9.30547 22.7856 9.33146 22.806 9.35257 22.8328C9.82596 23.4188 11.0991 25.0749 11.0991 25.9391Z" fill="#F79219"/>
<path d="M32.7515 25.9391C32.7515 26.0653 32.7393 26.1898 32.715 26.3135C32.6906 26.438 32.6541 26.5576 32.6053 26.6748C32.5574 26.7912 32.4982 26.9019 32.4283 27.0068C32.3577 27.1118 32.2781 27.2087 32.1888 27.2982C32.1003 27.3869 32.0028 27.4666 31.8981 27.5366C31.7933 27.6074 31.6821 27.666 31.566 27.7148C31.4491 27.7629 31.3289 27.7995 31.2055 27.8239C31.0821 27.8483 30.957 27.8613 30.8303 27.8613C30.7045 27.8613 30.5794 27.8483 30.456 27.8239C30.3318 27.7995 30.2116 27.7629 30.0955 27.7148C29.9786 27.666 29.8681 27.6074 29.7634 27.5366C29.6586 27.4666 29.5612 27.3869 29.4719 27.2982C29.3826 27.2087 29.303 27.1118 29.2332 27.0068C29.1633 26.9019 29.1041 26.7912 29.0553 26.6748C29.0074 26.5576 28.9709 26.438 28.9465 26.3135C28.9222 26.1898 28.9092 26.0653 28.9092 25.9391C28.9092 25.0749 30.1824 23.4188 30.6558 22.8328C30.6769 22.806 30.7029 22.7856 30.7337 22.771C30.7646 22.7563 30.797 22.749 30.8303 22.749C30.8644 22.749 30.8969 22.7563 30.9278 22.771C30.9578 22.7856 30.9838 22.806 31.0057 22.8328C31.4791 23.4188 32.7515 25.0749 32.7515 25.9391Z" fill="#F79219"/>
<path d="M21.9947 32.2094C21.9947 32.3355 21.9825 32.4609 21.9581 32.5846C21.9329 32.7083 21.8964 32.8287 21.8485 32.9451C21.7998 33.0614 21.7413 33.1721 21.6707 33.2771C21.6008 33.3821 21.5213 33.4797 21.432 33.5684C21.3426 33.658 21.246 33.7377 21.1404 33.8077C21.0357 33.8777 20.9253 33.9371 20.8083 33.9851C20.6922 34.0339 20.5721 34.0697 20.4486 34.095C20.3244 34.1194 20.1994 34.1316 20.0735 34.1316C19.9476 34.1316 19.8226 34.1194 19.6984 34.095C19.5749 34.0697 19.4548 34.0339 19.3387 33.9851C19.2217 33.9371 19.1113 33.8777 19.0057 33.8077C18.901 33.7377 18.8044 33.658 18.715 33.5684C18.6257 33.4797 18.5462 33.3821 18.4763 33.2771C18.4057 33.1721 18.3464 33.0614 18.2985 32.9451C18.2506 32.8287 18.2141 32.7083 18.1889 32.5846C18.1645 32.4609 18.1523 32.3355 18.1523 32.2094C18.1523 31.3451 19.4247 29.6899 19.8989 29.1031C19.92 29.0771 19.946 29.0559 19.9769 29.0413C20.0069 29.0266 20.0394 29.0193 20.0735 29.0193C20.1076 29.0193 20.1401 29.0266 20.1701 29.0413C20.201 29.0559 20.227 29.0771 20.2481 29.1031C20.7223 29.6899 21.9947 31.3451 21.9947 32.2094Z" fill="#F79219"/>
</svg>
