<?xml version="1.0" encoding="UTF-8"?>
<svg version="1.1" xmlns="http://www.w3.org/2000/svg" width="998" height="997">
<path d="M0 0 C329.34 0 658.68 0 998 0 C998 329.01 998 658.02 998 997 C668.66 997 339.32 997 0 997 C0 667.99 0 338.98 0 0 Z " fill="#F8B99E" transform="translate(0,0)"/>
<path d="M0 0 C143.22 0 286.44 0 434 0 C434 144.54 434 289.08 434 438 C433.67 438 433.34 438 433 438 C432.72119995 436.16562378 432.72119995 436.16562378 432.43676758 434.29418945 C431.72794446 429.64632803 431.00748127 425.00032657 430.28393555 420.35473633 C429.97554438 418.36464708 429.67008602 416.37410058 429.36791992 414.38305664 C427.24234082 400.39526069 424.48333216 386.71214944 421 373 C420.66762744 371.66719917 420.33571845 370.3342826 420.00439453 369.0012207 C417.68645532 359.77587807 414.72869875 350.76457538 411.72924805 341.74121094 C410.00306373 336.47896672 408.52544228 331.52106517 408 326 C407.34 326 406.68 326 406 326 C405.76216797 325.12601562 405.76216797 325.12601562 405.51953125 324.234375 C402.81401496 314.72769897 398.90607493 305.76902071 394.69921875 296.83984375 C394 295 394 295 394 292 C393.34 292 392.68 292 392 292 C391.74605469 291.27554687 391.49210937 290.55109375 391.23046875 289.8046875 C389.40972679 284.69024378 387.48063065 279.83722977 385 275 C385 274.34 385 273.68 385 273 C384.34 273 383.68 273 383 273 C382.3291288 271.3767313 381.66342971 269.75132422 381 268.125 C380.62875 267.22007812 380.2575 266.31515625 379.875 265.3828125 C379 263 379 263 379 261 C378.34 261 377.68 261 377 261 C376.33229146 259.66458293 375.66514905 258.32888126 375 256.9921875 C374.23718263 255.47251226 373.46453978 253.95776493 372.6875 252.4453125 C372.23375 251.55585938 371.78 250.66640625 371.3125 249.75 C370.87550781 248.89921875 370.43851563 248.0484375 369.98828125 247.171875 C369 245 369 245 369 243 C368.34 243 367.68 243 367 243 C365.6328125 241.05859375 365.6328125 241.05859375 364.125 238.4375 C363.59519531 237.52613281 363.06539062 236.61476562 362.51953125 235.67578125 C361.28054791 233.49402396 360.04550678 231.31013556 358.8125 229.125 C357.1472129 226.10687834 357.1472129 226.10687834 355.4375 223.9375 C354 222 354 222 352.4375 218.8125 C351.30124189 215.90358047 351.30124189 215.90358047 349 215 C348.07981088 213.36410824 347.16221471 211.72670341 346.2578125 210.08203125 C344.38535927 206.9825978 342.12293105 204.23319042 339.8671875 201.40625 C337.32073062 198.12462357 334.99839861 194.70407049 332.67578125 191.26171875 C330.95686686 188.94178534 329.05101022 187.02547897 327 185 C326.525625 184.195625 326.05125 183.39125 325.5625 182.5625 C323.73282842 179.56183861 321.51121832 177.44996909 319 175 C318.278125 174.0925 317.55625 173.185 316.8125 172.25 C315.19690923 169.92512612 315.19690923 169.92512612 313 169 C312.566875 168.236875 312.13375 167.47375 311.6875 166.6875 C310.12925022 163.87850352 310.12925022 163.87850352 307.5 162 C305 160 305 160 303.69995117 157.74560547 C301.63589321 154.41192806 299.07368699 151.80549182 296.30078125 149.0703125 C295.74690231 148.51689178 295.19302338 147.96347107 294.62236023 147.39328003 C293.45218631 146.22611697 292.27959313 145.06137496 291.10473633 143.89892578 C289.33037629 142.14269366 287.5640217 140.37872132 285.79882812 138.61328125 C277.46285442 130.30232614 268.97784479 122.5541728 259.49414062 115.56445312 C256.45806155 113.28106112 254.2189461 111.06107625 252 108 C251.030625 107.525625 250.06125 107.05125 249.0625 106.5625 C245.636841 104.8147148 244.37120806 102.96401008 242 100 C240.01679982 98.96708324 238.01652194 97.9662501 236 97 C234.66666667 95.66666667 233.33333333 94.33333333 232 93 C228.16034538 90.24704008 224.19883256 87.70366259 220.125 85.3125 C218 84 218 84 216.6171875 82.54296875 C214.84114826 80.84843856 213.227049 80.012295 211 79 C208.06125232 77.6642056 206.2594663 76.27702691 204 74 C202.65094652 73.18460824 201.27268222 72.41639879 199.875 71.6875 C196.59793316 69.92415123 193.50567703 68.04321595 190.4375 65.9375 C186.44525374 63.22499819 182.35839856 61.05584838 178 59 C176 58 174 57 172 56 C172 55.34 172 54.68 172 54 C170.80375 53.649375 169.6075 53.29875 168.375 52.9375 C163.46340272 51.31058159 158.97379388 49.05554559 154.37768555 46.69580078 C149.58169263 44.24845752 144.70911572 42.1328658 139.72265625 40.109375 C137.33418827 39.13616853 134.97723822 38.11949102 132.625 37.0625 C131.89667969 36.73894531 131.16835938 36.41539063 130.41796875 36.08203125 C128.66595018 35.29801002 126.91919145 34.50220021 125.17578125 33.69921875 C107.90729742 25.97110355 89.62112688 20.6912598 71.41259766 15.67480469 C69.13598917 15.03803623 66.87023035 14.37284471 64.60546875 13.6953125 C43.53740241 7.4662427 21.67864982 4.31506202 0 1 C0 0.67 0 0.34 0 0 Z " fill="#000000" transform="translate(564,0)"/>
<path d="M0 0 C0.33 0 0.66 0 1 0 C1 144.87 1 289.74 1 439 C-140.9 439 -282.8 439 -429 439 C-429 438.67 -429 438.34 -429 438 C-427.34677734 437.72736328 -427.34677734 437.72736328 -425.66015625 437.44921875 C-421.59736881 436.77751179 -417.53602558 436.09740255 -413.47509766 435.41455078 C-411.92827065 435.1554748 -410.38111958 434.89831782 -408.83349609 434.64404297 C-383.99014445 430.55996004 -359.79805939 424.17965678 -336 416 C-334.52130998 415.51936444 -333.04220452 415.04000315 -331.5625 414.5625 C-325.305562 412.476854 -319.15260815 410.09307252 -312.98828125 407.75097656 C-311.1624531 407.06135876 -309.33145527 406.38546902 -307.5 405.7109375 C-301.06524175 403.31337132 -294.9425223 400.60384965 -288.8515625 397.4296875 C-285.62192624 395.81044521 -282.32082323 394.42217864 -279 393 C-276.61580254 391.8522463 -274.24068458 390.68544194 -271.875 389.5 C-270.69679688 388.9121875 -269.51859375 388.324375 -268.3046875 387.71875 C-265.46152698 386.24003767 -262.73792017 384.66131427 -260 383 C-258.75818125 382.35889845 -257.50848656 381.73273069 -256.25 381.125 C-244.58569363 375.34735292 -233.78559234 368.25780484 -223 361 C-220 359 -220 359 -217 359 C-217 358.34 -217 357.68 -217 357 C-215.20963542 356.0234375 -213.41927083 355.046875 -211.62890625 354.0703125 C-209.83381685 353.08589976 -209.83381685 353.08589976 -209 351 C-207.61024048 350.18164987 -206.1877413 349.41827248 -204.75 348.6875 C-200.80966296 346.5743855 -198.12801291 344.21032904 -195 341 C-193.85370065 340.29889133 -192.68513298 339.63325775 -191.5 339 C-188.05831626 337.1496324 -185.73828617 334.80507364 -183 332 C-181.6813696 330.98069061 -180.34680404 329.98178239 -179 329 C-175.68928209 326.57752348 -172.86603316 323.94349351 -170 321 C-168.34106818 319.65705519 -166.67523395 318.32255312 -165 317 C-164.1646875 316.13375 -164.1646875 316.13375 -163.3125 315.25 C-162 314 -162 314 -160 314 C-160 313.34 -160 312.68 -160 312 C-158.49609375 310.484375 -158.49609375 310.484375 -156.4375 308.75 C-155.70917969 308.12867188 -154.98085938 307.50734375 -154.23046875 306.8671875 C-152.83962511 305.70287356 -151.44674296 304.54098514 -150.05078125 303.3828125 C-146.58291141 300.47912972 -143.81354069 297.5638182 -141 294 C-140.236875 293.401875 -139.47375 292.80375 -138.6875 292.1875 C-135.75080941 289.79717045 -133.46383509 287.20045217 -131.01171875 284.328125 C-128.76775717 281.73122965 -126.45063778 279.21144798 -124.125 276.6875 C-118.41875804 270.43157418 -112.70396513 264.05594769 -108 257 C-107.34 257 -106.68 257 -106 257 C-105.6596875 255.9171875 -105.6596875 255.9171875 -105.3125 254.8125 C-103.74648 251.45674285 -101.60817863 249.60817863 -99 247 C-98.505 246.01 -98.01 245.02 -97.5 244 C-96 241 -96 241 -93.75 238.8125 C-90.44277865 235.43011453 -88.19630619 231.74773674 -85.74609375 227.71875 C-83.99063422 224.98541704 -82.03005106 222.53233174 -80 220 C-78.95548562 218.02288349 -77.94301862 216.02749004 -77 214 C-76.34 214 -75.68 214 -75 214 C-74.6596875 213.0409375 -74.6596875 213.0409375 -74.3125 212.0625 C-72.51258453 207.86269724 -70.26485266 203.96349216 -68 200 C-67.443125 198.989375 -66.88625 197.97875 -66.3125 196.9375 C-65.879375 196.298125 -65.44625 195.65875 -65 195 C-64.34 195 -63.68 195 -63 195 C-62.82984375 194.43152344 -62.6596875 193.86304688 -62.484375 193.27734375 C-60.84672367 188.05950787 -58.85407144 183.66165002 -56 179 C-55.67 178.34 -55.34 177.68 -55 177 C-54.34 177 -53.68 177 -53 177 C-52.76216797 176.18208984 -52.76216797 176.18208984 -52.51953125 175.34765625 C-50.93974973 170.24173255 -48.94875029 165.81241871 -46.18359375 161.23828125 C-44.90503469 158.97103119 -44.90503469 158.97103119 -44.0859375 156.23046875 C-42.76724358 152.30759151 -41.00277699 148.71233468 -39.1875 145 C-36.10422601 138.58208302 -33.46899278 132.19673592 -31.203125 125.44140625 C-30.24523259 122.70146075 -29.22220271 120.03182437 -28.1328125 117.34375 C-21.12803399 99.97039921 -15.79765057 82.36041754 -11.73510742 64.08886719 C-10.92336929 60.67800339 -9.97900314 57.31691589 -9.03125 53.94140625 C-6.85964429 45.89206291 -5.46775845 37.7875663 -4.18969727 29.5546875 C-3.80946619 27.10545798 -3.41839626 24.65814678 -3.02539062 22.2109375 C-2.77281874 20.6224941 -2.52084407 19.03395559 -2.26953125 17.4453125 C-2.15599808 16.72949005 -2.0424649 16.0136676 -1.92549133 15.27615356 C-1.13864743 10.19637481 -0.54134644 5.11184367 0 0 Z " fill="#000000" transform="translate(997,558)"/>
<path d="M0 0 C143.22 0 286.44 0 434 0 C434 0.33 434 0.66 434 1 C432.17964233 1.28665527 432.17964233 1.28665527 430.32250977 1.57910156 C425.73472377 2.3033063 421.14832332 3.03599404 416.56225586 3.77099609 C414.59321189 4.08541493 412.62381951 4.39766115 410.65405273 4.70751953 C395.37071598 7.11391497 380.32405205 9.93734134 365.5 14.4375 C364.09512866 14.86093123 362.69017818 15.28409996 361.28515625 15.70703125 C360.58535645 15.91924316 359.88555664 16.13145508 359.16455078 16.35009766 C356.92487848 17.0225551 354.68037575 17.675934 352.43359375 18.32421875 C351.68078125 18.54215088 350.92796875 18.76008301 350.15234375 18.98461914 C348.72973703 19.3959394 347.30660183 19.80543868 345.8828125 20.21264648 C341.8617575 21.38297573 337.95897207 22.73438469 334.04980469 24.23510742 C331.98143392 25.00692801 329.9000501 25.70376362 327.80078125 26.38671875 C321.86082841 28.34549043 316.02838013 30.57852437 310.1875 32.8125 C308.53911133 33.4322168 308.53911133 33.4322168 306.85742188 34.06445312 C300.31368845 36.56703591 294.04814261 39.3629952 287.81518555 42.56079102 C282.92744339 45.05955435 277.93810713 47.34447976 272.95898438 49.65429688 C268.22233126 51.87472627 263.62906037 54.26039243 259.07397461 56.83276367 C256.28631966 58.40166047 253.45478223 59.88372659 250.625 61.375 C244.55247287 64.63774476 238.74977231 68.20166557 233 72 C232.14921875 72.56203125 231.2984375 73.1240625 230.421875 73.703125 C228.27662093 75.12868093 226.13693563 76.5620204 224 78 C221 80 221 80 218 80 C218 80.66 218 81.32 218 82 C216.20963542 82.9765625 214.41927083 83.953125 212.62890625 84.9296875 C210.83381685 85.91410024 210.83381685 85.91410024 210 88 C208.63269944 88.82038034 207.23052613 89.58329728 205.8125 90.3125 C201.71333745 92.51774567 198.50870139 94.95912546 195 98 C193.4840625 98.99 193.4840625 98.99 191.9375 100 C188.9073774 101.92939956 188.9073774 101.92939956 186.375 104.625 C184.17778784 106.82221216 182.69887136 107.65056432 180 109 C178.86193149 110.13806851 177.7273403 111.27999683 176.6171875 112.4453125 C174.52681653 114.45489618 172.27904771 116.20787049 170 118 C166.42873846 120.81885925 163.12944085 123.6864744 160 127 C158.70420353 128.36984198 157.38007251 129.7151049 156 131 C155.34 131 154.68 131 154 131 C153.79375 131.556875 153.5875 132.11375 153.375 132.6875 C151.82878474 135.28795294 149.93082704 136.84752926 147.578125 138.71484375 C145.21236764 140.64141348 143.12817818 142.81725315 141 145 C140.0925 145.86625 139.185 146.7325 138.25 147.625 C135.80995326 149.86533112 135.80995326 149.86533112 135 153 C133 154.33333333 131 155.66666667 129 157 C128.67 157.99 128.34 158.98 128 160 C126.34920348 161.38127872 124.69679938 162.76069496 123.03515625 164.12890625 C119.19773964 167.65697258 116.18321453 171.89002681 113 176 C112.08961058 177.0886138 111.1740149 178.17292742 110.25 179.25 C107.93777115 181.97599261 107.93777115 181.97599261 106 185.0625 C103.93026202 188.10242766 101.59460784 190.40539216 99 193 C97.65144382 194.98976733 96.32067658 196.99161977 95 199 C92.84337906 202.06659116 90.64201667 205.10125589 88.44726562 208.140625 C86.03684497 211.45409356 86.03684497 211.45409356 84 215 C83.34 215 82.68 215 82 215 C82 215.99 82 216.98 82 218 C81.34 218 80.68 218 80 218 C79.814375 219.1446875 79.814375 219.1446875 79.625 220.3125 C79 223 79 223 77 226 C76.34 226 75.68 226 75 226 C74.7215625 227.175625 74.7215625 227.175625 74.4375 228.375 C73.14291836 231.63959719 71.8525075 233.75863319 69.8125 236.5625 C66.28545892 241.42864588 63.48362132 246.50179075 60.69921875 251.8203125 C59.13925005 254.73942635 57.48439674 257.55714061 55.75 260.375 C53.45404077 264.14520674 51.69056802 267.91446062 50 272 C49.05110085 273.90057286 48.09165592 275.79589667 47.125 277.6875 C44.55555179 282.77551626 42.29296658 287.92766507 40.1484375 293.20703125 C39.15321918 295.62737513 38.09749679 298.00001695 37 300.375 C34.27047466 306.42693938 32.17515308 312.73306306 30 319 C29.34 319 28.68 319 28 319 C27.75765625 320.22460938 27.5153125 321.44921875 27.265625 322.7109375 C25.90171726 328.84373669 23.8036234 334.69552399 21.75 340.625 C17.56648725 352.9608271 14.01620381 365.33149683 11 378 C10.7839209 378.88977539 10.5678418 379.77955078 10.34521484 380.69628906 C6.11654934 398.2821678 3.54909966 416.11040221 1 434 C0.67 434 0.34 434 0 434 C0 290.78 0 147.56 0 0 Z " fill="#000000" transform="translate(0,0)"/>
<path d="M0 0 C0.33 0 0.66 0 1 0 C1.15557373 1.00562988 1.31114746 2.01125977 1.47143555 3.04736328 C5.35574318 28.04709085 9.72197876 52.43831118 17.27246094 76.63037109 C18.22096566 79.71969554 19.10836415 82.82504729 19.99658203 85.93212891 C21.73855352 92.0107567 23.63801277 97.92441863 26.10546875 103.75390625 C27.04008501 106.10065014 27.75032813 108.44494529 28.4375 110.875 C30.15126667 116.79025914 32.56215695 122.35267171 35 128 C35.51812334 129.23257074 36.03501145 130.46566132 36.55078125 131.69921875 C37.07529672 132.94540685 37.60003234 134.19150232 38.125 135.4375 C38.60195313 136.57058594 39.07890625 137.70367188 39.5703125 138.87109375 C40.87813101 141.73328672 42.37611528 144.31098659 44 147 C44.74663085 148.67090836 45.45621431 150.35893959 46.125 152.0625 C46.62386719 153.31740234 46.62386719 153.31740234 47.1328125 154.59765625 C47.89954052 156.7217001 48.50201756 158.79973066 49 161 C49.66 161 50.32 161 51 161 C51.23074219 161.54527344 51.46148437 162.09054687 51.69921875 162.65234375 C53.80812595 167.52867069 56.1432773 172.16828346 58.76171875 176.7890625 C64 186.14195584 64 186.14195584 64 189 C64.66 189 65.32 189 66 189 C66.66 190.98 67.32 192.96 68 195 C68.66 195 69.32 195 70 195 C70.81498562 196.6029053 71.62689927 198.20737278 72.4375 199.8125 C72.88996094 200.70582031 73.34242187 201.59914063 73.80859375 202.51953125 C75 205 75 205 76 208 C76.66 208 77.32 208 78 208 C78.495 210.475 78.495 210.475 79 213 C79.66 213 80.32 213 81 213 C81 213.99 81 214.98 81 216 C81.99 216.33 82.98 216.66 84 217 C85.46875 219.203125 85.46875 219.203125 87 222 C88.15598024 223.92313076 89.3228684 225.83974258 90.5 227.75 C91.0878125 228.71421875 91.675625 229.6784375 92.28125 230.671875 C93.85547638 233.27149702 93.85547638 233.27149702 97 234 C97.95703125 235.6015625 97.95703125 235.6015625 98.8125 237.625 C100.62243422 241.54065535 102.8856879 244.42288564 105.828125 247.5546875 C107 249 107 249 107 251 C107.66 251 108.32 251 109 251 C109 251.66 109 252.32 109 253 C109.66 253 110.32 253 111 253 C111.226875 253.556875 111.45375 254.11375 111.6875 254.6875 C113.37367031 257.65837149 115.55387116 259.60822958 118 262 C119.69988522 263.89488452 121.3637774 265.81874323 123.03125 267.7421875 C125.24906088 270.28562935 127.49536228 272.80165345 129.75 275.3125 C130.48734375 276.13363281 131.2246875 276.95476562 131.984375 277.80078125 C133.61750665 279.58266714 135.27632854 281.30692626 137 283 C137.45375 283.474375 137.9075 283.94875 138.375 284.4375 C140.08625025 286.14450331 140.08625025 286.14450331 142.5625 287.9375 C144.96809503 289.97300349 145.63732898 291.27465796 147 294 C147.91458984 294.433125 147.91458984 294.433125 148.84765625 294.875 C151.37337437 296.19515756 152.59639598 297.66218279 154.375 299.875 C157.27627235 303.32297892 160.20137334 305.55199615 164 308 C165.33333333 309.66666667 166.66666667 311.33333333 168 313 C169.97485205 314.3703055 171.97386717 315.70672372 174 317 C175.02104551 317.97850195 176.0206121 318.97980427 177 320 C179.91525266 322.53500231 182.54469987 324.73275862 185.875 326.6875 C186.57625 327.120625 187.2775 327.55375 188 328 C188 328.66 188 329.32 188 330 C188.66 330 189.32 330 190 330 C190.99 331.485 190.99 331.485 192 333 C193.010625 333.33 194.02125 333.66 195.0625 334 C196.031875 334.33 197.00125 334.66 198 335 C198.33 335.99 198.66 336.98 199 338 C201.32162189 339.60864828 201.32162189 339.60864828 204.0625 341.0625 C206.84765625 342.59765625 206.84765625 342.59765625 209 344 C209 344.66 209 345.32 209 346 C209.70511719 346.2578125 210.41023437 346.515625 211.13671875 346.78125 C214.24269315 348.10330186 216.95978065 349.69747854 219.8125 351.5 C220.78832031 352.1084375 221.76414063 352.716875 222.76953125 353.34375 C223.50558594 353.8903125 224.24164063 354.436875 225 355 C225 355.66 225 356.32 225 357 C225.680625 357.2475 226.36125 357.495 227.0625 357.75 C229.91908204 358.96556683 232.54200894 360.41316642 235.21875 361.98046875 C237.75704254 363.43330724 240.37222901 364.71816049 243 366 C243 366.66 243 367.32 243 368 C243.99 368 244.98 368 246 368 C246 368.66 246 369.32 246 370 C248.64 370.66 251.28 371.32 254 372 C254 372.66 254 373.32 254 374 C254.825 374.2475 255.65 374.495 256.5 374.75 C259.90239032 375.9651394 262.97426234 377.42836197 266.16796875 379.09765625 C268.14990796 380.12524215 268.14990796 380.12524215 271 381 C271 381.66 271 382.32 271 383 C271.87011719 383.28230469 272.74023438 383.56460937 273.63671875 383.85546875 C280.39221733 386.15437826 287.06542529 388.74519813 293.1875 392.4375 C298.11676062 395.30313963 303.39133434 397.005855 308.7668457 398.83300781 C312.56354008 400.12667762 316.24349913 401.4700754 319.875 403.1875 C323.80518819 405.02812556 327.78986225 406.05128146 331.98730469 407.1159668 C334.95306226 407.98622678 337.63694231 409.08870123 340.45703125 410.34765625 C347.27600916 413.23190315 354.21410466 415.15927554 361.375 417 C362.70838132 417.34722788 364.04171393 417.69464287 365.375 418.04223633 C369.24562391 419.04593655 373.12178191 420.02604899 377 421 C378.00450195 421.25313965 379.00900391 421.5062793 380.04394531 421.76708984 C396.19341724 425.78004116 412.57527467 428.40706113 429 431 C429 431.33 429 431.66 429 432 C287.43 432 145.86 432 0 432 C0 289.44 0 146.88 0 0 Z " fill="#000000" transform="translate(0,565)"/>
<path d="M0 0 C0.74800369 -0.01530762 1.49600739 -0.03061523 2.26667786 -0.04638672 C22.64700993 -0.38445998 41.18271176 1.25418802 60.99609375 6.30859375 C62.08583496 6.58654785 63.17557617 6.86450195 64.29833984 7.15087891 C71.27318537 8.98004795 78.14779684 11.05372504 84.99609375 13.30859375 C85.91648437 13.60991211 86.836875 13.91123047 87.78515625 14.22167969 C106.678629 20.50841622 126.0318078 28.1952348 141.99609375 40.30859375 C142.93324219 40.98019531 143.87039063 41.65179688 144.8359375 42.34375 C156.61958269 51.25018142 163.90224211 62.63358185 165.99609375 77.30859375 C167.99358897 109.8063045 153.2319943 144.91668637 132.484375 169.5 C112.72742904 191.80022629 88.09902271 207.52296169 59.99609375 217.30859375 C59.26970703 217.5622168 58.54332031 217.81583984 57.79492188 218.07714844 C26.88747799 228.59249092 -7.55578101 229.16218933 -37.2109375 214.75 C-59.40810984 202.61864893 -74.15462539 182.21811596 -81.42675781 158.28955078 C-85.64221588 143.82075774 -87.38086805 129.29223625 -87.31640625 114.24609375 C-87.31491577 113.57594238 -87.31342529 112.90579102 -87.31188965 112.21533203 C-87.24392625 95.10478642 -85.17832584 78.65613124 -80.00390625 62.30859375 C-79.64039063 61.13466064 -79.64039063 61.13466064 -79.26953125 59.93701172 C-72.70915422 39.03786945 -62.81535045 21.30954311 -43.00390625 10.30859375 C-29.50700063 3.59389208 -15.0313582 0.30298052 0 0 Z " fill="#EB7C7B" transform="translate(386.00390625,255.69140625)"/>
<path d="M0 0 C2.10847098 0.00537626 4.21673066 0.00002085 6.32519531 -0.00634766 C7.68196661 -0.00568708 9.03873778 -0.00440633 10.39550781 -0.00244141 C11.61189941 -0.00131348 12.82829102 -0.00018555 14.08154297 0.00097656 C17.30288904 0.12357554 20.31933784 0.52234317 23.48144531 1.13037109 C20.81780447 3.22046658 18.1915845 4.89526824 15.16503906 6.40771484 C14.32787354 6.83246094 13.49070801 7.25720703 12.62817383 7.69482422 C11.28710571 8.37448242 11.28710571 8.37448242 9.91894531 9.06787109 C-20.70944138 24.89045796 -50.91121868 45.32736294 -62.14355469 79.56787109 C-62.54832031 80.78345703 -62.95308594 81.99904297 -63.37011719 83.25146484 C-68.86870899 101.31199294 -68.89676961 121.61397625 -61.51855469 139.13037109 C-61.25623047 139.75862793 -60.99390625 140.38688477 -60.72363281 141.03417969 C-52.04798298 161.15773436 -35.84317104 175.47280747 -15.73339844 183.76708984 C-12.3423737 185.01760063 -8.99505524 186.14081938 -5.51855469 187.13037109 C-4.20564453 187.51334351 -4.20564453 187.51334351 -2.86621094 187.90405273 C22.10196835 194.74707772 47.06494403 188.90090856 69.48144531 177.13037109 C70.72172512 176.50546973 71.96262211 175.88179199 73.20410156 175.25927734 C95.21607484 164.05525418 115.18795439 148.6045889 133.48144531 132.13037109 C134.40441406 131.30666016 135.32738281 130.48294922 136.27832031 129.63427734 C138.68782058 127.4754549 141.08566311 125.30439495 143.48144531 123.13037109 C145.35580242 121.44215704 147.23079325 119.7546463 149.10644531 118.06787109 C150.36328125 116.93671875 150.36328125 116.93671875 151.64550781 115.78271484 C152.25136719 115.23744141 152.85722656 114.69216797 153.48144531 114.13037109 C154.5792546 117.42379896 154.45851441 117.92213847 153.32910156 121.01708984 C153.05155029 121.78255127 152.77399902 122.5480127 152.48803711 123.33666992 C152.02071167 124.5648645 152.02071167 124.5648645 151.54394531 125.81787109 C151.22401611 126.66567139 150.90408691 127.51347168 150.57446289 128.38696289 C143.53281535 146.64062038 134.02588669 161.96118611 120.48144531 176.13037109 C119.6190625 177.0875 119.6190625 177.0875 118.73925781 178.06396484 C101.54500838 196.44270702 77.98977041 208.94461152 54.48144531 217.13037109 C53.75505859 217.38399414 53.02867187 217.63761719 52.28027344 217.89892578 C21.37282955 228.41426826 -13.07042945 228.98396667 -42.72558594 214.57177734 C-64.92275828 202.44042628 -79.66927382 182.0398933 -86.94140625 158.11132812 C-91.15686432 143.64253508 -92.89551649 129.11401359 -92.83105469 114.06787109 C-92.82956421 113.39771973 -92.82807373 112.72756836 -92.82653809 112.03710938 C-92.75857469 94.92656376 -90.69297428 78.47790859 -85.51855469 62.13037109 C-85.15503906 60.95643799 -85.15503906 60.95643799 -84.78417969 59.75878906 C-78.22380266 38.85964679 -68.32999889 21.13132045 -48.51855469 10.13037109 C-32.99756207 2.40868748 -17.16095392 -0.05214876 0 0 Z " fill="#DB6A69" transform="translate(391.5185546875,255.86962890625)"/>
<path d="M0 0 C1.60681641 0.63615234 1.60681641 0.63615234 3.24609375 1.28515625 C13.87961788 6.05099291 22.46543865 14.15809526 26.75 25.125 C29.94803472 35.74958203 28.04068611 45.28477932 23 55 C14.67589158 67.70802053 1.54076713 77.8803034 -13.37109375 81.58984375 C-20.7893633 82.74722607 -28.67076042 83.28555195 -35.30078125 79.32421875 C-38.99594026 76.44454311 -41.73883184 72.90110808 -44.31640625 69.015625 C-50.56185111 59.83428725 -59.68926546 56.01933267 -69.6875 52 C-77.09668728 49.02135994 -83.5924711 46.11702993 -88.16015625 39.2578125 C-91.73138393 29.65702366 -88.93291449 16.07595652 -85 7 C-81.79893457 4.86595638 -79.4720348 4.23389417 -75.75 3.34375 C-74.50089844 3.04339844 -73.25179688 2.74304688 -71.96484375 2.43359375 C-71.31241699 2.28003418 -70.65999023 2.12647461 -69.98779297 1.96826172 C-68.03320546 1.50782216 -66.08102567 1.03719993 -64.12890625 0.56640625 C-43.39901993 -4.37736398 -20.43592464 -8.12878787 0 0 Z " fill="#F19393" transform="translate(479,290)"/>
<path d="M0 0 C13.33510832 8.29541855 22.21314353 21.57580647 26.7109375 36.453125 C28.45667883 45.16345544 28.40308878 53.46794877 23.859375 61.25 C13.30371625 76.51510651 -6.53515468 82.47490374 -23.9765625 85.828125 C-32.86511818 87.04076902 -41.70955785 88.13091609 -49.6640625 83.453125 C-57.69082978 76.76415226 -60.13636799 67.47655951 -61.6640625 57.453125 C-63.05618649 41.35144997 -58.25137053 27.50942906 -48.52734375 14.62109375 C-43.85753496 9.18520813 -38.96068246 4.88569465 -32.6640625 1.453125 C-31.91769531 1.040625 -31.17132812 0.628125 -30.40234375 0.203125 C-21.08749862 -4.23104921 -9.371772 -4.42123463 0 0 Z " fill="#EB7C7B" transform="translate(834.6640625,489.546875)"/>
<path d="M0 0 C8.66495673 6.31097682 15.91185135 15.28711917 18.5 25.875 C18.70631185 27.24461243 18.87706555 28.62040227 19 30 C19.103125 31.134375 19.20625 32.26875 19.3125 33.4375 C18.40833094 43.74502727 14.68153694 50.05392936 7 57 C-3.25331312 65.35277689 -15.97626669 68.90185905 -29.1328125 68.37109375 C-36.84931617 67.37236371 -41.34950725 63.34877997 -46.24609375 57.484375 C-49.0131356 53.5649126 -50.59279014 49.56318536 -52 45 C-52.28617187 44.07703125 -52.57234375 43.1540625 -52.8671875 42.203125 C-56.40919605 29.99162885 -59.08294655 12.83725902 -53.97265625 0.69140625 C-50.85699852 -4.7265849 -46.7513488 -6.94594686 -41 -9 C-25.83410704 -12.72632765 -12.52081372 -8.71985241 0 0 Z " fill="#EB7C7B" transform="translate(362,786)"/>
<path d="M0 0 C13.33510832 8.29541855 22.21314353 21.57580647 26.7109375 36.453125 C28.45702942 45.16520467 28.39022878 53.44774229 23.875 61.2421875 C19.05799781 68.16204344 12.85975785 72.69809217 5.3359375 76.453125 C4.6759375 76.453125 4.0159375 76.453125 3.3359375 76.453125 C4.40298768 74.2577586 5.52349464 72.12607549 6.73828125 70.0078125 C13.52050603 58.16911988 16.07930833 47.0798807 14.3359375 33.453125 C11.7882917 24.8456468 6.03937402 18.99318905 -1.4765625 14.328125 C-9.34566561 11.18048376 -19.57526932 11.33059073 -27.44921875 14.375 C-41.71745805 21.32038633 -48.10285431 35.9489202 -53.22265625 50.140625 C-55.06204607 55.49157721 -56.52302738 60.91095443 -57.6640625 66.453125 C-58.3240625 66.453125 -58.9840625 66.453125 -59.6640625 66.453125 C-64.01280194 50.96074076 -61.5660002 37.94105214 -54.4765625 23.828125 C-49.12220646 14.29531627 -42.30656897 6.7096873 -32.6640625 1.453125 C-31.91769531 1.040625 -31.17132812 0.628125 -30.40234375 0.203125 C-21.08749862 -4.23104921 -9.371772 -4.42123463 0 0 Z " fill="#DB6B6A" transform="translate(834.6640625,489.546875)"/>
<path d="M0 0 C15.95181251 -1.32931771 27.05732602 1.94505496 39.5 12.1875 C46.82021901 19.34697096 53.07331521 28.60053733 54 39 C54.103125 40.134375 54.20625 41.26875 54.3125 42.4375 C53.40833094 52.74502727 49.68153694 59.05392936 42 66 C31.74668688 74.35277689 19.02373331 77.90185905 5.8671875 77.37109375 C-1.84084128 76.3734606 -6.32067173 72.35899398 -11.23046875 66.51953125 C-13.92874748 62.6776112 -15.90120353 58.57687663 -17 54 C-16.67 53.34 -16.34 52.68 -16 52 C-15.0925 52.845625 -14.185 53.69125 -13.25 54.5625 C-3.02070096 63.36640491 6.75358897 66.95750944 20.02636719 66.2265625 C25.98999444 65.54196996 30.97956816 62.47442991 34.9375 58.0625 C40.53541436 49.75044535 40.9958565 42.6878467 40 33 C38.93214396 29.39921006 37.37942525 26.88568594 35 24 C34.40316406 23.26652344 33.80632812 22.53304687 33.19140625 21.77734375 C24.36988266 12.05532437 11.97865436 5.95582581 0 1 C0 0.67 0 0.34 0 0 Z " fill="#DB6B69" transform="translate(327,777)"/>
<path d="M0 0 C5.41687663 2.29628466 9.28913072 6.72707894 12.15625 11.79296875 C14.21305072 17.17302619 13.4739178 22.25242811 12 27.6875 C8.78471086 33.01282264 4.61287083 36.7479994 -1 39.4375 C-8.24575623 40.79607929 -12.64474832 40.38828729 -18.94921875 36.56640625 C-22.96010915 33.50284997 -25.3984096 29.80477119 -27 25 C-27.57432135 18.68246515 -27.19789025 13.62387595 -24 8 C-17.0501584 -0.04718501 -10.37174455 -1.41966187 0 0 Z " fill="#F19393" transform="translate(436,396)"/>
<path d="M0 0 C0.66 0.33 1.32 0.66 2 1 C5.78740974 0.95923532 9.56426252 0.87358492 13.34765625 0.69726562 C19.4245288 0.56343564 19.4245288 0.56343564 22.4921875 2.890625 C25.22487362 6.71355377 26.47198601 9.21577813 26 14 C20.89280759 21.2756093 10.81703337 29.31163191 2 31 C-3.71512755 31.56010324 -8.12215004 31.36803926 -13 28 C-16.90279666 22.59972741 -17.029009 17.4517231 -16 11 C-12.46782019 3.29140632 -8.74158573 -0.47681377 0 0 Z " fill="#F19393" transform="translate(811,537)"/>
<path d="M0 0 C4.83452188 2.41726094 7.99814121 5.58550178 11 10 C11.58670686 13.59357952 11.51480664 15.22512265 9.4921875 18.26953125 C7.22622002 22.41589583 7.63342539 26.39770148 7.6015625 31.0390625 C7 34 7 34 4.8984375 35.8984375 C1.2192301 37.29673465 -1.09645981 37.64257604 -5 37 C-7.04296284 34.88904143 -8.32876532 33.2642327 -9.8125 30.8125 C-10.19341797 30.23435547 -10.57433594 29.65621094 -10.96679688 29.06054688 C-15.65946123 21.78732804 -17.17756691 15.62771796 -16 7 C-12.48692658 0.05221167 -7.1553406 -0.8581574 0 0 Z " fill="#F19393" transform="translate(328,793)"/>
<path d="M0 0 C3.6578218 2.03993908 5.66946174 3.50419262 8 7 C8.48692434 11.30116499 8.28241006 13.48387126 6.1875 17.3125 C4 20 4 20 1 22 C-5.90258449 22.66799205 -5.90258449 22.66799205 -9.875 20.25 C-13.02630793 16.91332102 -13.87313941 15.16288877 -14.375 10.5625 C-13.93394638 6.37249061 -12.98913863 4.906107 -10 2 C-6.73065722 -0.28853994 -3.9301848 -0.47162218 0 0 Z " fill="#B84A4A" transform="translate(361,444)"/>
<path d="M0 0 C2.66106976 2.38813953 3.77849624 4.01553885 4.5625 7.5 C3.70956484 11.29082295 2.11459264 12.74689043 -1 15 C-4.54361243 15 -6.86591591 14.65850044 -9.9375 12.875 C-11.6712306 9.81547541 -11.42145216 7.43182475 -11 4 C-8.12368463 -0.48705198 -5.10517337 -0.82047429 0 0 Z " fill="#F19292" transform="translate(807,512)"/>
<path d="M0 0 C2.375 1.125 2.375 1.125 4 3 C4.5 5.9375 4.5 5.9375 4 9 C2.01677007 11.7912125 0.87013879 12.82597224 -2.5 13.5 C-5.87013879 12.82597224 -7.01677007 11.7912125 -9 9 C-9.45742277 5.79804064 -9.55468045 3.92446741 -7.875 1.125 C-5.10703881 -0.53577671 -3.16909182 -0.38805206 0 0 Z " fill="#F19291" transform="translate(357,799)"/>
<path d="M0 0 C1 1 1 1 1.125 3.5 C1 6 1 6 0 7 C-2.4375 7.1875 -2.4375 7.1875 -5 7 C-5.66 6.34 -6.32 5.68 -7 5 C-6.75 2.4375 -6.75 2.4375 -6 0 C-3.49749232 -1.25125384 -2.59701335 -0.83774624 0 0 Z " fill="#B94A4A" transform="translate(820,490)"/>
<path d="M0 0 C2.125 0.375 2.125 0.375 4 1 C4.38218767 2.65614657 4.71395102 4.32457024 5 6 C4 7 4 7 1.4375 7.0625 C0.2309375 7.0315625 0.2309375 7.0315625 -1 7 C-1.625 4.625 -1.625 4.625 -2 2 C-1.34 1.34 -0.68 0.68 0 0 Z " fill="#B94B4B" transform="translate(373,817)"/>
</svg>
