<svg width="40" height="40" viewBox="0 0 40 40" fill="none" xmlns="http://www.w3.org/2000/svg">
<path d="M0 20C0 8.95439 8.95377 0 19.9996 0C31.0454 0 40 8.95439 40 20C40 31.0456 31.0454 40 19.9996 40C8.95377 40 0 31.0456 0 20Z" fill="#FFD8BE"/>
<path d="M15.0391 19.9998C15.0391 17.2602 17.2602 15.0383 19.9998 15.0383C22.7403 15.0383 24.9614 17.2602 24.9614 19.9998C24.9614 22.7394 22.7403 24.9613 19.9998 24.9613C17.2602 24.9613 15.0391 22.7394 15.0391 19.9998Z" fill="#FFB1B2"/>
<path d="M17.2725 9.06071C17.2725 7.555 18.4935 6.33398 19.9992 6.33398C21.5058 6.33398 22.726 7.555 22.726 9.06071C22.726 10.5672 21.5058 11.7874 19.9992 11.7874C18.4935 11.7874 17.2725 10.5672 17.2725 9.06071Z" fill="#FFB1B2"/>
<path d="M26.1258 10.5361C27.2259 9.50704 28.951 9.5643 29.9801 10.6643C31.0091 11.7644 30.9511 13.4895 29.8518 14.5185C28.7518 15.5476 27.0258 15.4895 25.9976 14.3903C24.9685 13.2903 25.0257 11.5644 26.1258 10.5361Z" fill="#FFB1B2"/>
<path d="M30.9387 17.2732C32.4452 17.2732 33.6655 18.4942 33.6655 19.9999C33.6655 21.5056 32.4452 22.7266 30.9387 22.7266C29.433 22.7266 28.2119 21.5056 28.2119 19.9999C28.2119 18.4942 29.433 17.2732 30.9387 17.2732Z" fill="#FFB1B2"/>
<path d="M29.4645 26.1264C30.4928 27.2256 30.4356 28.9515 29.3355 29.9806C28.2362 31.0088 26.5103 30.9516 25.4812 29.8515C24.4529 28.7523 24.5102 27.0264 25.6103 25.9973C26.7095 24.9691 28.4354 25.0263 29.4645 26.1264Z" fill="#FFB1B2"/>
<path d="M22.726 30.9396C22.726 32.4453 21.5058 33.6663 19.9992 33.6663C18.4935 33.6663 17.2725 32.4453 17.2725 30.9396C17.2725 29.4339 18.4935 28.2129 19.9992 28.2129C21.5058 28.2129 22.726 29.4339 22.726 30.9396Z" fill="#FFB1B2"/>
<path d="M13.8743 29.4643C12.7742 30.4934 11.0483 30.4361 10.02 29.3361C8.99092 28.236 9.04818 26.5109 10.1482 25.4819C11.2483 24.4528 12.9734 24.5109 14.0025 25.6101C15.0316 26.7101 14.9735 28.436 13.8743 29.4643Z" fill="#FFB1B2"/>
<path d="M9.05979 22.7266C7.55405 22.7266 6.33301 21.5056 6.33301 19.9999C6.33301 18.4942 7.55405 17.2732 9.05979 17.2732C10.5663 17.2732 11.7874 18.4942 11.7874 19.9999C11.7874 21.5056 10.5663 22.7266 9.05979 22.7266Z" fill="#FFB1B2"/>
<path d="M10.5353 13.874C9.50625 12.7747 9.56432 11.0489 10.6636 10.0198C11.7636 8.99153 13.4896 9.04879 14.5178 10.1488C15.5469 11.2481 15.4897 12.9739 14.3896 14.003C13.2895 15.0313 11.5644 14.974 10.5353 13.874Z" fill="#FFB1B2"/>
</svg>
