<svg width="32" height="32" viewBox="0 0 32 32" fill="none" xmlns="http://www.w3.org/2000/svg">
<path d="M22.2113 4.3254C21.3263 4.3254 20.8823 4.3254 20.4788 4.1754L20.3123 4.1064C19.9208 3.9264 19.6073 3.61441 18.9803 2.98741C17.5373 1.54441 16.8158 0.822905 15.9293 0.755405C15.8094 0.748198 15.6892 0.748198 15.5693 0.755405C14.6828 0.822905 13.9613 1.54441 12.5183 2.98741C11.8913 3.61441 11.5778 3.9279 11.1864 4.1064L11.0214 4.1754C10.6164 4.3254 10.1739 4.3254 9.28736 4.3254H9.12236C6.86187 4.3254 5.73088 4.32541 5.02738 5.02741C4.32389 5.72941 4.32539 6.8619 4.32539 9.1224V9.2874C4.32539 10.1724 4.32539 10.6164 4.17539 11.0199C4.15339 11.0769 4.13039 11.1324 4.10639 11.1864C3.92639 11.5779 3.61439 11.8914 2.98739 12.5184C1.5444 13.9614 0.822904 14.6829 0.755405 15.5694C0.748198 15.6893 0.748198 15.8095 0.755405 15.9294C0.822904 16.8159 1.5444 17.5374 2.98739 18.9804C3.61439 19.6074 3.92789 19.9209 4.10639 20.3124C4.13139 20.3664 4.15439 20.4214 4.17539 20.4774C4.32539 20.8824 4.32539 21.3249 4.32539 22.2114V22.3764C4.32539 24.6369 4.32539 25.7679 5.02738 26.4714C5.72938 27.1749 6.86187 27.1734 9.12236 27.1734H9.28736C10.1724 27.1734 10.6164 27.1734 11.0199 27.3234C11.0769 27.3444 11.1324 27.3674 11.1864 27.3924C11.5778 27.5724 11.8913 27.8844 12.5183 28.5114C13.9613 29.9544 14.6828 30.6759 15.5693 30.7434C15.6893 30.7524 15.8093 30.7524 15.9293 30.7434C16.8158 30.6759 17.5373 29.9544 18.9803 28.5114C19.6073 27.8844 19.9208 27.5724 20.3123 27.3924C20.3663 27.3674 20.4213 27.3444 20.4773 27.3234C20.8823 27.1734 21.3248 27.1734 22.2113 27.1734H22.3763C24.6368 27.1734 25.7678 27.1734 26.4713 26.4714C27.1748 25.7694 27.1733 24.6369 27.1733 22.3764V22.2114C27.1733 21.3264 27.1733 20.8824 27.3233 20.4789C27.3443 20.4219 27.3673 20.3664 27.3923 20.3124C27.5723 19.9209 27.8843 19.6074 28.5113 18.9804C29.9543 17.5374 30.6758 16.8159 30.7433 15.9294C30.7523 15.8094 30.7523 15.6894 30.7433 15.5694C30.6758 14.6829 29.9543 13.9614 28.5113 12.5184C27.8843 11.8914 27.5723 11.5779 27.3923 11.1864L27.3233 11.0214C27.1733 10.6164 27.1733 10.1739 27.1733 9.2874V9.1224C27.1733 6.8619 27.1733 5.73091 26.4713 5.02741C25.7693 4.32391 24.6368 4.3254 22.3763 4.3254H22.2113Z" stroke="black" stroke-width="1.5" stroke-linecap="round" stroke-linejoin="round"/>
<path d="M20.9999 15.7495C20.9999 16.439 20.8642 17.1216 20.6003 17.7586C20.3365 18.3956 19.9498 18.9743 19.4623 19.4618C18.9748 19.9493 18.396 20.336 17.7591 20.5999C17.1221 20.8637 16.4394 20.9995 15.75 20.9995C15.0605 20.9995 14.3779 20.8637 13.7409 20.5999C13.1039 20.336 12.5252 19.9493 12.0377 19.4618C11.5502 18.9743 11.1635 18.3956 10.8996 17.7586C10.6358 17.1216 10.5 16.439 10.5 15.7495C10.5 14.3571 11.0531 13.0218 12.0377 12.0372C13.0222 11.0526 14.3576 10.4995 15.75 10.4995C17.1424 10.4995 18.4777 11.0526 19.4623 12.0372C20.4468 13.0218 20.9999 14.3571 20.9999 15.7495Z" stroke="black" stroke-width="1.5" stroke-linecap="round" stroke-linejoin="round"/>
</svg>
