<svg width="91" height="51" viewBox="0 0 91 51" fill="none" xmlns="http://www.w3.org/2000/svg">
<path d="M61.2549 15.977C60.0827 16.4928 58.8405 16.8321 57.5689 16.984C58.9049 16.1902 59.9074 14.9383 60.3899 13.461C59.13 14.2018 57.7529 14.7223 56.3179 15C55.3578 13.9677 54.0838 13.2813 52.6936 13.0474C51.3034 12.8134 49.8749 13.045 48.6298 13.7062C47.3848 14.3674 46.3928 15.4211 45.8081 16.7039C45.2233 17.9866 45.0784 19.4265 45.3959 20.8C42.8518 20.6765 40.3618 20.0219 38.0858 18.8783C35.8099 17.7347 33.7985 16.1275 32.1809 14.16C31.6097 15.1295 31.3099 16.2348 31.3129 17.36C31.3134 18.4089 31.5743 19.4413 32.072 20.3646C32.5698 21.2878 33.2889 22.0731 34.1649 22.65C33.1476 22.6166 32.1522 22.345 31.2589 21.857V21.932C31.2639 23.4052 31.7787 24.8313 32.7158 25.9681C33.653 27.1048 34.9547 27.8821 36.3999 28.168C35.8508 28.3181 35.2842 28.3944 34.7149 28.395C34.3085 28.3921 33.9031 28.3523 33.5039 28.276C33.9199 29.5429 34.7201 30.6487 35.7933 31.44C36.8666 32.2312 38.1597 32.6684 39.4929 32.691C37.2146 34.4592 34.4119 35.4174 31.5279 35.414C31.0185 35.4144 30.5096 35.384 30.0039 35.323C32.9438 37.1876 36.3536 38.1768 39.8349 38.175C42.2251 38.2021 44.5968 37.7538 46.8122 36.8563C49.0276 35.9588 51.0425 34.63 52.7399 32.947C54.4373 31.264 55.7833 29.2605 56.6997 27.0528C57.6161 24.8451 58.0846 22.4773 58.0779 20.087C58.0779 19.812 58.0679 19.538 58.0539 19.27C59.312 18.3761 60.3964 17.2602 61.2539 15.977" fill="#03A9F4"/>
</svg>
